StartChar: custom_1_3_0_0_0
Encoding: 4156 -1 3911
Width: 70
Flags: H
LayerCount: 2
Fore
SplineSet
17 25 m 1
 15 25 l 1
 15 27 l 1
 17 27 l 1
 17 25 l 1
23 25 m 1
 21 25 l 1
 21 27 l 1
 23 27 l 1
 23 25 l 1
26 25 m 1
 24 25 l 1
 24 27 l 1
 25 27 l 1
 25 26 l 1
 26 26 l 1
 26 25 l 1
27 26 m 1
 26 26 l 1
 26 27 l 1
 28 27 l 1
 28 25 l 1
 27 25 l 1
 27 26 l 1
31 25 m 1
 29 25 l 1
 29 27 l 1
 31 27 l 1
 31 25 l 1
17 29 m 1
 15 29 l 1
 15 31 l 1
 17 31 l 1
 17 29 l 1
17 33 m 1
 15 33 l 1
 15 35 l 1
 17 35 l 1
 17 33 l 1
23 33 m 1
 21 33 l 1
 21 35 l 1
 23 35 l 1
 23 33 l 1
25 33 m 1
 24 33 l 1
 24 35 l 1
 26 35 l 1
 26 34 l 1
 25 34 l 1
 25 33 l 1
28 33 m 1
 26 33 l 1
 26 34 l 1
 27 34 l 1
 27 35 l 1
 28 35 l 1
 28 33 l 1
17 37 m 1
 15 37 l 1
 15 39 l 1
 17 39 l 1
 17 37 l 1
17 41 m 1
 15 41 l 1
 15 43 l 1
 17 43 l 1
 17 41 l 1
23 37 m 1
 21 37 l 1
 21 39 l 1
 23 39 l 1
 23 37 l 1
23 41 m 1
 21 41 l 1
 21 43 l 1
 23 43 l 1
 23 41 l 1
26 41 m 1
 24 41 l 1
 24 43 l 1
 25 43 l 1
 25 42 l 1
 26 42 l 1
 26 41 l 1
27 42 m 1
 26 42 l 1
 26 43 l 1
 28 43 l 1
 28 41 l 1
 27 41 l 1
 27 42 l 1
31 29 m 1
 29 29 l 1
 29 31 l 1
 31 31 l 1
 31 29 l 1
36 31 m 1
 34 31 l 1
 34 33 l 1
 36 33 l 1
 36 31 l 1
31 33 m 1
 29 33 l 1
 29 35 l 1
 31 35 l 1
 31 33 l 1
36 35 m 1
 34 35 l 1
 34 37 l 1
 36 37 l 1
 36 35 l 1
31 41 m 1
 29 41 l 1
 29 43 l 1
 31 43 l 1
 31 41 l 1
49 25 m 1
 47 25 l 1
 47 27 l 1
 49 27 l 1
 49 25 l 1
55 25 m 1
 53 25 l 1
 53 27 l 1
 55 27 l 1
 55 25 l 1
58 25 m 1
 56 25 l 1
 56 27 l 1
 57 27 l 1
 57 26 l 1
 58 26 l 1
 58 25 l 1
59 26 m 1
 58 26 l 1
 58 27 l 1
 60 27 l 1
 60 25 l 1
 59 25 l 1
 59 26 l 1
63 25 m 1
 61 25 l 1
 61 27 l 1
 63 27 l 1
 63 25 l 1
49 29 m 1
 47 29 l 1
 47 31 l 1
 49 31 l 1
 49 29 l 1
49 33 m 1
 47 33 l 1
 47 35 l 1
 49 35 l 1
 49 33 l 1
55 33 m 1
 53 33 l 1
 53 35 l 1
 55 35 l 1
 55 33 l 1
57 33 m 1
 56 33 l 1
 56 35 l 1
 58 35 l 1
 58 34 l 1
 57 34 l 1
 57 33 l 1
60 33 m 1
 58 33 l 1
 58 34 l 1
 59 34 l 1
 59 35 l 1
 60 35 l 1
 60 33 l 1
49 37 m 1
 47 37 l 1
 47 39 l 1
 49 39 l 1
 49 37 l 1
49 41 m 1
 47 41 l 1
 47 43 l 1
 49 43 l 1
 49 41 l 1
55 41 m 1
 53 41 l 1
 53 43 l 1
 55 43 l 1
 55 41 l 1
58 41 m 1
 56 41 l 1
 56 43 l 1
 57 43 l 1
 57 42 l 1
 58 42 l 1
 58 41 l 1
59 42 m 1
 58 42 l 1
 58 43 l 1
 60 43 l 1
 60 41 l 1
 59 41 l 1
 59 42 l 1
63 29 m 1
 61 29 l 1
 61 31 l 1
 63 31 l 1
 63 29 l 1
63 33 m 1
 61 33 l 1
 61 35 l 1
 63 35 l 1
 63 33 l 1
63 37 m 1
 61 37 l 1
 61 39 l 1
 63 39 l 1
 63 37 l 1
63 41 m 1
 61 41 l 1
 61 43 l 1
 63 43 l 1
 63 41 l 1
EndSplineSet
Ligature2: "'liga' Standard Ligatures in Latin lookup 0-1" one three zero zero zero
LCarets2: 1 0
EndChar

StartChar: custom_1_3_0_0_1
Encoding: 4157 -1 3912
Width: 70
Flags: H
LayerCount: 2
Fore
SplineSet
17 25 m 1
 15 25 l 1
 15 27 l 1
 17 27 l 1
 17 25 l 1
23 25 m 1
 21 25 l 1
 21 27 l 1
 23 27 l 1
 23 25 l 1
26 25 m 1
 24 25 l 1
 24 27 l 1
 25 27 l 1
 25 26 l 1
 26 26 l 1
 26 25 l 1
27 26 m 1
 26 26 l 1
 26 27 l 1
 28 27 l 1
 28 25 l 1
 27 25 l 1
 27 26 l 1
31 25 m 1
 29 25 l 1
 29 27 l 1
 31 27 l 1
 31 25 l 1
17 29 m 1
 15 29 l 1
 15 31 l 1
 17 31 l 1
 17 29 l 1
17 33 m 1
 15 33 l 1
 15 35 l 1
 17 35 l 1
 17 33 l 1
23 33 m 1
 21 33 l 1
 21 35 l 1
 23 35 l 1
 23 33 l 1
25 33 m 1
 24 33 l 1
 24 35 l 1
 26 35 l 1
 26 34 l 1
 25 34 l 1
 25 33 l 1
28 33 m 1
 26 33 l 1
 26 34 l 1
 27 34 l 1
 27 35 l 1
 28 35 l 1
 28 33 l 1
17 37 m 1
 15 37 l 1
 15 39 l 1
 17 39 l 1
 17 37 l 1
17 41 m 1
 15 41 l 1
 15 43 l 1
 17 43 l 1
 17 41 l 1
23 37 m 1
 21 37 l 1
 21 39 l 1
 23 39 l 1
 23 37 l 1
23 41 m 1
 21 41 l 1
 21 43 l 1
 23 43 l 1
 23 41 l 1
26 41 m 1
 24 41 l 1
 24 43 l 1
 25 43 l 1
 25 42 l 1
 26 42 l 1
 26 41 l 1
27 42 m 1
 26 42 l 1
 26 43 l 1
 28 43 l 1
 28 41 l 1
 27 41 l 1
 27 42 l 1
31 29 m 1
 29 29 l 1
 29 31 l 1
 31 31 l 1
 31 29 l 1
36 31 m 1
 34 31 l 1
 34 33 l 1
 36 33 l 1
 36 31 l 1
31 33 m 1
 29 33 l 1
 29 35 l 1
 31 35 l 1
 31 33 l 1
36 35 m 1
 34 35 l 1
 34 37 l 1
 36 37 l 1
 36 35 l 1
31 41 m 1
 29 41 l 1
 29 43 l 1
 31 43 l 1
 31 41 l 1
49 25 m 1
 47 25 l 1
 47 27 l 1
 49 27 l 1
 49 25 l 1
55 25 m 1
 53 25 l 1
 53 27 l 1
 55 27 l 1
 55 25 l 1
58 25 m 1
 56 25 l 1
 56 27 l 1
 57 27 l 1
 57 26 l 1
 58 26 l 1
 58 25 l 1
59 26 m 1
 58 26 l 1
 58 27 l 1
 60 27 l 1
 60 25 l 1
 59 25 l 1
 59 26 l 1
63 25 m 1
 61 25 l 1
 61 27 l 1
 63 27 l 1
 63 25 l 1
49 29 m 1
 47 29 l 1
 47 31 l 1
 49 31 l 1
 49 29 l 1
49 33 m 1
 47 33 l 1
 47 35 l 1
 49 35 l 1
 49 33 l 1
55 33 m 1
 53 33 l 1
 53 35 l 1
 55 35 l 1
 55 33 l 1
57 33 m 1
 56 33 l 1
 56 35 l 1
 58 35 l 1
 58 34 l 1
 57 34 l 1
 57 33 l 1
60 33 m 1
 58 33 l 1
 58 34 l 1
 59 34 l 1
 59 35 l 1
 60 35 l 1
 60 33 l 1
49 37 m 1
 47 37 l 1
 47 39 l 1
 49 39 l 1
 49 37 l 1
49 41 m 1
 47 41 l 1
 47 43 l 1
 49 43 l 1
 49 41 l 1
55 41 m 1
 53 41 l 1
 53 43 l 1
 55 43 l 1
 55 41 l 1
58 41 m 1
 56 41 l 1
 56 43 l 1
 57 43 l 1
 57 42 l 1
 58 42 l 1
 58 41 l 1
59 42 m 1
 58 42 l 1
 58 43 l 1
 60 43 l 1
 60 41 l 1
 59 41 l 1
 59 42 l 1
63 29 m 1
 61 29 l 1
 61 31 l 1
 63 31 l 1
 63 29 l 1
63 33 m 1
 61 33 l 1
 61 35 l 1
 63 35 l 1
 63 33 l 1
63 37 m 1
 61 37 l 1
 61 39 l 1
 63 39 l 1
 63 37 l 1
63 41 m 1
 61 41 l 1
 61 43 l 1
 63 43 l 1
 63 41 l 1
EndSplineSet
Ligature2: "'liga' Standard Ligatures in Latin lookup 0-1" one three zero zero one
LCarets2: 1 0
EndChar

StartChar: custom_1_3_0_0_2
Encoding: 4158 -1 3913
Width: 70
Flags: H
LayerCount: 2
Fore
SplineSet
17 25 m 1
 15 25 l 1
 15 27 l 1
 17 27 l 1
 17 25 l 1
23 25 m 1
 21 25 l 1
 21 27 l 1
 23 27 l 1
 23 25 l 1
26 25 m 1
 24 25 l 1
 24 27 l 1
 25 27 l 1
 25 26 l 1
 26 26 l 1
 26 25 l 1
27 26 m 1
 26 26 l 1
 26 27 l 1
 28 27 l 1
 28 25 l 1
 27 25 l 1
 27 26 l 1
31 25 m 1
 29 25 l 1
 29 27 l 1
 31 27 l 1
 31 25 l 1
17 29 m 1
 15 29 l 1
 15 31 l 1
 17 31 l 1
 17 29 l 1
17 33 m 1
 15 33 l 1
 15 35 l 1
 17 35 l 1
 17 33 l 1
23 33 m 1
 21 33 l 1
 21 35 l 1
 23 35 l 1
 23 33 l 1
25 33 m 1
 24 33 l 1
 24 35 l 1
 26 35 l 1
 26 34 l 1
 25 34 l 1
 25 33 l 1
28 33 m 1
 26 33 l 1
 26 34 l 1
 27 34 l 1
 27 35 l 1
 28 35 l 1
 28 33 l 1
17 37 m 1
 15 37 l 1
 15 39 l 1
 17 39 l 1
 17 37 l 1
17 41 m 1
 15 41 l 1
 15 43 l 1
 17 43 l 1
 17 41 l 1
23 37 m 1
 21 37 l 1
 21 39 l 1
 23 39 l 1
 23 37 l 1
23 41 m 1
 21 41 l 1
 21 43 l 1
 23 43 l 1
 23 41 l 1
26 41 m 1
 24 41 l 1
 24 43 l 1
 25 43 l 1
 25 42 l 1
 26 42 l 1
 26 41 l 1
27 42 m 1
 26 42 l 1
 26 43 l 1
 28 43 l 1
 28 41 l 1
 27 41 l 1
 27 42 l 1
31 29 m 1
 29 29 l 1
 29 31 l 1
 31 31 l 1
 31 29 l 1
36 31 m 1
 34 31 l 1
 34 33 l 1
 36 33 l 1
 36 31 l 1
31 33 m 1
 29 33 l 1
 29 35 l 1
 31 35 l 1
 31 33 l 1
36 35 m 1
 34 35 l 1
 34 37 l 1
 36 37 l 1
 36 35 l 1
31 41 m 1
 29 41 l 1
 29 43 l 1
 31 43 l 1
 31 41 l 1
49 25 m 1
 47 25 l 1
 47 27 l 1
 49 27 l 1
 49 25 l 1
55 25 m 1
 53 25 l 1
 53 27 l 1
 55 27 l 1
 55 25 l 1
58 25 m 1
 56 25 l 1
 56 27 l 1
 57 27 l 1
 57 26 l 1
 58 26 l 1
 58 25 l 1
59 26 m 1
 58 26 l 1
 58 27 l 1
 60 27 l 1
 60 25 l 1
 59 25 l 1
 59 26 l 1
63 25 m 1
 61 25 l 1
 61 27 l 1
 63 27 l 1
 63 25 l 1
49 29 m 1
 47 29 l 1
 47 31 l 1
 49 31 l 1
 49 29 l 1
49 33 m 1
 47 33 l 1
 47 35 l 1
 49 35 l 1
 49 33 l 1
55 33 m 1
 53 33 l 1
 53 35 l 1
 55 35 l 1
 55 33 l 1
57 33 m 1
 56 33 l 1
 56 35 l 1
 58 35 l 1
 58 34 l 1
 57 34 l 1
 57 33 l 1
60 33 m 1
 58 33 l 1
 58 34 l 1
 59 34 l 1
 59 35 l 1
 60 35 l 1
 60 33 l 1
49 37 m 1
 47 37 l 1
 47 39 l 1
 49 39 l 1
 49 37 l 1
49 41 m 1
 47 41 l 1
 47 43 l 1
 49 43 l 1
 49 41 l 1
55 41 m 1
 53 41 l 1
 53 43 l 1
 55 43 l 1
 55 41 l 1
58 41 m 1
 56 41 l 1
 56 43 l 1
 57 43 l 1
 57 42 l 1
 58 42 l 1
 58 41 l 1
59 42 m 1
 58 42 l 1
 58 43 l 1
 60 43 l 1
 60 41 l 1
 59 41 l 1
 59 42 l 1
63 29 m 1
 61 29 l 1
 61 31 l 1
 63 31 l 1
 63 29 l 1
63 33 m 1
 61 33 l 1
 61 35 l 1
 63 35 l 1
 63 33 l 1
63 37 m 1
 61 37 l 1
 61 39 l 1
 63 39 l 1
 63 37 l 1
63 41 m 1
 61 41 l 1
 61 43 l 1
 63 43 l 1
 63 41 l 1
EndSplineSet
Ligature2: "'liga' Standard Ligatures in Latin lookup 0-1" one three zero zero two
LCarets2: 1 0
EndChar

StartChar: custom_1_3_0_0_3
Encoding: 4159 -1 3914
Width: 70
Flags: H
LayerCount: 2
Fore
SplineSet
17 25 m 1
 15 25 l 1
 15 27 l 1
 17 27 l 1
 17 25 l 1
23 25 m 1
 21 25 l 1
 21 27 l 1
 23 27 l 1
 23 25 l 1
26 25 m 1
 24 25 l 1
 24 27 l 1
 25 27 l 1
 25 26 l 1
 26 26 l 1
 26 25 l 1
27 26 m 1
 26 26 l 1
 26 27 l 1
 28 27 l 1
 28 25 l 1
 27 25 l 1
 27 26 l 1
31 25 m 1
 29 25 l 1
 29 27 l 1
 31 27 l 1
 31 25 l 1
17 29 m 1
 15 29 l 1
 15 31 l 1
 17 31 l 1
 17 29 l 1
17 33 m 1
 15 33 l 1
 15 35 l 1
 17 35 l 1
 17 33 l 1
23 33 m 1
 21 33 l 1
 21 35 l 1
 23 35 l 1
 23 33 l 1
25 33 m 1
 24 33 l 1
 24 35 l 1
 26 35 l 1
 26 34 l 1
 25 34 l 1
 25 33 l 1
28 33 m 1
 26 33 l 1
 26 34 l 1
 27 34 l 1
 27 35 l 1
 28 35 l 1
 28 33 l 1
17 37 m 1
 15 37 l 1
 15 39 l 1
 17 39 l 1
 17 37 l 1
17 41 m 1
 15 41 l 1
 15 43 l 1
 17 43 l 1
 17 41 l 1
23 37 m 1
 21 37 l 1
 21 39 l 1
 23 39 l 1
 23 37 l 1
23 41 m 1
 21 41 l 1
 21 43 l 1
 23 43 l 1
 23 41 l 1
26 41 m 1
 24 41 l 1
 24 43 l 1
 25 43 l 1
 25 42 l 1
 26 42 l 1
 26 41 l 1
27 42 m 1
 26 42 l 1
 26 43 l 1
 28 43 l 1
 28 41 l 1
 27 41 l 1
 27 42 l 1
31 29 m 1
 29 29 l 1
 29 31 l 1
 31 31 l 1
 31 29 l 1
36 31 m 1
 34 31 l 1
 34 33 l 1
 36 33 l 1
 36 31 l 1
31 33 m 1
 29 33 l 1
 29 35 l 1
 31 35 l 1
 31 33 l 1
36 35 m 1
 34 35 l 1
 34 37 l 1
 36 37 l 1
 36 35 l 1
31 41 m 1
 29 41 l 1
 29 43 l 1
 31 43 l 1
 31 41 l 1
49 25 m 1
 47 25 l 1
 47 27 l 1
 49 27 l 1
 49 25 l 1
55 25 m 1
 53 25 l 1
 53 27 l 1
 55 27 l 1
 55 25 l 1
58 25 m 1
 56 25 l 1
 56 27 l 1
 57 27 l 1
 57 26 l 1
 58 26 l 1
 58 25 l 1
59 26 m 1
 58 26 l 1
 58 27 l 1
 60 27 l 1
 60 25 l 1
 59 25 l 1
 59 26 l 1
63 25 m 1
 61 25 l 1
 61 27 l 1
 63 27 l 1
 63 25 l 1
49 29 m 1
 47 29 l 1
 47 31 l 1
 49 31 l 1
 49 29 l 1
49 33 m 1
 47 33 l 1
 47 35 l 1
 49 35 l 1
 49 33 l 1
55 33 m 1
 53 33 l 1
 53 35 l 1
 55 35 l 1
 55 33 l 1
57 33 m 1
 56 33 l 1
 56 35 l 1
 58 35 l 1
 58 34 l 1
 57 34 l 1
 57 33 l 1
60 33 m 1
 58 33 l 1
 58 34 l 1
 59 34 l 1
 59 35 l 1
 60 35 l 1
 60 33 l 1
49 37 m 1
 47 37 l 1
 47 39 l 1
 49 39 l 1
 49 37 l 1
49 41 m 1
 47 41 l 1
 47 43 l 1
 49 43 l 1
 49 41 l 1
55 41 m 1
 53 41 l 1
 53 43 l 1
 55 43 l 1
 55 41 l 1
58 41 m 1
 56 41 l 1
 56 43 l 1
 57 43 l 1
 57 42 l 1
 58 42 l 1
 58 41 l 1
59 42 m 1
 58 42 l 1
 58 43 l 1
 60 43 l 1
 60 41 l 1
 59 41 l 1
 59 42 l 1
63 29 m 1
 61 29 l 1
 61 31 l 1
 63 31 l 1
 63 29 l 1
63 33 m 1
 61 33 l 1
 61 35 l 1
 63 35 l 1
 63 33 l 1
63 37 m 1
 61 37 l 1
 61 39 l 1
 63 39 l 1
 63 37 l 1
63 41 m 1
 61 41 l 1
 61 43 l 1
 63 43 l 1
 63 41 l 1
EndSplineSet
Ligature2: "'liga' Standard Ligatures in Latin lookup 0-1" one three zero zero three
LCarets2: 1 0
EndChar

StartChar: custom_1_3_0_0_4
Encoding: 4160 -1 3915
Width: 70
Flags: H
LayerCount: 2
Fore
SplineSet
17 25 m 1
 15 25 l 1
 15 27 l 1
 17 27 l 1
 17 25 l 1
23 25 m 1
 21 25 l 1
 21 27 l 1
 23 27 l 1
 23 25 l 1
26 25 m 1
 24 25 l 1
 24 27 l 1
 25 27 l 1
 25 26 l 1
 26 26 l 1
 26 25 l 1
27 26 m 1
 26 26 l 1
 26 27 l 1
 28 27 l 1
 28 25 l 1
 27 25 l 1
 27 26 l 1
31 25 m 1
 29 25 l 1
 29 27 l 1
 31 27 l 1
 31 25 l 1
17 29 m 1
 15 29 l 1
 15 31 l 1
 17 31 l 1
 17 29 l 1
17 33 m 1
 15 33 l 1
 15 35 l 1
 17 35 l 1
 17 33 l 1
23 33 m 1
 21 33 l 1
 21 35 l 1
 23 35 l 1
 23 33 l 1
25 33 m 1
 24 33 l 1
 24 35 l 1
 26 35 l 1
 26 34 l 1
 25 34 l 1
 25 33 l 1
28 33 m 1
 26 33 l 1
 26 34 l 1
 27 34 l 1
 27 35 l 1
 28 35 l 1
 28 33 l 1
17 37 m 1
 15 37 l 1
 15 39 l 1
 17 39 l 1
 17 37 l 1
17 41 m 1
 15 41 l 1
 15 43 l 1
 17 43 l 1
 17 41 l 1
23 37 m 1
 21 37 l 1
 21 39 l 1
 23 39 l 1
 23 37 l 1
23 41 m 1
 21 41 l 1
 21 43 l 1
 23 43 l 1
 23 41 l 1
26 41 m 1
 24 41 l 1
 24 43 l 1
 25 43 l 1
 25 42 l 1
 26 42 l 1
 26 41 l 1
27 42 m 1
 26 42 l 1
 26 43 l 1
 28 43 l 1
 28 41 l 1
 27 41 l 1
 27 42 l 1
31 29 m 1
 29 29 l 1
 29 31 l 1
 31 31 l 1
 31 29 l 1
36 31 m 1
 34 31 l 1
 34 33 l 1
 36 33 l 1
 36 31 l 1
31 33 m 1
 29 33 l 1
 29 35 l 1
 31 35 l 1
 31 33 l 1
36 35 m 1
 34 35 l 1
 34 37 l 1
 36 37 l 1
 36 35 l 1
31 41 m 1
 29 41 l 1
 29 43 l 1
 31 43 l 1
 31 41 l 1
49 25 m 1
 47 25 l 1
 47 27 l 1
 49 27 l 1
 49 25 l 1
55 25 m 1
 53 25 l 1
 53 27 l 1
 55 27 l 1
 55 25 l 1
58 25 m 1
 56 25 l 1
 56 27 l 1
 57 27 l 1
 57 26 l 1
 58 26 l 1
 58 25 l 1
59 26 m 1
 58 26 l 1
 58 27 l 1
 60 27 l 1
 60 25 l 1
 59 25 l 1
 59 26 l 1
63 25 m 1
 61 25 l 1
 61 27 l 1
 63 27 l 1
 63 25 l 1
49 29 m 1
 47 29 l 1
 47 31 l 1
 49 31 l 1
 49 29 l 1
49 33 m 1
 47 33 l 1
 47 35 l 1
 49 35 l 1
 49 33 l 1
55 33 m 1
 53 33 l 1
 53 35 l 1
 55 35 l 1
 55 33 l 1
57 33 m 1
 56 33 l 1
 56 35 l 1
 58 35 l 1
 58 34 l 1
 57 34 l 1
 57 33 l 1
60 33 m 1
 58 33 l 1
 58 34 l 1
 59 34 l 1
 59 35 l 1
 60 35 l 1
 60 33 l 1
49 37 m 1
 47 37 l 1
 47 39 l 1
 49 39 l 1
 49 37 l 1
49 41 m 1
 47 41 l 1
 47 43 l 1
 49 43 l 1
 49 41 l 1
55 41 m 1
 53 41 l 1
 53 43 l 1
 55 43 l 1
 55 41 l 1
58 41 m 1
 56 41 l 1
 56 43 l 1
 57 43 l 1
 57 42 l 1
 58 42 l 1
 58 41 l 1
59 42 m 1
 58 42 l 1
 58 43 l 1
 60 43 l 1
 60 41 l 1
 59 41 l 1
 59 42 l 1
63 29 m 1
 61 29 l 1
 61 31 l 1
 63 31 l 1
 63 29 l 1
63 33 m 1
 61 33 l 1
 61 35 l 1
 63 35 l 1
 63 33 l 1
63 37 m 1
 61 37 l 1
 61 39 l 1
 63 39 l 1
 63 37 l 1
63 41 m 1
 61 41 l 1
 61 43 l 1
 63 43 l 1
 63 41 l 1
EndSplineSet
Ligature2: "'liga' Standard Ligatures in Latin lookup 0-1" one three zero zero four
LCarets2: 1 0
EndChar

StartChar: custom_1_3_0_0_5
Encoding: 4161 -1 3916
Width: 70
Flags: H
LayerCount: 2
Fore
SplineSet
17 25 m 1
 15 25 l 1
 15 27 l 1
 17 27 l 1
 17 25 l 1
23 25 m 1
 21 25 l 1
 21 27 l 1
 23 27 l 1
 23 25 l 1
26 25 m 1
 24 25 l 1
 24 27 l 1
 25 27 l 1
 25 26 l 1
 26 26 l 1
 26 25 l 1
27 26 m 1
 26 26 l 1
 26 27 l 1
 28 27 l 1
 28 25 l 1
 27 25 l 1
 27 26 l 1
31 25 m 1
 29 25 l 1
 29 27 l 1
 31 27 l 1
 31 25 l 1
17 29 m 1
 15 29 l 1
 15 31 l 1
 17 31 l 1
 17 29 l 1
17 33 m 1
 15 33 l 1
 15 35 l 1
 17 35 l 1
 17 33 l 1
23 33 m 1
 21 33 l 1
 21 35 l 1
 23 35 l 1
 23 33 l 1
25 33 m 1
 24 33 l 1
 24 35 l 1
 26 35 l 1
 26 34 l 1
 25 34 l 1
 25 33 l 1
28 33 m 1
 26 33 l 1
 26 34 l 1
 27 34 l 1
 27 35 l 1
 28 35 l 1
 28 33 l 1
17 37 m 1
 15 37 l 1
 15 39 l 1
 17 39 l 1
 17 37 l 1
17 41 m 1
 15 41 l 1
 15 43 l 1
 17 43 l 1
 17 41 l 1
23 37 m 1
 21 37 l 1
 21 39 l 1
 23 39 l 1
 23 37 l 1
23 41 m 1
 21 41 l 1
 21 43 l 1
 23 43 l 1
 23 41 l 1
26 41 m 1
 24 41 l 1
 24 43 l 1
 25 43 l 1
 25 42 l 1
 26 42 l 1
 26 41 l 1
27 42 m 1
 26 42 l 1
 26 43 l 1
 28 43 l 1
 28 41 l 1
 27 41 l 1
 27 42 l 1
31 29 m 1
 29 29 l 1
 29 31 l 1
 31 31 l 1
 31 29 l 1
36 31 m 1
 34 31 l 1
 34 33 l 1
 36 33 l 1
 36 31 l 1
31 33 m 1
 29 33 l 1
 29 35 l 1
 31 35 l 1
 31 33 l 1
36 35 m 1
 34 35 l 1
 34 37 l 1
 36 37 l 1
 36 35 l 1
31 41 m 1
 29 41 l 1
 29 43 l 1
 31 43 l 1
 31 41 l 1
49 25 m 1
 47 25 l 1
 47 27 l 1
 49 27 l 1
 49 25 l 1
55 25 m 1
 53 25 l 1
 53 27 l 1
 55 27 l 1
 55 25 l 1
58 25 m 1
 56 25 l 1
 56 27 l 1
 57 27 l 1
 57 26 l 1
 58 26 l 1
 58 25 l 1
59 26 m 1
 58 26 l 1
 58 27 l 1
 60 27 l 1
 60 25 l 1
 59 25 l 1
 59 26 l 1
63 25 m 1
 61 25 l 1
 61 27 l 1
 63 27 l 1
 63 25 l 1
49 29 m 1
 47 29 l 1
 47 31 l 1
 49 31 l 1
 49 29 l 1
49 33 m 1
 47 33 l 1
 47 35 l 1
 49 35 l 1
 49 33 l 1
55 33 m 1
 53 33 l 1
 53 35 l 1
 55 35 l 1
 55 33 l 1
57 33 m 1
 56 33 l 1
 56 35 l 1
 58 35 l 1
 58 34 l 1
 57 34 l 1
 57 33 l 1
60 33 m 1
 58 33 l 1
 58 34 l 1
 59 34 l 1
 59 35 l 1
 60 35 l 1
 60 33 l 1
49 37 m 1
 47 37 l 1
 47 39 l 1
 49 39 l 1
 49 37 l 1
49 41 m 1
 47 41 l 1
 47 43 l 1
 49 43 l 1
 49 41 l 1
55 41 m 1
 53 41 l 1
 53 43 l 1
 55 43 l 1
 55 41 l 1
58 41 m 1
 56 41 l 1
 56 43 l 1
 57 43 l 1
 57 42 l 1
 58 42 l 1
 58 41 l 1
59 42 m 1
 58 42 l 1
 58 43 l 1
 60 43 l 1
 60 41 l 1
 59 41 l 1
 59 42 l 1
63 29 m 1
 61 29 l 1
 61 31 l 1
 63 31 l 1
 63 29 l 1
63 33 m 1
 61 33 l 1
 61 35 l 1
 63 35 l 1
 63 33 l 1
63 37 m 1
 61 37 l 1
 61 39 l 1
 63 39 l 1
 63 37 l 1
63 41 m 1
 61 41 l 1
 61 43 l 1
 63 43 l 1
 63 41 l 1
EndSplineSet
Ligature2: "'liga' Standard Ligatures in Latin lookup 0-1" one three zero zero five
LCarets2: 1 0
EndChar

StartChar: custom_1_3_0_0_6
Encoding: 4162 -1 3917
Width: 70
Flags: H
LayerCount: 2
Fore
SplineSet
17 25 m 1
 15 25 l 1
 15 27 l 1
 17 27 l 1
 17 25 l 1
23 25 m 1
 21 25 l 1
 21 27 l 1
 23 27 l 1
 23 25 l 1
26 25 m 1
 24 25 l 1
 24 27 l 1
 25 27 l 1
 25 26 l 1
 26 26 l 1
 26 25 l 1
27 26 m 1
 26 26 l 1
 26 27 l 1
 28 27 l 1
 28 25 l 1
 27 25 l 1
 27 26 l 1
31 25 m 1
 29 25 l 1
 29 27 l 1
 31 27 l 1
 31 25 l 1
17 29 m 1
 15 29 l 1
 15 31 l 1
 17 31 l 1
 17 29 l 1
17 33 m 1
 15 33 l 1
 15 35 l 1
 17 35 l 1
 17 33 l 1
23 33 m 1
 21 33 l 1
 21 35 l 1
 23 35 l 1
 23 33 l 1
25 33 m 1
 24 33 l 1
 24 35 l 1
 26 35 l 1
 26 34 l 1
 25 34 l 1
 25 33 l 1
28 33 m 1
 26 33 l 1
 26 34 l 1
 27 34 l 1
 27 35 l 1
 28 35 l 1
 28 33 l 1
17 37 m 1
 15 37 l 1
 15 39 l 1
 17 39 l 1
 17 37 l 1
17 41 m 1
 15 41 l 1
 15 43 l 1
 17 43 l 1
 17 41 l 1
23 37 m 1
 21 37 l 1
 21 39 l 1
 23 39 l 1
 23 37 l 1
23 41 m 1
 21 41 l 1
 21 43 l 1
 23 43 l 1
 23 41 l 1
26 41 m 1
 24 41 l 1
 24 43 l 1
 25 43 l 1
 25 42 l 1
 26 42 l 1
 26 41 l 1
27 42 m 1
 26 42 l 1
 26 43 l 1
 28 43 l 1
 28 41 l 1
 27 41 l 1
 27 42 l 1
31 29 m 1
 29 29 l 1
 29 31 l 1
 31 31 l 1
 31 29 l 1
36 31 m 1
 34 31 l 1
 34 33 l 1
 36 33 l 1
 36 31 l 1
31 33 m 1
 29 33 l 1
 29 35 l 1
 31 35 l 1
 31 33 l 1
36 35 m 1
 34 35 l 1
 34 37 l 1
 36 37 l 1
 36 35 l 1
31 41 m 1
 29 41 l 1
 29 43 l 1
 31 43 l 1
 31 41 l 1
49 25 m 1
 47 25 l 1
 47 27 l 1
 49 27 l 1
 49 25 l 1
55 25 m 1
 53 25 l 1
 53 27 l 1
 55 27 l 1
 55 25 l 1
58 25 m 1
 56 25 l 1
 56 27 l 1
 57 27 l 1
 57 26 l 1
 58 26 l 1
 58 25 l 1
59 26 m 1
 58 26 l 1
 58 27 l 1
 60 27 l 1
 60 25 l 1
 59 25 l 1
 59 26 l 1
63 25 m 1
 61 25 l 1
 61 27 l 1
 63 27 l 1
 63 25 l 1
49 29 m 1
 47 29 l 1
 47 31 l 1
 49 31 l 1
 49 29 l 1
49 33 m 1
 47 33 l 1
 47 35 l 1
 49 35 l 1
 49 33 l 1
55 33 m 1
 53 33 l 1
 53 35 l 1
 55 35 l 1
 55 33 l 1
57 33 m 1
 56 33 l 1
 56 35 l 1
 58 35 l 1
 58 34 l 1
 57 34 l 1
 57 33 l 1
60 33 m 1
 58 33 l 1
 58 34 l 1
 59 34 l 1
 59 35 l 1
 60 35 l 1
 60 33 l 1
49 37 m 1
 47 37 l 1
 47 39 l 1
 49 39 l 1
 49 37 l 1
49 41 m 1
 47 41 l 1
 47 43 l 1
 49 43 l 1
 49 41 l 1
55 41 m 1
 53 41 l 1
 53 43 l 1
 55 43 l 1
 55 41 l 1
58 41 m 1
 56 41 l 1
 56 43 l 1
 57 43 l 1
 57 42 l 1
 58 42 l 1
 58 41 l 1
59 42 m 1
 58 42 l 1
 58 43 l 1
 60 43 l 1
 60 41 l 1
 59 41 l 1
 59 42 l 1
63 29 m 1
 61 29 l 1
 61 31 l 1
 63 31 l 1
 63 29 l 1
63 33 m 1
 61 33 l 1
 61 35 l 1
 63 35 l 1
 63 33 l 1
63 37 m 1
 61 37 l 1
 61 39 l 1
 63 39 l 1
 63 37 l 1
63 41 m 1
 61 41 l 1
 61 43 l 1
 63 43 l 1
 63 41 l 1
EndSplineSet
Ligature2: "'liga' Standard Ligatures in Latin lookup 0-1" one three zero zero six
LCarets2: 1 0
EndChar

StartChar: custom_1_3_0_0_7
Encoding: 4163 -1 3918
Width: 70
Flags: H
LayerCount: 2
Fore
SplineSet
17 25 m 1
 15 25 l 1
 15 27 l 1
 17 27 l 1
 17 25 l 1
23 25 m 1
 21 25 l 1
 21 27 l 1
 23 27 l 1
 23 25 l 1
26 25 m 1
 24 25 l 1
 24 27 l 1
 25 27 l 1
 25 26 l 1
 26 26 l 1
 26 25 l 1
27 26 m 1
 26 26 l 1
 26 27 l 1
 28 27 l 1
 28 25 l 1
 27 25 l 1
 27 26 l 1
31 25 m 1
 29 25 l 1
 29 27 l 1
 31 27 l 1
 31 25 l 1
17 29 m 1
 15 29 l 1
 15 31 l 1
 17 31 l 1
 17 29 l 1
17 33 m 1
 15 33 l 1
 15 35 l 1
 17 35 l 1
 17 33 l 1
23 33 m 1
 21 33 l 1
 21 35 l 1
 23 35 l 1
 23 33 l 1
25 33 m 1
 24 33 l 1
 24 35 l 1
 26 35 l 1
 26 34 l 1
 25 34 l 1
 25 33 l 1
28 33 m 1
 26 33 l 1
 26 34 l 1
 27 34 l 1
 27 35 l 1
 28 35 l 1
 28 33 l 1
17 37 m 1
 15 37 l 1
 15 39 l 1
 17 39 l 1
 17 37 l 1
17 41 m 1
 15 41 l 1
 15 43 l 1
 17 43 l 1
 17 41 l 1
23 37 m 1
 21 37 l 1
 21 39 l 1
 23 39 l 1
 23 37 l 1
23 41 m 1
 21 41 l 1
 21 43 l 1
 23 43 l 1
 23 41 l 1
26 41 m 1
 24 41 l 1
 24 43 l 1
 25 43 l 1
 25 42 l 1
 26 42 l 1
 26 41 l 1
27 42 m 1
 26 42 l 1
 26 43 l 1
 28 43 l 1
 28 41 l 1
 27 41 l 1
 27 42 l 1
31 29 m 1
 29 29 l 1
 29 31 l 1
 31 31 l 1
 31 29 l 1
36 31 m 1
 34 31 l 1
 34 33 l 1
 36 33 l 1
 36 31 l 1
31 33 m 1
 29 33 l 1
 29 35 l 1
 31 35 l 1
 31 33 l 1
36 35 m 1
 34 35 l 1
 34 37 l 1
 36 37 l 1
 36 35 l 1
31 41 m 1
 29 41 l 1
 29 43 l 1
 31 43 l 1
 31 41 l 1
49 25 m 1
 47 25 l 1
 47 27 l 1
 49 27 l 1
 49 25 l 1
55 25 m 1
 53 25 l 1
 53 27 l 1
 55 27 l 1
 55 25 l 1
58 25 m 1
 56 25 l 1
 56 27 l 1
 57 27 l 1
 57 26 l 1
 58 26 l 1
 58 25 l 1
59 26 m 1
 58 26 l 1
 58 27 l 1
 60 27 l 1
 60 25 l 1
 59 25 l 1
 59 26 l 1
63 25 m 1
 61 25 l 1
 61 27 l 1
 63 27 l 1
 63 25 l 1
49 29 m 1
 47 29 l 1
 47 31 l 1
 49 31 l 1
 49 29 l 1
49 33 m 1
 47 33 l 1
 47 35 l 1
 49 35 l 1
 49 33 l 1
55 33 m 1
 53 33 l 1
 53 35 l 1
 55 35 l 1
 55 33 l 1
57 33 m 1
 56 33 l 1
 56 35 l 1
 58 35 l 1
 58 34 l 1
 57 34 l 1
 57 33 l 1
60 33 m 1
 58 33 l 1
 58 34 l 1
 59 34 l 1
 59 35 l 1
 60 35 l 1
 60 33 l 1
49 37 m 1
 47 37 l 1
 47 39 l 1
 49 39 l 1
 49 37 l 1
49 41 m 1
 47 41 l 1
 47 43 l 1
 49 43 l 1
 49 41 l 1
55 41 m 1
 53 41 l 1
 53 43 l 1
 55 43 l 1
 55 41 l 1
58 41 m 1
 56 41 l 1
 56 43 l 1
 57 43 l 1
 57 42 l 1
 58 42 l 1
 58 41 l 1
59 42 m 1
 58 42 l 1
 58 43 l 1
 60 43 l 1
 60 41 l 1
 59 41 l 1
 59 42 l 1
63 29 m 1
 61 29 l 1
 61 31 l 1
 63 31 l 1
 63 29 l 1
63 33 m 1
 61 33 l 1
 61 35 l 1
 63 35 l 1
 63 33 l 1
63 37 m 1
 61 37 l 1
 61 39 l 1
 63 39 l 1
 63 37 l 1
63 41 m 1
 61 41 l 1
 61 43 l 1
 63 43 l 1
 63 41 l 1
EndSplineSet
Ligature2: "'liga' Standard Ligatures in Latin lookup 0-1" one three zero zero seven
LCarets2: 1 0
EndChar

StartChar: custom_1_3_0_0_8
Encoding: 4164 -1 3919
Width: 70
Flags: H
LayerCount: 2
Fore
SplineSet
17 25 m 1
 15 25 l 1
 15 27 l 1
 17 27 l 1
 17 25 l 1
23 25 m 1
 21 25 l 1
 21 27 l 1
 23 27 l 1
 23 25 l 1
26 25 m 1
 24 25 l 1
 24 27 l 1
 25 27 l 1
 25 26 l 1
 26 26 l 1
 26 25 l 1
27 26 m 1
 26 26 l 1
 26 27 l 1
 28 27 l 1
 28 25 l 1
 27 25 l 1
 27 26 l 1
31 25 m 1
 29 25 l 1
 29 27 l 1
 31 27 l 1
 31 25 l 1
17 29 m 1
 15 29 l 1
 15 31 l 1
 17 31 l 1
 17 29 l 1
17 33 m 1
 15 33 l 1
 15 35 l 1
 17 35 l 1
 17 33 l 1
23 33 m 1
 21 33 l 1
 21 35 l 1
 23 35 l 1
 23 33 l 1
25 33 m 1
 24 33 l 1
 24 35 l 1
 26 35 l 1
 26 34 l 1
 25 34 l 1
 25 33 l 1
28 33 m 1
 26 33 l 1
 26 34 l 1
 27 34 l 1
 27 35 l 1
 28 35 l 1
 28 33 l 1
17 37 m 1
 15 37 l 1
 15 39 l 1
 17 39 l 1
 17 37 l 1
17 41 m 1
 15 41 l 1
 15 43 l 1
 17 43 l 1
 17 41 l 1
23 37 m 1
 21 37 l 1
 21 39 l 1
 23 39 l 1
 23 37 l 1
23 41 m 1
 21 41 l 1
 21 43 l 1
 23 43 l 1
 23 41 l 1
26 41 m 1
 24 41 l 1
 24 43 l 1
 25 43 l 1
 25 42 l 1
 26 42 l 1
 26 41 l 1
27 42 m 1
 26 42 l 1
 26 43 l 1
 28 43 l 1
 28 41 l 1
 27 41 l 1
 27 42 l 1
31 29 m 1
 29 29 l 1
 29 31 l 1
 31 31 l 1
 31 29 l 1
36 31 m 1
 34 31 l 1
 34 33 l 1
 36 33 l 1
 36 31 l 1
31 33 m 1
 29 33 l 1
 29 35 l 1
 31 35 l 1
 31 33 l 1
36 35 m 1
 34 35 l 1
 34 37 l 1
 36 37 l 1
 36 35 l 1
31 41 m 1
 29 41 l 1
 29 43 l 1
 31 43 l 1
 31 41 l 1
49 25 m 1
 47 25 l 1
 47 27 l 1
 49 27 l 1
 49 25 l 1
55 25 m 1
 53 25 l 1
 53 27 l 1
 55 27 l 1
 55 25 l 1
58 25 m 1
 56 25 l 1
 56 27 l 1
 57 27 l 1
 57 26 l 1
 58 26 l 1
 58 25 l 1
59 26 m 1
 58 26 l 1
 58 27 l 1
 60 27 l 1
 60 25 l 1
 59 25 l 1
 59 26 l 1
63 25 m 1
 61 25 l 1
 61 27 l 1
 63 27 l 1
 63 25 l 1
49 29 m 1
 47 29 l 1
 47 31 l 1
 49 31 l 1
 49 29 l 1
49 33 m 1
 47 33 l 1
 47 35 l 1
 49 35 l 1
 49 33 l 1
55 33 m 1
 53 33 l 1
 53 35 l 1
 55 35 l 1
 55 33 l 1
57 33 m 1
 56 33 l 1
 56 35 l 1
 58 35 l 1
 58 34 l 1
 57 34 l 1
 57 33 l 1
60 33 m 1
 58 33 l 1
 58 34 l 1
 59 34 l 1
 59 35 l 1
 60 35 l 1
 60 33 l 1
49 37 m 1
 47 37 l 1
 47 39 l 1
 49 39 l 1
 49 37 l 1
49 41 m 1
 47 41 l 1
 47 43 l 1
 49 43 l 1
 49 41 l 1
55 41 m 1
 53 41 l 1
 53 43 l 1
 55 43 l 1
 55 41 l 1
58 41 m 1
 56 41 l 1
 56 43 l 1
 57 43 l 1
 57 42 l 1
 58 42 l 1
 58 41 l 1
59 42 m 1
 58 42 l 1
 58 43 l 1
 60 43 l 1
 60 41 l 1
 59 41 l 1
 59 42 l 1
63 29 m 1
 61 29 l 1
 61 31 l 1
 63 31 l 1
 63 29 l 1
63 33 m 1
 61 33 l 1
 61 35 l 1
 63 35 l 1
 63 33 l 1
63 37 m 1
 61 37 l 1
 61 39 l 1
 63 39 l 1
 63 37 l 1
63 41 m 1
 61 41 l 1
 61 43 l 1
 63 43 l 1
 63 41 l 1
EndSplineSet
Ligature2: "'liga' Standard Ligatures in Latin lookup 0-1" one three zero zero eight
LCarets2: 1 0
EndChar

StartChar: custom_1_3_0_0_9
Encoding: 4165 -1 3920
Width: 70
Flags: H
LayerCount: 2
Fore
SplineSet
17 25 m 1
 15 25 l 1
 15 27 l 1
 17 27 l 1
 17 25 l 1
23 25 m 1
 21 25 l 1
 21 27 l 1
 23 27 l 1
 23 25 l 1
26 25 m 1
 24 25 l 1
 24 27 l 1
 25 27 l 1
 25 26 l 1
 26 26 l 1
 26 25 l 1
27 26 m 1
 26 26 l 1
 26 27 l 1
 28 27 l 1
 28 25 l 1
 27 25 l 1
 27 26 l 1
31 25 m 1
 29 25 l 1
 29 27 l 1
 31 27 l 1
 31 25 l 1
17 29 m 1
 15 29 l 1
 15 31 l 1
 17 31 l 1
 17 29 l 1
17 33 m 1
 15 33 l 1
 15 35 l 1
 17 35 l 1
 17 33 l 1
23 33 m 1
 21 33 l 1
 21 35 l 1
 23 35 l 1
 23 33 l 1
25 33 m 1
 24 33 l 1
 24 35 l 1
 26 35 l 1
 26 34 l 1
 25 34 l 1
 25 33 l 1
28 33 m 1
 26 33 l 1
 26 34 l 1
 27 34 l 1
 27 35 l 1
 28 35 l 1
 28 33 l 1
17 37 m 1
 15 37 l 1
 15 39 l 1
 17 39 l 1
 17 37 l 1
17 41 m 1
 15 41 l 1
 15 43 l 1
 17 43 l 1
 17 41 l 1
23 37 m 1
 21 37 l 1
 21 39 l 1
 23 39 l 1
 23 37 l 1
23 41 m 1
 21 41 l 1
 21 43 l 1
 23 43 l 1
 23 41 l 1
26 41 m 1
 24 41 l 1
 24 43 l 1
 25 43 l 1
 25 42 l 1
 26 42 l 1
 26 41 l 1
27 42 m 1
 26 42 l 1
 26 43 l 1
 28 43 l 1
 28 41 l 1
 27 41 l 1
 27 42 l 1
31 29 m 1
 29 29 l 1
 29 31 l 1
 31 31 l 1
 31 29 l 1
36 31 m 1
 34 31 l 1
 34 33 l 1
 36 33 l 1
 36 31 l 1
31 33 m 1
 29 33 l 1
 29 35 l 1
 31 35 l 1
 31 33 l 1
36 35 m 1
 34 35 l 1
 34 37 l 1
 36 37 l 1
 36 35 l 1
31 41 m 1
 29 41 l 1
 29 43 l 1
 31 43 l 1
 31 41 l 1
49 25 m 1
 47 25 l 1
 47 27 l 1
 49 27 l 1
 49 25 l 1
55 25 m 1
 53 25 l 1
 53 27 l 1
 55 27 l 1
 55 25 l 1
58 25 m 1
 56 25 l 1
 56 27 l 1
 57 27 l 1
 57 26 l 1
 58 26 l 1
 58 25 l 1
59 26 m 1
 58 26 l 1
 58 27 l 1
 60 27 l 1
 60 25 l 1
 59 25 l 1
 59 26 l 1
63 25 m 1
 61 25 l 1
 61 27 l 1
 63 27 l 1
 63 25 l 1
49 29 m 1
 47 29 l 1
 47 31 l 1
 49 31 l 1
 49 29 l 1
49 33 m 1
 47 33 l 1
 47 35 l 1
 49 35 l 1
 49 33 l 1
55 33 m 1
 53 33 l 1
 53 35 l 1
 55 35 l 1
 55 33 l 1
57 33 m 1
 56 33 l 1
 56 35 l 1
 58 35 l 1
 58 34 l 1
 57 34 l 1
 57 33 l 1
60 33 m 1
 58 33 l 1
 58 34 l 1
 59 34 l 1
 59 35 l 1
 60 35 l 1
 60 33 l 1
49 37 m 1
 47 37 l 1
 47 39 l 1
 49 39 l 1
 49 37 l 1
49 41 m 1
 47 41 l 1
 47 43 l 1
 49 43 l 1
 49 41 l 1
55 41 m 1
 53 41 l 1
 53 43 l 1
 55 43 l 1
 55 41 l 1
58 41 m 1
 56 41 l 1
 56 43 l 1
 57 43 l 1
 57 42 l 1
 58 42 l 1
 58 41 l 1
59 42 m 1
 58 42 l 1
 58 43 l 1
 60 43 l 1
 60 41 l 1
 59 41 l 1
 59 42 l 1
63 29 m 1
 61 29 l 1
 61 31 l 1
 63 31 l 1
 63 29 l 1
63 33 m 1
 61 33 l 1
 61 35 l 1
 63 35 l 1
 63 33 l 1
63 37 m 1
 61 37 l 1
 61 39 l 1
 63 39 l 1
 63 37 l 1
63 41 m 1
 61 41 l 1
 61 43 l 1
 63 43 l 1
 63 41 l 1
EndSplineSet
Ligature2: "'liga' Standard Ligatures in Latin lookup 0-1" one three zero zero nine
LCarets2: 1 0
EndChar

StartChar: custom_1_3_0_1_0
Encoding: 4166 -1 3921
Width: 70
Flags: H
LayerCount: 2
Fore
SplineSet
17 25 m 1
 15 25 l 1
 15 27 l 1
 17 27 l 1
 17 25 l 1
23 25 m 1
 21 25 l 1
 21 27 l 1
 23 27 l 1
 23 25 l 1
26 25 m 1
 24 25 l 1
 24 27 l 1
 25 27 l 1
 25 26 l 1
 26 26 l 1
 26 25 l 1
27 26 m 1
 26 26 l 1
 26 27 l 1
 28 27 l 1
 28 25 l 1
 27 25 l 1
 27 26 l 1
31 25 m 1
 29 25 l 1
 29 27 l 1
 31 27 l 1
 31 25 l 1
17 29 m 1
 15 29 l 1
 15 31 l 1
 17 31 l 1
 17 29 l 1
17 33 m 1
 15 33 l 1
 15 35 l 1
 17 35 l 1
 17 33 l 1
23 33 m 1
 21 33 l 1
 21 35 l 1
 23 35 l 1
 23 33 l 1
25 33 m 1
 24 33 l 1
 24 35 l 1
 26 35 l 1
 26 34 l 1
 25 34 l 1
 25 33 l 1
28 33 m 1
 26 33 l 1
 26 34 l 1
 27 34 l 1
 27 35 l 1
 28 35 l 1
 28 33 l 1
17 37 m 1
 15 37 l 1
 15 39 l 1
 17 39 l 1
 17 37 l 1
17 41 m 1
 15 41 l 1
 15 43 l 1
 17 43 l 1
 17 41 l 1
23 37 m 1
 21 37 l 1
 21 39 l 1
 23 39 l 1
 23 37 l 1
23 41 m 1
 21 41 l 1
 21 43 l 1
 23 43 l 1
 23 41 l 1
26 41 m 1
 24 41 l 1
 24 43 l 1
 25 43 l 1
 25 42 l 1
 26 42 l 1
 26 41 l 1
27 42 m 1
 26 42 l 1
 26 43 l 1
 28 43 l 1
 28 41 l 1
 27 41 l 1
 27 42 l 1
31 29 m 1
 29 29 l 1
 29 31 l 1
 31 31 l 1
 31 29 l 1
36 31 m 1
 34 31 l 1
 34 33 l 1
 36 33 l 1
 36 31 l 1
31 33 m 1
 29 33 l 1
 29 35 l 1
 31 35 l 1
 31 33 l 1
36 35 m 1
 34 35 l 1
 34 37 l 1
 36 37 l 1
 36 35 l 1
31 41 m 1
 29 41 l 1
 29 43 l 1
 31 43 l 1
 31 41 l 1
49 25 m 1
 47 25 l 1
 47 27 l 1
 49 27 l 1
 49 25 l 1
55 25 m 1
 53 25 l 1
 53 27 l 1
 55 27 l 1
 55 25 l 1
58 25 m 1
 56 25 l 1
 56 27 l 1
 57 27 l 1
 57 26 l 1
 58 26 l 1
 58 25 l 1
59 26 m 1
 58 26 l 1
 58 27 l 1
 60 27 l 1
 60 25 l 1
 59 25 l 1
 59 26 l 1
63 25 m 1
 61 25 l 1
 61 27 l 1
 63 27 l 1
 63 25 l 1
49 29 m 1
 47 29 l 1
 47 31 l 1
 49 31 l 1
 49 29 l 1
49 33 m 1
 47 33 l 1
 47 35 l 1
 49 35 l 1
 49 33 l 1
55 33 m 1
 53 33 l 1
 53 35 l 1
 55 35 l 1
 55 33 l 1
57 33 m 1
 56 33 l 1
 56 35 l 1
 58 35 l 1
 58 34 l 1
 57 34 l 1
 57 33 l 1
60 33 m 1
 58 33 l 1
 58 34 l 1
 59 34 l 1
 59 35 l 1
 60 35 l 1
 60 33 l 1
49 37 m 1
 47 37 l 1
 47 39 l 1
 49 39 l 1
 49 37 l 1
49 41 m 1
 47 41 l 1
 47 43 l 1
 49 43 l 1
 49 41 l 1
55 41 m 1
 53 41 l 1
 53 43 l 1
 55 43 l 1
 55 41 l 1
58 41 m 1
 56 41 l 1
 56 43 l 1
 57 43 l 1
 57 42 l 1
 58 42 l 1
 58 41 l 1
59 42 m 1
 58 42 l 1
 58 43 l 1
 60 43 l 1
 60 41 l 1
 59 41 l 1
 59 42 l 1
63 29 m 1
 61 29 l 1
 61 31 l 1
 63 31 l 1
 63 29 l 1
63 33 m 1
 61 33 l 1
 61 35 l 1
 63 35 l 1
 63 33 l 1
63 37 m 1
 61 37 l 1
 61 39 l 1
 63 39 l 1
 63 37 l 1
63 41 m 1
 61 41 l 1
 61 43 l 1
 63 43 l 1
 63 41 l 1
EndSplineSet
Ligature2: "'liga' Standard Ligatures in Latin lookup 0-1" one three zero one zero
LCarets2: 1 0
EndChar

StartChar: custom_1_3_0_1_1
Encoding: 4167 -1 3922
Width: 70
Flags: H
LayerCount: 2
Fore
SplineSet
17 25 m 1
 15 25 l 1
 15 27 l 1
 17 27 l 1
 17 25 l 1
23 25 m 1
 21 25 l 1
 21 27 l 1
 23 27 l 1
 23 25 l 1
26 25 m 1
 24 25 l 1
 24 27 l 1
 25 27 l 1
 25 26 l 1
 26 26 l 1
 26 25 l 1
27 26 m 1
 26 26 l 1
 26 27 l 1
 28 27 l 1
 28 25 l 1
 27 25 l 1
 27 26 l 1
31 25 m 1
 29 25 l 1
 29 27 l 1
 31 27 l 1
 31 25 l 1
17 29 m 1
 15 29 l 1
 15 31 l 1
 17 31 l 1
 17 29 l 1
17 33 m 1
 15 33 l 1
 15 35 l 1
 17 35 l 1
 17 33 l 1
23 33 m 1
 21 33 l 1
 21 35 l 1
 23 35 l 1
 23 33 l 1
25 33 m 1
 24 33 l 1
 24 35 l 1
 26 35 l 1
 26 34 l 1
 25 34 l 1
 25 33 l 1
28 33 m 1
 26 33 l 1
 26 34 l 1
 27 34 l 1
 27 35 l 1
 28 35 l 1
 28 33 l 1
17 37 m 1
 15 37 l 1
 15 39 l 1
 17 39 l 1
 17 37 l 1
17 41 m 1
 15 41 l 1
 15 43 l 1
 17 43 l 1
 17 41 l 1
23 37 m 1
 21 37 l 1
 21 39 l 1
 23 39 l 1
 23 37 l 1
23 41 m 1
 21 41 l 1
 21 43 l 1
 23 43 l 1
 23 41 l 1
26 41 m 1
 24 41 l 1
 24 43 l 1
 25 43 l 1
 25 42 l 1
 26 42 l 1
 26 41 l 1
27 42 m 1
 26 42 l 1
 26 43 l 1
 28 43 l 1
 28 41 l 1
 27 41 l 1
 27 42 l 1
31 29 m 1
 29 29 l 1
 29 31 l 1
 31 31 l 1
 31 29 l 1
36 31 m 1
 34 31 l 1
 34 33 l 1
 36 33 l 1
 36 31 l 1
31 33 m 1
 29 33 l 1
 29 35 l 1
 31 35 l 1
 31 33 l 1
36 35 m 1
 34 35 l 1
 34 37 l 1
 36 37 l 1
 36 35 l 1
31 41 m 1
 29 41 l 1
 29 43 l 1
 31 43 l 1
 31 41 l 1
49 25 m 1
 47 25 l 1
 47 27 l 1
 49 27 l 1
 49 25 l 1
55 25 m 1
 53 25 l 1
 53 27 l 1
 55 27 l 1
 55 25 l 1
58 25 m 1
 56 25 l 1
 56 27 l 1
 57 27 l 1
 57 26 l 1
 58 26 l 1
 58 25 l 1
59 26 m 1
 58 26 l 1
 58 27 l 1
 60 27 l 1
 60 25 l 1
 59 25 l 1
 59 26 l 1
63 25 m 1
 61 25 l 1
 61 27 l 1
 63 27 l 1
 63 25 l 1
49 29 m 1
 47 29 l 1
 47 31 l 1
 49 31 l 1
 49 29 l 1
49 33 m 1
 47 33 l 1
 47 35 l 1
 49 35 l 1
 49 33 l 1
55 33 m 1
 53 33 l 1
 53 35 l 1
 55 35 l 1
 55 33 l 1
57 33 m 1
 56 33 l 1
 56 35 l 1
 58 35 l 1
 58 34 l 1
 57 34 l 1
 57 33 l 1
60 33 m 1
 58 33 l 1
 58 34 l 1
 59 34 l 1
 59 35 l 1
 60 35 l 1
 60 33 l 1
49 37 m 1
 47 37 l 1
 47 39 l 1
 49 39 l 1
 49 37 l 1
49 41 m 1
 47 41 l 1
 47 43 l 1
 49 43 l 1
 49 41 l 1
55 41 m 1
 53 41 l 1
 53 43 l 1
 55 43 l 1
 55 41 l 1
58 41 m 1
 56 41 l 1
 56 43 l 1
 57 43 l 1
 57 42 l 1
 58 42 l 1
 58 41 l 1
59 42 m 1
 58 42 l 1
 58 43 l 1
 60 43 l 1
 60 41 l 1
 59 41 l 1
 59 42 l 1
63 29 m 1
 61 29 l 1
 61 31 l 1
 63 31 l 1
 63 29 l 1
63 33 m 1
 61 33 l 1
 61 35 l 1
 63 35 l 1
 63 33 l 1
63 37 m 1
 61 37 l 1
 61 39 l 1
 63 39 l 1
 63 37 l 1
63 41 m 1
 61 41 l 1
 61 43 l 1
 63 43 l 1
 63 41 l 1
EndSplineSet
Ligature2: "'liga' Standard Ligatures in Latin lookup 0-1" one three zero one one
LCarets2: 1 0
EndChar

StartChar: custom_1_3_0_1_2
Encoding: 4168 -1 3923
Width: 70
Flags: H
LayerCount: 2
Fore
SplineSet
17 25 m 1
 15 25 l 1
 15 27 l 1
 17 27 l 1
 17 25 l 1
23 25 m 1
 21 25 l 1
 21 27 l 1
 23 27 l 1
 23 25 l 1
26 25 m 1
 24 25 l 1
 24 27 l 1
 25 27 l 1
 25 26 l 1
 26 26 l 1
 26 25 l 1
27 26 m 1
 26 26 l 1
 26 27 l 1
 28 27 l 1
 28 25 l 1
 27 25 l 1
 27 26 l 1
31 25 m 1
 29 25 l 1
 29 27 l 1
 31 27 l 1
 31 25 l 1
17 29 m 1
 15 29 l 1
 15 31 l 1
 17 31 l 1
 17 29 l 1
17 33 m 1
 15 33 l 1
 15 35 l 1
 17 35 l 1
 17 33 l 1
23 33 m 1
 21 33 l 1
 21 35 l 1
 23 35 l 1
 23 33 l 1
25 33 m 1
 24 33 l 1
 24 35 l 1
 26 35 l 1
 26 34 l 1
 25 34 l 1
 25 33 l 1
28 33 m 1
 26 33 l 1
 26 34 l 1
 27 34 l 1
 27 35 l 1
 28 35 l 1
 28 33 l 1
17 37 m 1
 15 37 l 1
 15 39 l 1
 17 39 l 1
 17 37 l 1
17 41 m 1
 15 41 l 1
 15 43 l 1
 17 43 l 1
 17 41 l 1
23 37 m 1
 21 37 l 1
 21 39 l 1
 23 39 l 1
 23 37 l 1
23 41 m 1
 21 41 l 1
 21 43 l 1
 23 43 l 1
 23 41 l 1
26 41 m 1
 24 41 l 1
 24 43 l 1
 25 43 l 1
 25 42 l 1
 26 42 l 1
 26 41 l 1
27 42 m 1
 26 42 l 1
 26 43 l 1
 28 43 l 1
 28 41 l 1
 27 41 l 1
 27 42 l 1
31 29 m 1
 29 29 l 1
 29 31 l 1
 31 31 l 1
 31 29 l 1
36 31 m 1
 34 31 l 1
 34 33 l 1
 36 33 l 1
 36 31 l 1
31 33 m 1
 29 33 l 1
 29 35 l 1
 31 35 l 1
 31 33 l 1
36 35 m 1
 34 35 l 1
 34 37 l 1
 36 37 l 1
 36 35 l 1
31 41 m 1
 29 41 l 1
 29 43 l 1
 31 43 l 1
 31 41 l 1
49 25 m 1
 47 25 l 1
 47 27 l 1
 49 27 l 1
 49 25 l 1
55 25 m 1
 53 25 l 1
 53 27 l 1
 55 27 l 1
 55 25 l 1
58 25 m 1
 56 25 l 1
 56 27 l 1
 57 27 l 1
 57 26 l 1
 58 26 l 1
 58 25 l 1
59 26 m 1
 58 26 l 1
 58 27 l 1
 60 27 l 1
 60 25 l 1
 59 25 l 1
 59 26 l 1
63 25 m 1
 61 25 l 1
 61 27 l 1
 63 27 l 1
 63 25 l 1
49 29 m 1
 47 29 l 1
 47 31 l 1
 49 31 l 1
 49 29 l 1
49 33 m 1
 47 33 l 1
 47 35 l 1
 49 35 l 1
 49 33 l 1
55 33 m 1
 53 33 l 1
 53 35 l 1
 55 35 l 1
 55 33 l 1
57 33 m 1
 56 33 l 1
 56 35 l 1
 58 35 l 1
 58 34 l 1
 57 34 l 1
 57 33 l 1
60 33 m 1
 58 33 l 1
 58 34 l 1
 59 34 l 1
 59 35 l 1
 60 35 l 1
 60 33 l 1
49 37 m 1
 47 37 l 1
 47 39 l 1
 49 39 l 1
 49 37 l 1
49 41 m 1
 47 41 l 1
 47 43 l 1
 49 43 l 1
 49 41 l 1
55 41 m 1
 53 41 l 1
 53 43 l 1
 55 43 l 1
 55 41 l 1
58 41 m 1
 56 41 l 1
 56 43 l 1
 57 43 l 1
 57 42 l 1
 58 42 l 1
 58 41 l 1
59 42 m 1
 58 42 l 1
 58 43 l 1
 60 43 l 1
 60 41 l 1
 59 41 l 1
 59 42 l 1
63 29 m 1
 61 29 l 1
 61 31 l 1
 63 31 l 1
 63 29 l 1
63 33 m 1
 61 33 l 1
 61 35 l 1
 63 35 l 1
 63 33 l 1
63 37 m 1
 61 37 l 1
 61 39 l 1
 63 39 l 1
 63 37 l 1
63 41 m 1
 61 41 l 1
 61 43 l 1
 63 43 l 1
 63 41 l 1
EndSplineSet
Ligature2: "'liga' Standard Ligatures in Latin lookup 0-1" one three zero one two
LCarets2: 1 0
EndChar

StartChar: custom_1_3_0_1_3
Encoding: 4169 -1 3924
Width: 70
Flags: H
LayerCount: 2
Fore
SplineSet
17 25 m 1
 15 25 l 1
 15 27 l 1
 17 27 l 1
 17 25 l 1
23 25 m 1
 21 25 l 1
 21 27 l 1
 23 27 l 1
 23 25 l 1
26 25 m 1
 24 25 l 1
 24 27 l 1
 25 27 l 1
 25 26 l 1
 26 26 l 1
 26 25 l 1
27 26 m 1
 26 26 l 1
 26 27 l 1
 28 27 l 1
 28 25 l 1
 27 25 l 1
 27 26 l 1
31 25 m 1
 29 25 l 1
 29 27 l 1
 31 27 l 1
 31 25 l 1
17 29 m 1
 15 29 l 1
 15 31 l 1
 17 31 l 1
 17 29 l 1
17 33 m 1
 15 33 l 1
 15 35 l 1
 17 35 l 1
 17 33 l 1
23 33 m 1
 21 33 l 1
 21 35 l 1
 23 35 l 1
 23 33 l 1
25 33 m 1
 24 33 l 1
 24 35 l 1
 26 35 l 1
 26 34 l 1
 25 34 l 1
 25 33 l 1
28 33 m 1
 26 33 l 1
 26 34 l 1
 27 34 l 1
 27 35 l 1
 28 35 l 1
 28 33 l 1
17 37 m 1
 15 37 l 1
 15 39 l 1
 17 39 l 1
 17 37 l 1
17 41 m 1
 15 41 l 1
 15 43 l 1
 17 43 l 1
 17 41 l 1
23 37 m 1
 21 37 l 1
 21 39 l 1
 23 39 l 1
 23 37 l 1
23 41 m 1
 21 41 l 1
 21 43 l 1
 23 43 l 1
 23 41 l 1
26 41 m 1
 24 41 l 1
 24 43 l 1
 25 43 l 1
 25 42 l 1
 26 42 l 1
 26 41 l 1
27 42 m 1
 26 42 l 1
 26 43 l 1
 28 43 l 1
 28 41 l 1
 27 41 l 1
 27 42 l 1
31 29 m 1
 29 29 l 1
 29 31 l 1
 31 31 l 1
 31 29 l 1
36 31 m 1
 34 31 l 1
 34 33 l 1
 36 33 l 1
 36 31 l 1
31 33 m 1
 29 33 l 1
 29 35 l 1
 31 35 l 1
 31 33 l 1
36 35 m 1
 34 35 l 1
 34 37 l 1
 36 37 l 1
 36 35 l 1
31 41 m 1
 29 41 l 1
 29 43 l 1
 31 43 l 1
 31 41 l 1
49 25 m 1
 47 25 l 1
 47 27 l 1
 49 27 l 1
 49 25 l 1
55 25 m 1
 53 25 l 1
 53 27 l 1
 55 27 l 1
 55 25 l 1
58 25 m 1
 56 25 l 1
 56 27 l 1
 57 27 l 1
 57 26 l 1
 58 26 l 1
 58 25 l 1
59 26 m 1
 58 26 l 1
 58 27 l 1
 60 27 l 1
 60 25 l 1
 59 25 l 1
 59 26 l 1
63 25 m 1
 61 25 l 1
 61 27 l 1
 63 27 l 1
 63 25 l 1
49 29 m 1
 47 29 l 1
 47 31 l 1
 49 31 l 1
 49 29 l 1
49 33 m 1
 47 33 l 1
 47 35 l 1
 49 35 l 1
 49 33 l 1
55 33 m 1
 53 33 l 1
 53 35 l 1
 55 35 l 1
 55 33 l 1
57 33 m 1
 56 33 l 1
 56 35 l 1
 58 35 l 1
 58 34 l 1
 57 34 l 1
 57 33 l 1
60 33 m 1
 58 33 l 1
 58 34 l 1
 59 34 l 1
 59 35 l 1
 60 35 l 1
 60 33 l 1
49 37 m 1
 47 37 l 1
 47 39 l 1
 49 39 l 1
 49 37 l 1
49 41 m 1
 47 41 l 1
 47 43 l 1
 49 43 l 1
 49 41 l 1
55 41 m 1
 53 41 l 1
 53 43 l 1
 55 43 l 1
 55 41 l 1
58 41 m 1
 56 41 l 1
 56 43 l 1
 57 43 l 1
 57 42 l 1
 58 42 l 1
 58 41 l 1
59 42 m 1
 58 42 l 1
 58 43 l 1
 60 43 l 1
 60 41 l 1
 59 41 l 1
 59 42 l 1
63 29 m 1
 61 29 l 1
 61 31 l 1
 63 31 l 1
 63 29 l 1
63 33 m 1
 61 33 l 1
 61 35 l 1
 63 35 l 1
 63 33 l 1
63 37 m 1
 61 37 l 1
 61 39 l 1
 63 39 l 1
 63 37 l 1
63 41 m 1
 61 41 l 1
 61 43 l 1
 63 43 l 1
 63 41 l 1
EndSplineSet
Ligature2: "'liga' Standard Ligatures in Latin lookup 0-1" one three zero one three
LCarets2: 1 0
EndChar

StartChar: custom_1_3_0_1_4
Encoding: 4170 -1 3925
Width: 70
Flags: H
LayerCount: 2
Fore
SplineSet
17 25 m 1
 15 25 l 1
 15 27 l 1
 17 27 l 1
 17 25 l 1
23 25 m 1
 21 25 l 1
 21 27 l 1
 23 27 l 1
 23 25 l 1
26 25 m 1
 24 25 l 1
 24 27 l 1
 25 27 l 1
 25 26 l 1
 26 26 l 1
 26 25 l 1
27 26 m 1
 26 26 l 1
 26 27 l 1
 28 27 l 1
 28 25 l 1
 27 25 l 1
 27 26 l 1
31 25 m 1
 29 25 l 1
 29 27 l 1
 31 27 l 1
 31 25 l 1
17 29 m 1
 15 29 l 1
 15 31 l 1
 17 31 l 1
 17 29 l 1
17 33 m 1
 15 33 l 1
 15 35 l 1
 17 35 l 1
 17 33 l 1
23 33 m 1
 21 33 l 1
 21 35 l 1
 23 35 l 1
 23 33 l 1
25 33 m 1
 24 33 l 1
 24 35 l 1
 26 35 l 1
 26 34 l 1
 25 34 l 1
 25 33 l 1
28 33 m 1
 26 33 l 1
 26 34 l 1
 27 34 l 1
 27 35 l 1
 28 35 l 1
 28 33 l 1
17 37 m 1
 15 37 l 1
 15 39 l 1
 17 39 l 1
 17 37 l 1
17 41 m 1
 15 41 l 1
 15 43 l 1
 17 43 l 1
 17 41 l 1
23 37 m 1
 21 37 l 1
 21 39 l 1
 23 39 l 1
 23 37 l 1
23 41 m 1
 21 41 l 1
 21 43 l 1
 23 43 l 1
 23 41 l 1
26 41 m 1
 24 41 l 1
 24 43 l 1
 25 43 l 1
 25 42 l 1
 26 42 l 1
 26 41 l 1
27 42 m 1
 26 42 l 1
 26 43 l 1
 28 43 l 1
 28 41 l 1
 27 41 l 1
 27 42 l 1
31 29 m 1
 29 29 l 1
 29 31 l 1
 31 31 l 1
 31 29 l 1
36 31 m 1
 34 31 l 1
 34 33 l 1
 36 33 l 1
 36 31 l 1
31 33 m 1
 29 33 l 1
 29 35 l 1
 31 35 l 1
 31 33 l 1
36 35 m 1
 34 35 l 1
 34 37 l 1
 36 37 l 1
 36 35 l 1
31 41 m 1
 29 41 l 1
 29 43 l 1
 31 43 l 1
 31 41 l 1
49 25 m 1
 47 25 l 1
 47 27 l 1
 49 27 l 1
 49 25 l 1
55 25 m 1
 53 25 l 1
 53 27 l 1
 55 27 l 1
 55 25 l 1
58 25 m 1
 56 25 l 1
 56 27 l 1
 57 27 l 1
 57 26 l 1
 58 26 l 1
 58 25 l 1
59 26 m 1
 58 26 l 1
 58 27 l 1
 60 27 l 1
 60 25 l 1
 59 25 l 1
 59 26 l 1
63 25 m 1
 61 25 l 1
 61 27 l 1
 63 27 l 1
 63 25 l 1
49 29 m 1
 47 29 l 1
 47 31 l 1
 49 31 l 1
 49 29 l 1
49 33 m 1
 47 33 l 1
 47 35 l 1
 49 35 l 1
 49 33 l 1
55 33 m 1
 53 33 l 1
 53 35 l 1
 55 35 l 1
 55 33 l 1
57 33 m 1
 56 33 l 1
 56 35 l 1
 58 35 l 1
 58 34 l 1
 57 34 l 1
 57 33 l 1
60 33 m 1
 58 33 l 1
 58 34 l 1
 59 34 l 1
 59 35 l 1
 60 35 l 1
 60 33 l 1
49 37 m 1
 47 37 l 1
 47 39 l 1
 49 39 l 1
 49 37 l 1
49 41 m 1
 47 41 l 1
 47 43 l 1
 49 43 l 1
 49 41 l 1
55 41 m 1
 53 41 l 1
 53 43 l 1
 55 43 l 1
 55 41 l 1
58 41 m 1
 56 41 l 1
 56 43 l 1
 57 43 l 1
 57 42 l 1
 58 42 l 1
 58 41 l 1
59 42 m 1
 58 42 l 1
 58 43 l 1
 60 43 l 1
 60 41 l 1
 59 41 l 1
 59 42 l 1
63 29 m 1
 61 29 l 1
 61 31 l 1
 63 31 l 1
 63 29 l 1
63 33 m 1
 61 33 l 1
 61 35 l 1
 63 35 l 1
 63 33 l 1
63 37 m 1
 61 37 l 1
 61 39 l 1
 63 39 l 1
 63 37 l 1
63 41 m 1
 61 41 l 1
 61 43 l 1
 63 43 l 1
 63 41 l 1
EndSplineSet
Ligature2: "'liga' Standard Ligatures in Latin lookup 0-1" one three zero one four
LCarets2: 1 0
EndChar

StartChar: custom_1_3_0_1_5
Encoding: 4171 -1 3926
Width: 70
Flags: H
LayerCount: 2
Fore
SplineSet
17 25 m 1
 15 25 l 1
 15 27 l 1
 17 27 l 1
 17 25 l 1
23 25 m 1
 21 25 l 1
 21 27 l 1
 23 27 l 1
 23 25 l 1
26 25 m 1
 24 25 l 1
 24 27 l 1
 25 27 l 1
 25 26 l 1
 26 26 l 1
 26 25 l 1
27 26 m 1
 26 26 l 1
 26 27 l 1
 28 27 l 1
 28 25 l 1
 27 25 l 1
 27 26 l 1
31 25 m 1
 29 25 l 1
 29 27 l 1
 31 27 l 1
 31 25 l 1
17 29 m 1
 15 29 l 1
 15 31 l 1
 17 31 l 1
 17 29 l 1
17 33 m 1
 15 33 l 1
 15 35 l 1
 17 35 l 1
 17 33 l 1
23 33 m 1
 21 33 l 1
 21 35 l 1
 23 35 l 1
 23 33 l 1
25 33 m 1
 24 33 l 1
 24 35 l 1
 26 35 l 1
 26 34 l 1
 25 34 l 1
 25 33 l 1
28 33 m 1
 26 33 l 1
 26 34 l 1
 27 34 l 1
 27 35 l 1
 28 35 l 1
 28 33 l 1
17 37 m 1
 15 37 l 1
 15 39 l 1
 17 39 l 1
 17 37 l 1
17 41 m 1
 15 41 l 1
 15 43 l 1
 17 43 l 1
 17 41 l 1
23 37 m 1
 21 37 l 1
 21 39 l 1
 23 39 l 1
 23 37 l 1
23 41 m 1
 21 41 l 1
 21 43 l 1
 23 43 l 1
 23 41 l 1
26 41 m 1
 24 41 l 1
 24 43 l 1
 25 43 l 1
 25 42 l 1
 26 42 l 1
 26 41 l 1
27 42 m 1
 26 42 l 1
 26 43 l 1
 28 43 l 1
 28 41 l 1
 27 41 l 1
 27 42 l 1
31 29 m 1
 29 29 l 1
 29 31 l 1
 31 31 l 1
 31 29 l 1
36 31 m 1
 34 31 l 1
 34 33 l 1
 36 33 l 1
 36 31 l 1
31 33 m 1
 29 33 l 1
 29 35 l 1
 31 35 l 1
 31 33 l 1
36 35 m 1
 34 35 l 1
 34 37 l 1
 36 37 l 1
 36 35 l 1
31 41 m 1
 29 41 l 1
 29 43 l 1
 31 43 l 1
 31 41 l 1
49 25 m 1
 47 25 l 1
 47 27 l 1
 49 27 l 1
 49 25 l 1
55 25 m 1
 53 25 l 1
 53 27 l 1
 55 27 l 1
 55 25 l 1
58 25 m 1
 56 25 l 1
 56 27 l 1
 57 27 l 1
 57 26 l 1
 58 26 l 1
 58 25 l 1
59 26 m 1
 58 26 l 1
 58 27 l 1
 60 27 l 1
 60 25 l 1
 59 25 l 1
 59 26 l 1
63 25 m 1
 61 25 l 1
 61 27 l 1
 63 27 l 1
 63 25 l 1
49 29 m 1
 47 29 l 1
 47 31 l 1
 49 31 l 1
 49 29 l 1
49 33 m 1
 47 33 l 1
 47 35 l 1
 49 35 l 1
 49 33 l 1
55 33 m 1
 53 33 l 1
 53 35 l 1
 55 35 l 1
 55 33 l 1
57 33 m 1
 56 33 l 1
 56 35 l 1
 58 35 l 1
 58 34 l 1
 57 34 l 1
 57 33 l 1
60 33 m 1
 58 33 l 1
 58 34 l 1
 59 34 l 1
 59 35 l 1
 60 35 l 1
 60 33 l 1
49 37 m 1
 47 37 l 1
 47 39 l 1
 49 39 l 1
 49 37 l 1
49 41 m 1
 47 41 l 1
 47 43 l 1
 49 43 l 1
 49 41 l 1
55 41 m 1
 53 41 l 1
 53 43 l 1
 55 43 l 1
 55 41 l 1
58 41 m 1
 56 41 l 1
 56 43 l 1
 57 43 l 1
 57 42 l 1
 58 42 l 1
 58 41 l 1
59 42 m 1
 58 42 l 1
 58 43 l 1
 60 43 l 1
 60 41 l 1
 59 41 l 1
 59 42 l 1
63 29 m 1
 61 29 l 1
 61 31 l 1
 63 31 l 1
 63 29 l 1
63 33 m 1
 61 33 l 1
 61 35 l 1
 63 35 l 1
 63 33 l 1
63 37 m 1
 61 37 l 1
 61 39 l 1
 63 39 l 1
 63 37 l 1
63 41 m 1
 61 41 l 1
 61 43 l 1
 63 43 l 1
 63 41 l 1
EndSplineSet
Ligature2: "'liga' Standard Ligatures in Latin lookup 0-1" one three zero one five
LCarets2: 1 0
EndChar

StartChar: custom_1_3_0_1_6
Encoding: 4172 -1 3927
Width: 70
Flags: H
LayerCount: 2
Fore
SplineSet
17 25 m 1
 15 25 l 1
 15 27 l 1
 17 27 l 1
 17 25 l 1
23 25 m 1
 21 25 l 1
 21 27 l 1
 23 27 l 1
 23 25 l 1
26 25 m 1
 24 25 l 1
 24 27 l 1
 25 27 l 1
 25 26 l 1
 26 26 l 1
 26 25 l 1
27 26 m 1
 26 26 l 1
 26 27 l 1
 28 27 l 1
 28 25 l 1
 27 25 l 1
 27 26 l 1
31 25 m 1
 29 25 l 1
 29 27 l 1
 31 27 l 1
 31 25 l 1
17 29 m 1
 15 29 l 1
 15 31 l 1
 17 31 l 1
 17 29 l 1
17 33 m 1
 15 33 l 1
 15 35 l 1
 17 35 l 1
 17 33 l 1
23 33 m 1
 21 33 l 1
 21 35 l 1
 23 35 l 1
 23 33 l 1
25 33 m 1
 24 33 l 1
 24 35 l 1
 26 35 l 1
 26 34 l 1
 25 34 l 1
 25 33 l 1
28 33 m 1
 26 33 l 1
 26 34 l 1
 27 34 l 1
 27 35 l 1
 28 35 l 1
 28 33 l 1
17 37 m 1
 15 37 l 1
 15 39 l 1
 17 39 l 1
 17 37 l 1
17 41 m 1
 15 41 l 1
 15 43 l 1
 17 43 l 1
 17 41 l 1
23 37 m 1
 21 37 l 1
 21 39 l 1
 23 39 l 1
 23 37 l 1
23 41 m 1
 21 41 l 1
 21 43 l 1
 23 43 l 1
 23 41 l 1
26 41 m 1
 24 41 l 1
 24 43 l 1
 25 43 l 1
 25 42 l 1
 26 42 l 1
 26 41 l 1
27 42 m 1
 26 42 l 1
 26 43 l 1
 28 43 l 1
 28 41 l 1
 27 41 l 1
 27 42 l 1
31 29 m 1
 29 29 l 1
 29 31 l 1
 31 31 l 1
 31 29 l 1
36 31 m 1
 34 31 l 1
 34 33 l 1
 36 33 l 1
 36 31 l 1
31 33 m 1
 29 33 l 1
 29 35 l 1
 31 35 l 1
 31 33 l 1
36 35 m 1
 34 35 l 1
 34 37 l 1
 36 37 l 1
 36 35 l 1
31 41 m 1
 29 41 l 1
 29 43 l 1
 31 43 l 1
 31 41 l 1
49 25 m 1
 47 25 l 1
 47 27 l 1
 49 27 l 1
 49 25 l 1
55 25 m 1
 53 25 l 1
 53 27 l 1
 55 27 l 1
 55 25 l 1
58 25 m 1
 56 25 l 1
 56 27 l 1
 57 27 l 1
 57 26 l 1
 58 26 l 1
 58 25 l 1
59 26 m 1
 58 26 l 1
 58 27 l 1
 60 27 l 1
 60 25 l 1
 59 25 l 1
 59 26 l 1
63 25 m 1
 61 25 l 1
 61 27 l 1
 63 27 l 1
 63 25 l 1
49 29 m 1
 47 29 l 1
 47 31 l 1
 49 31 l 1
 49 29 l 1
49 33 m 1
 47 33 l 1
 47 35 l 1
 49 35 l 1
 49 33 l 1
55 33 m 1
 53 33 l 1
 53 35 l 1
 55 35 l 1
 55 33 l 1
57 33 m 1
 56 33 l 1
 56 35 l 1
 58 35 l 1
 58 34 l 1
 57 34 l 1
 57 33 l 1
60 33 m 1
 58 33 l 1
 58 34 l 1
 59 34 l 1
 59 35 l 1
 60 35 l 1
 60 33 l 1
49 37 m 1
 47 37 l 1
 47 39 l 1
 49 39 l 1
 49 37 l 1
49 41 m 1
 47 41 l 1
 47 43 l 1
 49 43 l 1
 49 41 l 1
55 41 m 1
 53 41 l 1
 53 43 l 1
 55 43 l 1
 55 41 l 1
58 41 m 1
 56 41 l 1
 56 43 l 1
 57 43 l 1
 57 42 l 1
 58 42 l 1
 58 41 l 1
59 42 m 1
 58 42 l 1
 58 43 l 1
 60 43 l 1
 60 41 l 1
 59 41 l 1
 59 42 l 1
63 29 m 1
 61 29 l 1
 61 31 l 1
 63 31 l 1
 63 29 l 1
63 33 m 1
 61 33 l 1
 61 35 l 1
 63 35 l 1
 63 33 l 1
63 37 m 1
 61 37 l 1
 61 39 l 1
 63 39 l 1
 63 37 l 1
63 41 m 1
 61 41 l 1
 61 43 l 1
 63 43 l 1
 63 41 l 1
EndSplineSet
Ligature2: "'liga' Standard Ligatures in Latin lookup 0-1" one three zero one six
LCarets2: 1 0
EndChar

StartChar: custom_1_3_0_1_7
Encoding: 4173 -1 3928
Width: 70
Flags: H
LayerCount: 2
Fore
SplineSet
17 25 m 1
 15 25 l 1
 15 27 l 1
 17 27 l 1
 17 25 l 1
23 25 m 1
 21 25 l 1
 21 27 l 1
 23 27 l 1
 23 25 l 1
26 25 m 1
 24 25 l 1
 24 27 l 1
 25 27 l 1
 25 26 l 1
 26 26 l 1
 26 25 l 1
27 26 m 1
 26 26 l 1
 26 27 l 1
 28 27 l 1
 28 25 l 1
 27 25 l 1
 27 26 l 1
31 25 m 1
 29 25 l 1
 29 27 l 1
 31 27 l 1
 31 25 l 1
17 29 m 1
 15 29 l 1
 15 31 l 1
 17 31 l 1
 17 29 l 1
17 33 m 1
 15 33 l 1
 15 35 l 1
 17 35 l 1
 17 33 l 1
23 33 m 1
 21 33 l 1
 21 35 l 1
 23 35 l 1
 23 33 l 1
25 33 m 1
 24 33 l 1
 24 35 l 1
 26 35 l 1
 26 34 l 1
 25 34 l 1
 25 33 l 1
28 33 m 1
 26 33 l 1
 26 34 l 1
 27 34 l 1
 27 35 l 1
 28 35 l 1
 28 33 l 1
17 37 m 1
 15 37 l 1
 15 39 l 1
 17 39 l 1
 17 37 l 1
17 41 m 1
 15 41 l 1
 15 43 l 1
 17 43 l 1
 17 41 l 1
23 37 m 1
 21 37 l 1
 21 39 l 1
 23 39 l 1
 23 37 l 1
23 41 m 1
 21 41 l 1
 21 43 l 1
 23 43 l 1
 23 41 l 1
26 41 m 1
 24 41 l 1
 24 43 l 1
 25 43 l 1
 25 42 l 1
 26 42 l 1
 26 41 l 1
27 42 m 1
 26 42 l 1
 26 43 l 1
 28 43 l 1
 28 41 l 1
 27 41 l 1
 27 42 l 1
31 29 m 1
 29 29 l 1
 29 31 l 1
 31 31 l 1
 31 29 l 1
36 31 m 1
 34 31 l 1
 34 33 l 1
 36 33 l 1
 36 31 l 1
31 33 m 1
 29 33 l 1
 29 35 l 1
 31 35 l 1
 31 33 l 1
36 35 m 1
 34 35 l 1
 34 37 l 1
 36 37 l 1
 36 35 l 1
31 41 m 1
 29 41 l 1
 29 43 l 1
 31 43 l 1
 31 41 l 1
49 25 m 1
 47 25 l 1
 47 27 l 1
 49 27 l 1
 49 25 l 1
55 25 m 1
 53 25 l 1
 53 27 l 1
 55 27 l 1
 55 25 l 1
58 25 m 1
 56 25 l 1
 56 27 l 1
 57 27 l 1
 57 26 l 1
 58 26 l 1
 58 25 l 1
59 26 m 1
 58 26 l 1
 58 27 l 1
 60 27 l 1
 60 25 l 1
 59 25 l 1
 59 26 l 1
63 25 m 1
 61 25 l 1
 61 27 l 1
 63 27 l 1
 63 25 l 1
49 29 m 1
 47 29 l 1
 47 31 l 1
 49 31 l 1
 49 29 l 1
49 33 m 1
 47 33 l 1
 47 35 l 1
 49 35 l 1
 49 33 l 1
55 33 m 1
 53 33 l 1
 53 35 l 1
 55 35 l 1
 55 33 l 1
57 33 m 1
 56 33 l 1
 56 35 l 1
 58 35 l 1
 58 34 l 1
 57 34 l 1
 57 33 l 1
60 33 m 1
 58 33 l 1
 58 34 l 1
 59 34 l 1
 59 35 l 1
 60 35 l 1
 60 33 l 1
49 37 m 1
 47 37 l 1
 47 39 l 1
 49 39 l 1
 49 37 l 1
49 41 m 1
 47 41 l 1
 47 43 l 1
 49 43 l 1
 49 41 l 1
55 41 m 1
 53 41 l 1
 53 43 l 1
 55 43 l 1
 55 41 l 1
58 41 m 1
 56 41 l 1
 56 43 l 1
 57 43 l 1
 57 42 l 1
 58 42 l 1
 58 41 l 1
59 42 m 1
 58 42 l 1
 58 43 l 1
 60 43 l 1
 60 41 l 1
 59 41 l 1
 59 42 l 1
63 29 m 1
 61 29 l 1
 61 31 l 1
 63 31 l 1
 63 29 l 1
63 33 m 1
 61 33 l 1
 61 35 l 1
 63 35 l 1
 63 33 l 1
63 37 m 1
 61 37 l 1
 61 39 l 1
 63 39 l 1
 63 37 l 1
63 41 m 1
 61 41 l 1
 61 43 l 1
 63 43 l 1
 63 41 l 1
EndSplineSet
Ligature2: "'liga' Standard Ligatures in Latin lookup 0-1" one three zero one seven
LCarets2: 1 0
EndChar

StartChar: custom_1_3_0_1_8
Encoding: 4174 -1 3929
Width: 70
Flags: H
LayerCount: 2
Fore
SplineSet
17 25 m 1
 15 25 l 1
 15 27 l 1
 17 27 l 1
 17 25 l 1
23 25 m 1
 21 25 l 1
 21 27 l 1
 23 27 l 1
 23 25 l 1
26 25 m 1
 24 25 l 1
 24 27 l 1
 25 27 l 1
 25 26 l 1
 26 26 l 1
 26 25 l 1
27 26 m 1
 26 26 l 1
 26 27 l 1
 28 27 l 1
 28 25 l 1
 27 25 l 1
 27 26 l 1
31 25 m 1
 29 25 l 1
 29 27 l 1
 31 27 l 1
 31 25 l 1
17 29 m 1
 15 29 l 1
 15 31 l 1
 17 31 l 1
 17 29 l 1
17 33 m 1
 15 33 l 1
 15 35 l 1
 17 35 l 1
 17 33 l 1
23 33 m 1
 21 33 l 1
 21 35 l 1
 23 35 l 1
 23 33 l 1
25 33 m 1
 24 33 l 1
 24 35 l 1
 26 35 l 1
 26 34 l 1
 25 34 l 1
 25 33 l 1
28 33 m 1
 26 33 l 1
 26 34 l 1
 27 34 l 1
 27 35 l 1
 28 35 l 1
 28 33 l 1
17 37 m 1
 15 37 l 1
 15 39 l 1
 17 39 l 1
 17 37 l 1
17 41 m 1
 15 41 l 1
 15 43 l 1
 17 43 l 1
 17 41 l 1
23 37 m 1
 21 37 l 1
 21 39 l 1
 23 39 l 1
 23 37 l 1
23 41 m 1
 21 41 l 1
 21 43 l 1
 23 43 l 1
 23 41 l 1
26 41 m 1
 24 41 l 1
 24 43 l 1
 25 43 l 1
 25 42 l 1
 26 42 l 1
 26 41 l 1
27 42 m 1
 26 42 l 1
 26 43 l 1
 28 43 l 1
 28 41 l 1
 27 41 l 1
 27 42 l 1
31 29 m 1
 29 29 l 1
 29 31 l 1
 31 31 l 1
 31 29 l 1
36 31 m 1
 34 31 l 1
 34 33 l 1
 36 33 l 1
 36 31 l 1
31 33 m 1
 29 33 l 1
 29 35 l 1
 31 35 l 1
 31 33 l 1
36 35 m 1
 34 35 l 1
 34 37 l 1
 36 37 l 1
 36 35 l 1
31 41 m 1
 29 41 l 1
 29 43 l 1
 31 43 l 1
 31 41 l 1
49 25 m 1
 47 25 l 1
 47 27 l 1
 49 27 l 1
 49 25 l 1
55 25 m 1
 53 25 l 1
 53 27 l 1
 55 27 l 1
 55 25 l 1
58 25 m 1
 56 25 l 1
 56 27 l 1
 57 27 l 1
 57 26 l 1
 58 26 l 1
 58 25 l 1
59 26 m 1
 58 26 l 1
 58 27 l 1
 60 27 l 1
 60 25 l 1
 59 25 l 1
 59 26 l 1
63 25 m 1
 61 25 l 1
 61 27 l 1
 63 27 l 1
 63 25 l 1
49 29 m 1
 47 29 l 1
 47 31 l 1
 49 31 l 1
 49 29 l 1
49 33 m 1
 47 33 l 1
 47 35 l 1
 49 35 l 1
 49 33 l 1
55 33 m 1
 53 33 l 1
 53 35 l 1
 55 35 l 1
 55 33 l 1
57 33 m 1
 56 33 l 1
 56 35 l 1
 58 35 l 1
 58 34 l 1
 57 34 l 1
 57 33 l 1
60 33 m 1
 58 33 l 1
 58 34 l 1
 59 34 l 1
 59 35 l 1
 60 35 l 1
 60 33 l 1
49 37 m 1
 47 37 l 1
 47 39 l 1
 49 39 l 1
 49 37 l 1
49 41 m 1
 47 41 l 1
 47 43 l 1
 49 43 l 1
 49 41 l 1
55 41 m 1
 53 41 l 1
 53 43 l 1
 55 43 l 1
 55 41 l 1
58 41 m 1
 56 41 l 1
 56 43 l 1
 57 43 l 1
 57 42 l 1
 58 42 l 1
 58 41 l 1
59 42 m 1
 58 42 l 1
 58 43 l 1
 60 43 l 1
 60 41 l 1
 59 41 l 1
 59 42 l 1
63 29 m 1
 61 29 l 1
 61 31 l 1
 63 31 l 1
 63 29 l 1
63 33 m 1
 61 33 l 1
 61 35 l 1
 63 35 l 1
 63 33 l 1
63 37 m 1
 61 37 l 1
 61 39 l 1
 63 39 l 1
 63 37 l 1
63 41 m 1
 61 41 l 1
 61 43 l 1
 63 43 l 1
 63 41 l 1
EndSplineSet
Ligature2: "'liga' Standard Ligatures in Latin lookup 0-1" one three zero one eight
LCarets2: 1 0
EndChar

StartChar: custom_1_3_0_1_9
Encoding: 4175 -1 3930
Width: 70
Flags: H
LayerCount: 2
Fore
SplineSet
17 25 m 1
 15 25 l 1
 15 27 l 1
 17 27 l 1
 17 25 l 1
23 25 m 1
 21 25 l 1
 21 27 l 1
 23 27 l 1
 23 25 l 1
26 25 m 1
 24 25 l 1
 24 27 l 1
 25 27 l 1
 25 26 l 1
 26 26 l 1
 26 25 l 1
27 26 m 1
 26 26 l 1
 26 27 l 1
 28 27 l 1
 28 25 l 1
 27 25 l 1
 27 26 l 1
31 25 m 1
 29 25 l 1
 29 27 l 1
 31 27 l 1
 31 25 l 1
17 29 m 1
 15 29 l 1
 15 31 l 1
 17 31 l 1
 17 29 l 1
17 33 m 1
 15 33 l 1
 15 35 l 1
 17 35 l 1
 17 33 l 1
23 33 m 1
 21 33 l 1
 21 35 l 1
 23 35 l 1
 23 33 l 1
25 33 m 1
 24 33 l 1
 24 35 l 1
 26 35 l 1
 26 34 l 1
 25 34 l 1
 25 33 l 1
28 33 m 1
 26 33 l 1
 26 34 l 1
 27 34 l 1
 27 35 l 1
 28 35 l 1
 28 33 l 1
17 37 m 1
 15 37 l 1
 15 39 l 1
 17 39 l 1
 17 37 l 1
17 41 m 1
 15 41 l 1
 15 43 l 1
 17 43 l 1
 17 41 l 1
23 37 m 1
 21 37 l 1
 21 39 l 1
 23 39 l 1
 23 37 l 1
23 41 m 1
 21 41 l 1
 21 43 l 1
 23 43 l 1
 23 41 l 1
26 41 m 1
 24 41 l 1
 24 43 l 1
 25 43 l 1
 25 42 l 1
 26 42 l 1
 26 41 l 1
27 42 m 1
 26 42 l 1
 26 43 l 1
 28 43 l 1
 28 41 l 1
 27 41 l 1
 27 42 l 1
31 29 m 1
 29 29 l 1
 29 31 l 1
 31 31 l 1
 31 29 l 1
36 31 m 1
 34 31 l 1
 34 33 l 1
 36 33 l 1
 36 31 l 1
31 33 m 1
 29 33 l 1
 29 35 l 1
 31 35 l 1
 31 33 l 1
36 35 m 1
 34 35 l 1
 34 37 l 1
 36 37 l 1
 36 35 l 1
31 41 m 1
 29 41 l 1
 29 43 l 1
 31 43 l 1
 31 41 l 1
49 25 m 1
 47 25 l 1
 47 27 l 1
 49 27 l 1
 49 25 l 1
55 25 m 1
 53 25 l 1
 53 27 l 1
 55 27 l 1
 55 25 l 1
58 25 m 1
 56 25 l 1
 56 27 l 1
 57 27 l 1
 57 26 l 1
 58 26 l 1
 58 25 l 1
59 26 m 1
 58 26 l 1
 58 27 l 1
 60 27 l 1
 60 25 l 1
 59 25 l 1
 59 26 l 1
63 25 m 1
 61 25 l 1
 61 27 l 1
 63 27 l 1
 63 25 l 1
49 29 m 1
 47 29 l 1
 47 31 l 1
 49 31 l 1
 49 29 l 1
49 33 m 1
 47 33 l 1
 47 35 l 1
 49 35 l 1
 49 33 l 1
55 33 m 1
 53 33 l 1
 53 35 l 1
 55 35 l 1
 55 33 l 1
57 33 m 1
 56 33 l 1
 56 35 l 1
 58 35 l 1
 58 34 l 1
 57 34 l 1
 57 33 l 1
60 33 m 1
 58 33 l 1
 58 34 l 1
 59 34 l 1
 59 35 l 1
 60 35 l 1
 60 33 l 1
49 37 m 1
 47 37 l 1
 47 39 l 1
 49 39 l 1
 49 37 l 1
49 41 m 1
 47 41 l 1
 47 43 l 1
 49 43 l 1
 49 41 l 1
55 41 m 1
 53 41 l 1
 53 43 l 1
 55 43 l 1
 55 41 l 1
58 41 m 1
 56 41 l 1
 56 43 l 1
 57 43 l 1
 57 42 l 1
 58 42 l 1
 58 41 l 1
59 42 m 1
 58 42 l 1
 58 43 l 1
 60 43 l 1
 60 41 l 1
 59 41 l 1
 59 42 l 1
63 29 m 1
 61 29 l 1
 61 31 l 1
 63 31 l 1
 63 29 l 1
63 33 m 1
 61 33 l 1
 61 35 l 1
 63 35 l 1
 63 33 l 1
63 37 m 1
 61 37 l 1
 61 39 l 1
 63 39 l 1
 63 37 l 1
63 41 m 1
 61 41 l 1
 61 43 l 1
 63 43 l 1
 63 41 l 1
EndSplineSet
Ligature2: "'liga' Standard Ligatures in Latin lookup 0-1" one three zero one nine
LCarets2: 1 0
EndChar

StartChar: custom_1_3_0_2_0
Encoding: 4176 -1 3931
Width: 70
Flags: H
LayerCount: 2
Fore
SplineSet
17 25 m 1
 15 25 l 1
 15 27 l 1
 17 27 l 1
 17 25 l 1
23 25 m 1
 21 25 l 1
 21 27 l 1
 23 27 l 1
 23 25 l 1
26 25 m 1
 24 25 l 1
 24 27 l 1
 25 27 l 1
 25 26 l 1
 26 26 l 1
 26 25 l 1
27 26 m 1
 26 26 l 1
 26 27 l 1
 28 27 l 1
 28 25 l 1
 27 25 l 1
 27 26 l 1
31 25 m 1
 29 25 l 1
 29 27 l 1
 31 27 l 1
 31 25 l 1
17 29 m 1
 15 29 l 1
 15 31 l 1
 17 31 l 1
 17 29 l 1
17 33 m 1
 15 33 l 1
 15 35 l 1
 17 35 l 1
 17 33 l 1
23 33 m 1
 21 33 l 1
 21 35 l 1
 23 35 l 1
 23 33 l 1
25 33 m 1
 24 33 l 1
 24 35 l 1
 26 35 l 1
 26 34 l 1
 25 34 l 1
 25 33 l 1
28 33 m 1
 26 33 l 1
 26 34 l 1
 27 34 l 1
 27 35 l 1
 28 35 l 1
 28 33 l 1
17 37 m 1
 15 37 l 1
 15 39 l 1
 17 39 l 1
 17 37 l 1
17 41 m 1
 15 41 l 1
 15 43 l 1
 17 43 l 1
 17 41 l 1
23 37 m 1
 21 37 l 1
 21 39 l 1
 23 39 l 1
 23 37 l 1
23 41 m 1
 21 41 l 1
 21 43 l 1
 23 43 l 1
 23 41 l 1
26 41 m 1
 24 41 l 1
 24 43 l 1
 25 43 l 1
 25 42 l 1
 26 42 l 1
 26 41 l 1
27 42 m 1
 26 42 l 1
 26 43 l 1
 28 43 l 1
 28 41 l 1
 27 41 l 1
 27 42 l 1
31 29 m 1
 29 29 l 1
 29 31 l 1
 31 31 l 1
 31 29 l 1
36 31 m 1
 34 31 l 1
 34 33 l 1
 36 33 l 1
 36 31 l 1
31 33 m 1
 29 33 l 1
 29 35 l 1
 31 35 l 1
 31 33 l 1
36 35 m 1
 34 35 l 1
 34 37 l 1
 36 37 l 1
 36 35 l 1
31 41 m 1
 29 41 l 1
 29 43 l 1
 31 43 l 1
 31 41 l 1
49 25 m 1
 47 25 l 1
 47 27 l 1
 49 27 l 1
 49 25 l 1
55 25 m 1
 53 25 l 1
 53 27 l 1
 55 27 l 1
 55 25 l 1
58 25 m 1
 56 25 l 1
 56 27 l 1
 57 27 l 1
 57 26 l 1
 58 26 l 1
 58 25 l 1
59 26 m 1
 58 26 l 1
 58 27 l 1
 60 27 l 1
 60 25 l 1
 59 25 l 1
 59 26 l 1
63 25 m 1
 61 25 l 1
 61 27 l 1
 63 27 l 1
 63 25 l 1
49 29 m 1
 47 29 l 1
 47 31 l 1
 49 31 l 1
 49 29 l 1
49 33 m 1
 47 33 l 1
 47 35 l 1
 49 35 l 1
 49 33 l 1
55 33 m 1
 53 33 l 1
 53 35 l 1
 55 35 l 1
 55 33 l 1
57 33 m 1
 56 33 l 1
 56 35 l 1
 58 35 l 1
 58 34 l 1
 57 34 l 1
 57 33 l 1
60 33 m 1
 58 33 l 1
 58 34 l 1
 59 34 l 1
 59 35 l 1
 60 35 l 1
 60 33 l 1
49 37 m 1
 47 37 l 1
 47 39 l 1
 49 39 l 1
 49 37 l 1
49 41 m 1
 47 41 l 1
 47 43 l 1
 49 43 l 1
 49 41 l 1
55 41 m 1
 53 41 l 1
 53 43 l 1
 55 43 l 1
 55 41 l 1
58 41 m 1
 56 41 l 1
 56 43 l 1
 57 43 l 1
 57 42 l 1
 58 42 l 1
 58 41 l 1
59 42 m 1
 58 42 l 1
 58 43 l 1
 60 43 l 1
 60 41 l 1
 59 41 l 1
 59 42 l 1
63 29 m 1
 61 29 l 1
 61 31 l 1
 63 31 l 1
 63 29 l 1
63 33 m 1
 61 33 l 1
 61 35 l 1
 63 35 l 1
 63 33 l 1
63 37 m 1
 61 37 l 1
 61 39 l 1
 63 39 l 1
 63 37 l 1
63 41 m 1
 61 41 l 1
 61 43 l 1
 63 43 l 1
 63 41 l 1
EndSplineSet
Ligature2: "'liga' Standard Ligatures in Latin lookup 0-1" one three zero two zero
LCarets2: 1 0
EndChar

StartChar: custom_1_3_0_2_1
Encoding: 4177 -1 3932
Width: 70
Flags: H
LayerCount: 2
Fore
SplineSet
17 25 m 1
 15 25 l 1
 15 27 l 1
 17 27 l 1
 17 25 l 1
23 25 m 1
 21 25 l 1
 21 27 l 1
 23 27 l 1
 23 25 l 1
26 25 m 1
 24 25 l 1
 24 27 l 1
 25 27 l 1
 25 26 l 1
 26 26 l 1
 26 25 l 1
27 26 m 1
 26 26 l 1
 26 27 l 1
 28 27 l 1
 28 25 l 1
 27 25 l 1
 27 26 l 1
31 25 m 1
 29 25 l 1
 29 27 l 1
 31 27 l 1
 31 25 l 1
17 29 m 1
 15 29 l 1
 15 31 l 1
 17 31 l 1
 17 29 l 1
17 33 m 1
 15 33 l 1
 15 35 l 1
 17 35 l 1
 17 33 l 1
23 33 m 1
 21 33 l 1
 21 35 l 1
 23 35 l 1
 23 33 l 1
25 33 m 1
 24 33 l 1
 24 35 l 1
 26 35 l 1
 26 34 l 1
 25 34 l 1
 25 33 l 1
28 33 m 1
 26 33 l 1
 26 34 l 1
 27 34 l 1
 27 35 l 1
 28 35 l 1
 28 33 l 1
17 37 m 1
 15 37 l 1
 15 39 l 1
 17 39 l 1
 17 37 l 1
17 41 m 1
 15 41 l 1
 15 43 l 1
 17 43 l 1
 17 41 l 1
23 37 m 1
 21 37 l 1
 21 39 l 1
 23 39 l 1
 23 37 l 1
23 41 m 1
 21 41 l 1
 21 43 l 1
 23 43 l 1
 23 41 l 1
26 41 m 1
 24 41 l 1
 24 43 l 1
 25 43 l 1
 25 42 l 1
 26 42 l 1
 26 41 l 1
27 42 m 1
 26 42 l 1
 26 43 l 1
 28 43 l 1
 28 41 l 1
 27 41 l 1
 27 42 l 1
31 29 m 1
 29 29 l 1
 29 31 l 1
 31 31 l 1
 31 29 l 1
36 31 m 1
 34 31 l 1
 34 33 l 1
 36 33 l 1
 36 31 l 1
31 33 m 1
 29 33 l 1
 29 35 l 1
 31 35 l 1
 31 33 l 1
36 35 m 1
 34 35 l 1
 34 37 l 1
 36 37 l 1
 36 35 l 1
31 41 m 1
 29 41 l 1
 29 43 l 1
 31 43 l 1
 31 41 l 1
49 25 m 1
 47 25 l 1
 47 27 l 1
 49 27 l 1
 49 25 l 1
55 25 m 1
 53 25 l 1
 53 27 l 1
 55 27 l 1
 55 25 l 1
58 25 m 1
 56 25 l 1
 56 27 l 1
 57 27 l 1
 57 26 l 1
 58 26 l 1
 58 25 l 1
59 26 m 1
 58 26 l 1
 58 27 l 1
 60 27 l 1
 60 25 l 1
 59 25 l 1
 59 26 l 1
63 25 m 1
 61 25 l 1
 61 27 l 1
 63 27 l 1
 63 25 l 1
49 29 m 1
 47 29 l 1
 47 31 l 1
 49 31 l 1
 49 29 l 1
49 33 m 1
 47 33 l 1
 47 35 l 1
 49 35 l 1
 49 33 l 1
55 33 m 1
 53 33 l 1
 53 35 l 1
 55 35 l 1
 55 33 l 1
57 33 m 1
 56 33 l 1
 56 35 l 1
 58 35 l 1
 58 34 l 1
 57 34 l 1
 57 33 l 1
60 33 m 1
 58 33 l 1
 58 34 l 1
 59 34 l 1
 59 35 l 1
 60 35 l 1
 60 33 l 1
49 37 m 1
 47 37 l 1
 47 39 l 1
 49 39 l 1
 49 37 l 1
49 41 m 1
 47 41 l 1
 47 43 l 1
 49 43 l 1
 49 41 l 1
55 41 m 1
 53 41 l 1
 53 43 l 1
 55 43 l 1
 55 41 l 1
58 41 m 1
 56 41 l 1
 56 43 l 1
 57 43 l 1
 57 42 l 1
 58 42 l 1
 58 41 l 1
59 42 m 1
 58 42 l 1
 58 43 l 1
 60 43 l 1
 60 41 l 1
 59 41 l 1
 59 42 l 1
63 29 m 1
 61 29 l 1
 61 31 l 1
 63 31 l 1
 63 29 l 1
63 33 m 1
 61 33 l 1
 61 35 l 1
 63 35 l 1
 63 33 l 1
63 37 m 1
 61 37 l 1
 61 39 l 1
 63 39 l 1
 63 37 l 1
63 41 m 1
 61 41 l 1
 61 43 l 1
 63 43 l 1
 63 41 l 1
EndSplineSet
Ligature2: "'liga' Standard Ligatures in Latin lookup 0-1" one three zero two one
LCarets2: 1 0
EndChar

StartChar: custom_1_3_0_2_2
Encoding: 4178 -1 3933
Width: 70
Flags: H
LayerCount: 2
Fore
SplineSet
17 25 m 1
 15 25 l 1
 15 27 l 1
 17 27 l 1
 17 25 l 1
23 25 m 1
 21 25 l 1
 21 27 l 1
 23 27 l 1
 23 25 l 1
26 25 m 1
 24 25 l 1
 24 27 l 1
 25 27 l 1
 25 26 l 1
 26 26 l 1
 26 25 l 1
27 26 m 1
 26 26 l 1
 26 27 l 1
 28 27 l 1
 28 25 l 1
 27 25 l 1
 27 26 l 1
31 25 m 1
 29 25 l 1
 29 27 l 1
 31 27 l 1
 31 25 l 1
17 29 m 1
 15 29 l 1
 15 31 l 1
 17 31 l 1
 17 29 l 1
17 33 m 1
 15 33 l 1
 15 35 l 1
 17 35 l 1
 17 33 l 1
23 33 m 1
 21 33 l 1
 21 35 l 1
 23 35 l 1
 23 33 l 1
25 33 m 1
 24 33 l 1
 24 35 l 1
 26 35 l 1
 26 34 l 1
 25 34 l 1
 25 33 l 1
28 33 m 1
 26 33 l 1
 26 34 l 1
 27 34 l 1
 27 35 l 1
 28 35 l 1
 28 33 l 1
17 37 m 1
 15 37 l 1
 15 39 l 1
 17 39 l 1
 17 37 l 1
17 41 m 1
 15 41 l 1
 15 43 l 1
 17 43 l 1
 17 41 l 1
23 37 m 1
 21 37 l 1
 21 39 l 1
 23 39 l 1
 23 37 l 1
23 41 m 1
 21 41 l 1
 21 43 l 1
 23 43 l 1
 23 41 l 1
26 41 m 1
 24 41 l 1
 24 43 l 1
 25 43 l 1
 25 42 l 1
 26 42 l 1
 26 41 l 1
27 42 m 1
 26 42 l 1
 26 43 l 1
 28 43 l 1
 28 41 l 1
 27 41 l 1
 27 42 l 1
31 29 m 1
 29 29 l 1
 29 31 l 1
 31 31 l 1
 31 29 l 1
36 31 m 1
 34 31 l 1
 34 33 l 1
 36 33 l 1
 36 31 l 1
31 33 m 1
 29 33 l 1
 29 35 l 1
 31 35 l 1
 31 33 l 1
36 35 m 1
 34 35 l 1
 34 37 l 1
 36 37 l 1
 36 35 l 1
31 41 m 1
 29 41 l 1
 29 43 l 1
 31 43 l 1
 31 41 l 1
49 25 m 1
 47 25 l 1
 47 27 l 1
 49 27 l 1
 49 25 l 1
55 25 m 1
 53 25 l 1
 53 27 l 1
 55 27 l 1
 55 25 l 1
58 25 m 1
 56 25 l 1
 56 27 l 1
 57 27 l 1
 57 26 l 1
 58 26 l 1
 58 25 l 1
59 26 m 1
 58 26 l 1
 58 27 l 1
 60 27 l 1
 60 25 l 1
 59 25 l 1
 59 26 l 1
63 25 m 1
 61 25 l 1
 61 27 l 1
 63 27 l 1
 63 25 l 1
49 29 m 1
 47 29 l 1
 47 31 l 1
 49 31 l 1
 49 29 l 1
49 33 m 1
 47 33 l 1
 47 35 l 1
 49 35 l 1
 49 33 l 1
55 33 m 1
 53 33 l 1
 53 35 l 1
 55 35 l 1
 55 33 l 1
57 33 m 1
 56 33 l 1
 56 35 l 1
 58 35 l 1
 58 34 l 1
 57 34 l 1
 57 33 l 1
60 33 m 1
 58 33 l 1
 58 34 l 1
 59 34 l 1
 59 35 l 1
 60 35 l 1
 60 33 l 1
49 37 m 1
 47 37 l 1
 47 39 l 1
 49 39 l 1
 49 37 l 1
49 41 m 1
 47 41 l 1
 47 43 l 1
 49 43 l 1
 49 41 l 1
55 41 m 1
 53 41 l 1
 53 43 l 1
 55 43 l 1
 55 41 l 1
58 41 m 1
 56 41 l 1
 56 43 l 1
 57 43 l 1
 57 42 l 1
 58 42 l 1
 58 41 l 1
59 42 m 1
 58 42 l 1
 58 43 l 1
 60 43 l 1
 60 41 l 1
 59 41 l 1
 59 42 l 1
63 29 m 1
 61 29 l 1
 61 31 l 1
 63 31 l 1
 63 29 l 1
63 33 m 1
 61 33 l 1
 61 35 l 1
 63 35 l 1
 63 33 l 1
63 37 m 1
 61 37 l 1
 61 39 l 1
 63 39 l 1
 63 37 l 1
63 41 m 1
 61 41 l 1
 61 43 l 1
 63 43 l 1
 63 41 l 1
EndSplineSet
Ligature2: "'liga' Standard Ligatures in Latin lookup 0-1" one three zero two two
LCarets2: 1 0
EndChar

StartChar: custom_1_3_0_2_3
Encoding: 4179 -1 3934
Width: 70
Flags: H
LayerCount: 2
Fore
SplineSet
17 25 m 1
 15 25 l 1
 15 27 l 1
 17 27 l 1
 17 25 l 1
23 25 m 1
 21 25 l 1
 21 27 l 1
 23 27 l 1
 23 25 l 1
26 25 m 1
 24 25 l 1
 24 27 l 1
 25 27 l 1
 25 26 l 1
 26 26 l 1
 26 25 l 1
27 26 m 1
 26 26 l 1
 26 27 l 1
 28 27 l 1
 28 25 l 1
 27 25 l 1
 27 26 l 1
31 25 m 1
 29 25 l 1
 29 27 l 1
 31 27 l 1
 31 25 l 1
17 29 m 1
 15 29 l 1
 15 31 l 1
 17 31 l 1
 17 29 l 1
17 33 m 1
 15 33 l 1
 15 35 l 1
 17 35 l 1
 17 33 l 1
23 33 m 1
 21 33 l 1
 21 35 l 1
 23 35 l 1
 23 33 l 1
25 33 m 1
 24 33 l 1
 24 35 l 1
 26 35 l 1
 26 34 l 1
 25 34 l 1
 25 33 l 1
28 33 m 1
 26 33 l 1
 26 34 l 1
 27 34 l 1
 27 35 l 1
 28 35 l 1
 28 33 l 1
17 37 m 1
 15 37 l 1
 15 39 l 1
 17 39 l 1
 17 37 l 1
17 41 m 1
 15 41 l 1
 15 43 l 1
 17 43 l 1
 17 41 l 1
23 37 m 1
 21 37 l 1
 21 39 l 1
 23 39 l 1
 23 37 l 1
23 41 m 1
 21 41 l 1
 21 43 l 1
 23 43 l 1
 23 41 l 1
26 41 m 1
 24 41 l 1
 24 43 l 1
 25 43 l 1
 25 42 l 1
 26 42 l 1
 26 41 l 1
27 42 m 1
 26 42 l 1
 26 43 l 1
 28 43 l 1
 28 41 l 1
 27 41 l 1
 27 42 l 1
31 29 m 1
 29 29 l 1
 29 31 l 1
 31 31 l 1
 31 29 l 1
36 31 m 1
 34 31 l 1
 34 33 l 1
 36 33 l 1
 36 31 l 1
31 33 m 1
 29 33 l 1
 29 35 l 1
 31 35 l 1
 31 33 l 1
36 35 m 1
 34 35 l 1
 34 37 l 1
 36 37 l 1
 36 35 l 1
31 41 m 1
 29 41 l 1
 29 43 l 1
 31 43 l 1
 31 41 l 1
49 25 m 1
 47 25 l 1
 47 27 l 1
 49 27 l 1
 49 25 l 1
55 25 m 1
 53 25 l 1
 53 27 l 1
 55 27 l 1
 55 25 l 1
58 25 m 1
 56 25 l 1
 56 27 l 1
 57 27 l 1
 57 26 l 1
 58 26 l 1
 58 25 l 1
59 26 m 1
 58 26 l 1
 58 27 l 1
 60 27 l 1
 60 25 l 1
 59 25 l 1
 59 26 l 1
63 25 m 1
 61 25 l 1
 61 27 l 1
 63 27 l 1
 63 25 l 1
49 29 m 1
 47 29 l 1
 47 31 l 1
 49 31 l 1
 49 29 l 1
49 33 m 1
 47 33 l 1
 47 35 l 1
 49 35 l 1
 49 33 l 1
55 33 m 1
 53 33 l 1
 53 35 l 1
 55 35 l 1
 55 33 l 1
57 33 m 1
 56 33 l 1
 56 35 l 1
 58 35 l 1
 58 34 l 1
 57 34 l 1
 57 33 l 1
60 33 m 1
 58 33 l 1
 58 34 l 1
 59 34 l 1
 59 35 l 1
 60 35 l 1
 60 33 l 1
49 37 m 1
 47 37 l 1
 47 39 l 1
 49 39 l 1
 49 37 l 1
49 41 m 1
 47 41 l 1
 47 43 l 1
 49 43 l 1
 49 41 l 1
55 41 m 1
 53 41 l 1
 53 43 l 1
 55 43 l 1
 55 41 l 1
58 41 m 1
 56 41 l 1
 56 43 l 1
 57 43 l 1
 57 42 l 1
 58 42 l 1
 58 41 l 1
59 42 m 1
 58 42 l 1
 58 43 l 1
 60 43 l 1
 60 41 l 1
 59 41 l 1
 59 42 l 1
63 29 m 1
 61 29 l 1
 61 31 l 1
 63 31 l 1
 63 29 l 1
63 33 m 1
 61 33 l 1
 61 35 l 1
 63 35 l 1
 63 33 l 1
63 37 m 1
 61 37 l 1
 61 39 l 1
 63 39 l 1
 63 37 l 1
63 41 m 1
 61 41 l 1
 61 43 l 1
 63 43 l 1
 63 41 l 1
EndSplineSet
Ligature2: "'liga' Standard Ligatures in Latin lookup 0-1" one three zero two three
LCarets2: 1 0
EndChar

StartChar: custom_1_3_0_2_4
Encoding: 4180 -1 3935
Width: 70
Flags: H
LayerCount: 2
Fore
SplineSet
17 25 m 1
 15 25 l 1
 15 27 l 1
 17 27 l 1
 17 25 l 1
23 25 m 1
 21 25 l 1
 21 27 l 1
 23 27 l 1
 23 25 l 1
26 25 m 1
 24 25 l 1
 24 27 l 1
 25 27 l 1
 25 26 l 1
 26 26 l 1
 26 25 l 1
27 26 m 1
 26 26 l 1
 26 27 l 1
 28 27 l 1
 28 25 l 1
 27 25 l 1
 27 26 l 1
31 25 m 1
 29 25 l 1
 29 27 l 1
 31 27 l 1
 31 25 l 1
17 29 m 1
 15 29 l 1
 15 31 l 1
 17 31 l 1
 17 29 l 1
17 33 m 1
 15 33 l 1
 15 35 l 1
 17 35 l 1
 17 33 l 1
23 33 m 1
 21 33 l 1
 21 35 l 1
 23 35 l 1
 23 33 l 1
25 33 m 1
 24 33 l 1
 24 35 l 1
 26 35 l 1
 26 34 l 1
 25 34 l 1
 25 33 l 1
28 33 m 1
 26 33 l 1
 26 34 l 1
 27 34 l 1
 27 35 l 1
 28 35 l 1
 28 33 l 1
17 37 m 1
 15 37 l 1
 15 39 l 1
 17 39 l 1
 17 37 l 1
17 41 m 1
 15 41 l 1
 15 43 l 1
 17 43 l 1
 17 41 l 1
23 37 m 1
 21 37 l 1
 21 39 l 1
 23 39 l 1
 23 37 l 1
23 41 m 1
 21 41 l 1
 21 43 l 1
 23 43 l 1
 23 41 l 1
26 41 m 1
 24 41 l 1
 24 43 l 1
 25 43 l 1
 25 42 l 1
 26 42 l 1
 26 41 l 1
27 42 m 1
 26 42 l 1
 26 43 l 1
 28 43 l 1
 28 41 l 1
 27 41 l 1
 27 42 l 1
31 29 m 1
 29 29 l 1
 29 31 l 1
 31 31 l 1
 31 29 l 1
36 31 m 1
 34 31 l 1
 34 33 l 1
 36 33 l 1
 36 31 l 1
31 33 m 1
 29 33 l 1
 29 35 l 1
 31 35 l 1
 31 33 l 1
36 35 m 1
 34 35 l 1
 34 37 l 1
 36 37 l 1
 36 35 l 1
31 41 m 1
 29 41 l 1
 29 43 l 1
 31 43 l 1
 31 41 l 1
49 25 m 1
 47 25 l 1
 47 27 l 1
 49 27 l 1
 49 25 l 1
55 25 m 1
 53 25 l 1
 53 27 l 1
 55 27 l 1
 55 25 l 1
58 25 m 1
 56 25 l 1
 56 27 l 1
 57 27 l 1
 57 26 l 1
 58 26 l 1
 58 25 l 1
59 26 m 1
 58 26 l 1
 58 27 l 1
 60 27 l 1
 60 25 l 1
 59 25 l 1
 59 26 l 1
63 25 m 1
 61 25 l 1
 61 27 l 1
 63 27 l 1
 63 25 l 1
49 29 m 1
 47 29 l 1
 47 31 l 1
 49 31 l 1
 49 29 l 1
49 33 m 1
 47 33 l 1
 47 35 l 1
 49 35 l 1
 49 33 l 1
55 33 m 1
 53 33 l 1
 53 35 l 1
 55 35 l 1
 55 33 l 1
57 33 m 1
 56 33 l 1
 56 35 l 1
 58 35 l 1
 58 34 l 1
 57 34 l 1
 57 33 l 1
60 33 m 1
 58 33 l 1
 58 34 l 1
 59 34 l 1
 59 35 l 1
 60 35 l 1
 60 33 l 1
49 37 m 1
 47 37 l 1
 47 39 l 1
 49 39 l 1
 49 37 l 1
49 41 m 1
 47 41 l 1
 47 43 l 1
 49 43 l 1
 49 41 l 1
55 41 m 1
 53 41 l 1
 53 43 l 1
 55 43 l 1
 55 41 l 1
58 41 m 1
 56 41 l 1
 56 43 l 1
 57 43 l 1
 57 42 l 1
 58 42 l 1
 58 41 l 1
59 42 m 1
 58 42 l 1
 58 43 l 1
 60 43 l 1
 60 41 l 1
 59 41 l 1
 59 42 l 1
63 29 m 1
 61 29 l 1
 61 31 l 1
 63 31 l 1
 63 29 l 1
63 33 m 1
 61 33 l 1
 61 35 l 1
 63 35 l 1
 63 33 l 1
63 37 m 1
 61 37 l 1
 61 39 l 1
 63 39 l 1
 63 37 l 1
63 41 m 1
 61 41 l 1
 61 43 l 1
 63 43 l 1
 63 41 l 1
EndSplineSet
Ligature2: "'liga' Standard Ligatures in Latin lookup 0-1" one three zero two four
LCarets2: 1 0
EndChar

StartChar: custom_1_3_0_2_5
Encoding: 4181 -1 3936
Width: 70
Flags: H
LayerCount: 2
Fore
SplineSet
17 25 m 1
 15 25 l 1
 15 27 l 1
 17 27 l 1
 17 25 l 1
23 25 m 1
 21 25 l 1
 21 27 l 1
 23 27 l 1
 23 25 l 1
26 25 m 1
 24 25 l 1
 24 27 l 1
 25 27 l 1
 25 26 l 1
 26 26 l 1
 26 25 l 1
27 26 m 1
 26 26 l 1
 26 27 l 1
 28 27 l 1
 28 25 l 1
 27 25 l 1
 27 26 l 1
31 25 m 1
 29 25 l 1
 29 27 l 1
 31 27 l 1
 31 25 l 1
17 29 m 1
 15 29 l 1
 15 31 l 1
 17 31 l 1
 17 29 l 1
17 33 m 1
 15 33 l 1
 15 35 l 1
 17 35 l 1
 17 33 l 1
23 33 m 1
 21 33 l 1
 21 35 l 1
 23 35 l 1
 23 33 l 1
25 33 m 1
 24 33 l 1
 24 35 l 1
 26 35 l 1
 26 34 l 1
 25 34 l 1
 25 33 l 1
28 33 m 1
 26 33 l 1
 26 34 l 1
 27 34 l 1
 27 35 l 1
 28 35 l 1
 28 33 l 1
17 37 m 1
 15 37 l 1
 15 39 l 1
 17 39 l 1
 17 37 l 1
17 41 m 1
 15 41 l 1
 15 43 l 1
 17 43 l 1
 17 41 l 1
23 37 m 1
 21 37 l 1
 21 39 l 1
 23 39 l 1
 23 37 l 1
23 41 m 1
 21 41 l 1
 21 43 l 1
 23 43 l 1
 23 41 l 1
26 41 m 1
 24 41 l 1
 24 43 l 1
 25 43 l 1
 25 42 l 1
 26 42 l 1
 26 41 l 1
27 42 m 1
 26 42 l 1
 26 43 l 1
 28 43 l 1
 28 41 l 1
 27 41 l 1
 27 42 l 1
31 29 m 1
 29 29 l 1
 29 31 l 1
 31 31 l 1
 31 29 l 1
36 31 m 1
 34 31 l 1
 34 33 l 1
 36 33 l 1
 36 31 l 1
31 33 m 1
 29 33 l 1
 29 35 l 1
 31 35 l 1
 31 33 l 1
36 35 m 1
 34 35 l 1
 34 37 l 1
 36 37 l 1
 36 35 l 1
31 41 m 1
 29 41 l 1
 29 43 l 1
 31 43 l 1
 31 41 l 1
49 25 m 1
 47 25 l 1
 47 27 l 1
 49 27 l 1
 49 25 l 1
55 25 m 1
 53 25 l 1
 53 27 l 1
 55 27 l 1
 55 25 l 1
58 25 m 1
 56 25 l 1
 56 27 l 1
 57 27 l 1
 57 26 l 1
 58 26 l 1
 58 25 l 1
59 26 m 1
 58 26 l 1
 58 27 l 1
 60 27 l 1
 60 25 l 1
 59 25 l 1
 59 26 l 1
63 25 m 1
 61 25 l 1
 61 27 l 1
 63 27 l 1
 63 25 l 1
49 29 m 1
 47 29 l 1
 47 31 l 1
 49 31 l 1
 49 29 l 1
49 33 m 1
 47 33 l 1
 47 35 l 1
 49 35 l 1
 49 33 l 1
55 33 m 1
 53 33 l 1
 53 35 l 1
 55 35 l 1
 55 33 l 1
57 33 m 1
 56 33 l 1
 56 35 l 1
 58 35 l 1
 58 34 l 1
 57 34 l 1
 57 33 l 1
60 33 m 1
 58 33 l 1
 58 34 l 1
 59 34 l 1
 59 35 l 1
 60 35 l 1
 60 33 l 1
49 37 m 1
 47 37 l 1
 47 39 l 1
 49 39 l 1
 49 37 l 1
49 41 m 1
 47 41 l 1
 47 43 l 1
 49 43 l 1
 49 41 l 1
55 41 m 1
 53 41 l 1
 53 43 l 1
 55 43 l 1
 55 41 l 1
58 41 m 1
 56 41 l 1
 56 43 l 1
 57 43 l 1
 57 42 l 1
 58 42 l 1
 58 41 l 1
59 42 m 1
 58 42 l 1
 58 43 l 1
 60 43 l 1
 60 41 l 1
 59 41 l 1
 59 42 l 1
63 29 m 1
 61 29 l 1
 61 31 l 1
 63 31 l 1
 63 29 l 1
63 33 m 1
 61 33 l 1
 61 35 l 1
 63 35 l 1
 63 33 l 1
63 37 m 1
 61 37 l 1
 61 39 l 1
 63 39 l 1
 63 37 l 1
63 41 m 1
 61 41 l 1
 61 43 l 1
 63 43 l 1
 63 41 l 1
EndSplineSet
Ligature2: "'liga' Standard Ligatures in Latin lookup 0-1" one three zero two five
LCarets2: 1 0
EndChar

StartChar: custom_1_3_0_2_6
Encoding: 4182 -1 3937
Width: 70
Flags: H
LayerCount: 2
Fore
SplineSet
17 25 m 1
 15 25 l 1
 15 27 l 1
 17 27 l 1
 17 25 l 1
23 25 m 1
 21 25 l 1
 21 27 l 1
 23 27 l 1
 23 25 l 1
26 25 m 1
 24 25 l 1
 24 27 l 1
 25 27 l 1
 25 26 l 1
 26 26 l 1
 26 25 l 1
27 26 m 1
 26 26 l 1
 26 27 l 1
 28 27 l 1
 28 25 l 1
 27 25 l 1
 27 26 l 1
31 25 m 1
 29 25 l 1
 29 27 l 1
 31 27 l 1
 31 25 l 1
17 29 m 1
 15 29 l 1
 15 31 l 1
 17 31 l 1
 17 29 l 1
17 33 m 1
 15 33 l 1
 15 35 l 1
 17 35 l 1
 17 33 l 1
23 33 m 1
 21 33 l 1
 21 35 l 1
 23 35 l 1
 23 33 l 1
25 33 m 1
 24 33 l 1
 24 35 l 1
 26 35 l 1
 26 34 l 1
 25 34 l 1
 25 33 l 1
28 33 m 1
 26 33 l 1
 26 34 l 1
 27 34 l 1
 27 35 l 1
 28 35 l 1
 28 33 l 1
17 37 m 1
 15 37 l 1
 15 39 l 1
 17 39 l 1
 17 37 l 1
17 41 m 1
 15 41 l 1
 15 43 l 1
 17 43 l 1
 17 41 l 1
23 37 m 1
 21 37 l 1
 21 39 l 1
 23 39 l 1
 23 37 l 1
23 41 m 1
 21 41 l 1
 21 43 l 1
 23 43 l 1
 23 41 l 1
26 41 m 1
 24 41 l 1
 24 43 l 1
 25 43 l 1
 25 42 l 1
 26 42 l 1
 26 41 l 1
27 42 m 1
 26 42 l 1
 26 43 l 1
 28 43 l 1
 28 41 l 1
 27 41 l 1
 27 42 l 1
31 29 m 1
 29 29 l 1
 29 31 l 1
 31 31 l 1
 31 29 l 1
36 31 m 1
 34 31 l 1
 34 33 l 1
 36 33 l 1
 36 31 l 1
31 33 m 1
 29 33 l 1
 29 35 l 1
 31 35 l 1
 31 33 l 1
36 35 m 1
 34 35 l 1
 34 37 l 1
 36 37 l 1
 36 35 l 1
31 41 m 1
 29 41 l 1
 29 43 l 1
 31 43 l 1
 31 41 l 1
49 25 m 1
 47 25 l 1
 47 27 l 1
 49 27 l 1
 49 25 l 1
55 25 m 1
 53 25 l 1
 53 27 l 1
 55 27 l 1
 55 25 l 1
58 25 m 1
 56 25 l 1
 56 27 l 1
 57 27 l 1
 57 26 l 1
 58 26 l 1
 58 25 l 1
59 26 m 1
 58 26 l 1
 58 27 l 1
 60 27 l 1
 60 25 l 1
 59 25 l 1
 59 26 l 1
63 25 m 1
 61 25 l 1
 61 27 l 1
 63 27 l 1
 63 25 l 1
49 29 m 1
 47 29 l 1
 47 31 l 1
 49 31 l 1
 49 29 l 1
49 33 m 1
 47 33 l 1
 47 35 l 1
 49 35 l 1
 49 33 l 1
55 33 m 1
 53 33 l 1
 53 35 l 1
 55 35 l 1
 55 33 l 1
57 33 m 1
 56 33 l 1
 56 35 l 1
 58 35 l 1
 58 34 l 1
 57 34 l 1
 57 33 l 1
60 33 m 1
 58 33 l 1
 58 34 l 1
 59 34 l 1
 59 35 l 1
 60 35 l 1
 60 33 l 1
49 37 m 1
 47 37 l 1
 47 39 l 1
 49 39 l 1
 49 37 l 1
49 41 m 1
 47 41 l 1
 47 43 l 1
 49 43 l 1
 49 41 l 1
55 41 m 1
 53 41 l 1
 53 43 l 1
 55 43 l 1
 55 41 l 1
58 41 m 1
 56 41 l 1
 56 43 l 1
 57 43 l 1
 57 42 l 1
 58 42 l 1
 58 41 l 1
59 42 m 1
 58 42 l 1
 58 43 l 1
 60 43 l 1
 60 41 l 1
 59 41 l 1
 59 42 l 1
63 29 m 1
 61 29 l 1
 61 31 l 1
 63 31 l 1
 63 29 l 1
63 33 m 1
 61 33 l 1
 61 35 l 1
 63 35 l 1
 63 33 l 1
63 37 m 1
 61 37 l 1
 61 39 l 1
 63 39 l 1
 63 37 l 1
63 41 m 1
 61 41 l 1
 61 43 l 1
 63 43 l 1
 63 41 l 1
EndSplineSet
Ligature2: "'liga' Standard Ligatures in Latin lookup 0-1" one three zero two six
LCarets2: 1 0
EndChar

StartChar: custom_1_3_0_2_7
Encoding: 4183 -1 3938
Width: 70
Flags: H
LayerCount: 2
Fore
SplineSet
17 25 m 1
 15 25 l 1
 15 27 l 1
 17 27 l 1
 17 25 l 1
23 25 m 1
 21 25 l 1
 21 27 l 1
 23 27 l 1
 23 25 l 1
26 25 m 1
 24 25 l 1
 24 27 l 1
 25 27 l 1
 25 26 l 1
 26 26 l 1
 26 25 l 1
27 26 m 1
 26 26 l 1
 26 27 l 1
 28 27 l 1
 28 25 l 1
 27 25 l 1
 27 26 l 1
31 25 m 1
 29 25 l 1
 29 27 l 1
 31 27 l 1
 31 25 l 1
17 29 m 1
 15 29 l 1
 15 31 l 1
 17 31 l 1
 17 29 l 1
17 33 m 1
 15 33 l 1
 15 35 l 1
 17 35 l 1
 17 33 l 1
23 33 m 1
 21 33 l 1
 21 35 l 1
 23 35 l 1
 23 33 l 1
25 33 m 1
 24 33 l 1
 24 35 l 1
 26 35 l 1
 26 34 l 1
 25 34 l 1
 25 33 l 1
28 33 m 1
 26 33 l 1
 26 34 l 1
 27 34 l 1
 27 35 l 1
 28 35 l 1
 28 33 l 1
17 37 m 1
 15 37 l 1
 15 39 l 1
 17 39 l 1
 17 37 l 1
17 41 m 1
 15 41 l 1
 15 43 l 1
 17 43 l 1
 17 41 l 1
23 37 m 1
 21 37 l 1
 21 39 l 1
 23 39 l 1
 23 37 l 1
23 41 m 1
 21 41 l 1
 21 43 l 1
 23 43 l 1
 23 41 l 1
26 41 m 1
 24 41 l 1
 24 43 l 1
 25 43 l 1
 25 42 l 1
 26 42 l 1
 26 41 l 1
27 42 m 1
 26 42 l 1
 26 43 l 1
 28 43 l 1
 28 41 l 1
 27 41 l 1
 27 42 l 1
31 29 m 1
 29 29 l 1
 29 31 l 1
 31 31 l 1
 31 29 l 1
36 31 m 1
 34 31 l 1
 34 33 l 1
 36 33 l 1
 36 31 l 1
31 33 m 1
 29 33 l 1
 29 35 l 1
 31 35 l 1
 31 33 l 1
36 35 m 1
 34 35 l 1
 34 37 l 1
 36 37 l 1
 36 35 l 1
31 41 m 1
 29 41 l 1
 29 43 l 1
 31 43 l 1
 31 41 l 1
49 25 m 1
 47 25 l 1
 47 27 l 1
 49 27 l 1
 49 25 l 1
55 25 m 1
 53 25 l 1
 53 27 l 1
 55 27 l 1
 55 25 l 1
58 25 m 1
 56 25 l 1
 56 27 l 1
 57 27 l 1
 57 26 l 1
 58 26 l 1
 58 25 l 1
59 26 m 1
 58 26 l 1
 58 27 l 1
 60 27 l 1
 60 25 l 1
 59 25 l 1
 59 26 l 1
63 25 m 1
 61 25 l 1
 61 27 l 1
 63 27 l 1
 63 25 l 1
49 29 m 1
 47 29 l 1
 47 31 l 1
 49 31 l 1
 49 29 l 1
49 33 m 1
 47 33 l 1
 47 35 l 1
 49 35 l 1
 49 33 l 1
55 33 m 1
 53 33 l 1
 53 35 l 1
 55 35 l 1
 55 33 l 1
57 33 m 1
 56 33 l 1
 56 35 l 1
 58 35 l 1
 58 34 l 1
 57 34 l 1
 57 33 l 1
60 33 m 1
 58 33 l 1
 58 34 l 1
 59 34 l 1
 59 35 l 1
 60 35 l 1
 60 33 l 1
49 37 m 1
 47 37 l 1
 47 39 l 1
 49 39 l 1
 49 37 l 1
49 41 m 1
 47 41 l 1
 47 43 l 1
 49 43 l 1
 49 41 l 1
55 41 m 1
 53 41 l 1
 53 43 l 1
 55 43 l 1
 55 41 l 1
58 41 m 1
 56 41 l 1
 56 43 l 1
 57 43 l 1
 57 42 l 1
 58 42 l 1
 58 41 l 1
59 42 m 1
 58 42 l 1
 58 43 l 1
 60 43 l 1
 60 41 l 1
 59 41 l 1
 59 42 l 1
63 29 m 1
 61 29 l 1
 61 31 l 1
 63 31 l 1
 63 29 l 1
63 33 m 1
 61 33 l 1
 61 35 l 1
 63 35 l 1
 63 33 l 1
63 37 m 1
 61 37 l 1
 61 39 l 1
 63 39 l 1
 63 37 l 1
63 41 m 1
 61 41 l 1
 61 43 l 1
 63 43 l 1
 63 41 l 1
EndSplineSet
Ligature2: "'liga' Standard Ligatures in Latin lookup 0-1" one three zero two seven
LCarets2: 1 0
EndChar

StartChar: custom_1_3_0_2_8
Encoding: 4184 -1 3939
Width: 70
Flags: H
LayerCount: 2
Fore
SplineSet
17 25 m 1
 15 25 l 1
 15 27 l 1
 17 27 l 1
 17 25 l 1
23 25 m 1
 21 25 l 1
 21 27 l 1
 23 27 l 1
 23 25 l 1
26 25 m 1
 24 25 l 1
 24 27 l 1
 25 27 l 1
 25 26 l 1
 26 26 l 1
 26 25 l 1
27 26 m 1
 26 26 l 1
 26 27 l 1
 28 27 l 1
 28 25 l 1
 27 25 l 1
 27 26 l 1
31 25 m 1
 29 25 l 1
 29 27 l 1
 31 27 l 1
 31 25 l 1
17 29 m 1
 15 29 l 1
 15 31 l 1
 17 31 l 1
 17 29 l 1
17 33 m 1
 15 33 l 1
 15 35 l 1
 17 35 l 1
 17 33 l 1
23 33 m 1
 21 33 l 1
 21 35 l 1
 23 35 l 1
 23 33 l 1
25 33 m 1
 24 33 l 1
 24 35 l 1
 26 35 l 1
 26 34 l 1
 25 34 l 1
 25 33 l 1
28 33 m 1
 26 33 l 1
 26 34 l 1
 27 34 l 1
 27 35 l 1
 28 35 l 1
 28 33 l 1
17 37 m 1
 15 37 l 1
 15 39 l 1
 17 39 l 1
 17 37 l 1
17 41 m 1
 15 41 l 1
 15 43 l 1
 17 43 l 1
 17 41 l 1
23 37 m 1
 21 37 l 1
 21 39 l 1
 23 39 l 1
 23 37 l 1
23 41 m 1
 21 41 l 1
 21 43 l 1
 23 43 l 1
 23 41 l 1
26 41 m 1
 24 41 l 1
 24 43 l 1
 25 43 l 1
 25 42 l 1
 26 42 l 1
 26 41 l 1
27 42 m 1
 26 42 l 1
 26 43 l 1
 28 43 l 1
 28 41 l 1
 27 41 l 1
 27 42 l 1
31 29 m 1
 29 29 l 1
 29 31 l 1
 31 31 l 1
 31 29 l 1
36 31 m 1
 34 31 l 1
 34 33 l 1
 36 33 l 1
 36 31 l 1
31 33 m 1
 29 33 l 1
 29 35 l 1
 31 35 l 1
 31 33 l 1
36 35 m 1
 34 35 l 1
 34 37 l 1
 36 37 l 1
 36 35 l 1
31 41 m 1
 29 41 l 1
 29 43 l 1
 31 43 l 1
 31 41 l 1
49 25 m 1
 47 25 l 1
 47 27 l 1
 49 27 l 1
 49 25 l 1
55 25 m 1
 53 25 l 1
 53 27 l 1
 55 27 l 1
 55 25 l 1
58 25 m 1
 56 25 l 1
 56 27 l 1
 57 27 l 1
 57 26 l 1
 58 26 l 1
 58 25 l 1
59 26 m 1
 58 26 l 1
 58 27 l 1
 60 27 l 1
 60 25 l 1
 59 25 l 1
 59 26 l 1
63 25 m 1
 61 25 l 1
 61 27 l 1
 63 27 l 1
 63 25 l 1
49 29 m 1
 47 29 l 1
 47 31 l 1
 49 31 l 1
 49 29 l 1
49 33 m 1
 47 33 l 1
 47 35 l 1
 49 35 l 1
 49 33 l 1
55 33 m 1
 53 33 l 1
 53 35 l 1
 55 35 l 1
 55 33 l 1
57 33 m 1
 56 33 l 1
 56 35 l 1
 58 35 l 1
 58 34 l 1
 57 34 l 1
 57 33 l 1
60 33 m 1
 58 33 l 1
 58 34 l 1
 59 34 l 1
 59 35 l 1
 60 35 l 1
 60 33 l 1
49 37 m 1
 47 37 l 1
 47 39 l 1
 49 39 l 1
 49 37 l 1
49 41 m 1
 47 41 l 1
 47 43 l 1
 49 43 l 1
 49 41 l 1
55 41 m 1
 53 41 l 1
 53 43 l 1
 55 43 l 1
 55 41 l 1
58 41 m 1
 56 41 l 1
 56 43 l 1
 57 43 l 1
 57 42 l 1
 58 42 l 1
 58 41 l 1
59 42 m 1
 58 42 l 1
 58 43 l 1
 60 43 l 1
 60 41 l 1
 59 41 l 1
 59 42 l 1
63 29 m 1
 61 29 l 1
 61 31 l 1
 63 31 l 1
 63 29 l 1
63 33 m 1
 61 33 l 1
 61 35 l 1
 63 35 l 1
 63 33 l 1
63 37 m 1
 61 37 l 1
 61 39 l 1
 63 39 l 1
 63 37 l 1
63 41 m 1
 61 41 l 1
 61 43 l 1
 63 43 l 1
 63 41 l 1
EndSplineSet
Ligature2: "'liga' Standard Ligatures in Latin lookup 0-1" one three zero two eight
LCarets2: 1 0
EndChar

StartChar: custom_1_3_0_2_9
Encoding: 4185 -1 3940
Width: 70
Flags: H
LayerCount: 2
Fore
SplineSet
17 25 m 1
 15 25 l 1
 15 27 l 1
 17 27 l 1
 17 25 l 1
23 25 m 1
 21 25 l 1
 21 27 l 1
 23 27 l 1
 23 25 l 1
26 25 m 1
 24 25 l 1
 24 27 l 1
 25 27 l 1
 25 26 l 1
 26 26 l 1
 26 25 l 1
27 26 m 1
 26 26 l 1
 26 27 l 1
 28 27 l 1
 28 25 l 1
 27 25 l 1
 27 26 l 1
31 25 m 1
 29 25 l 1
 29 27 l 1
 31 27 l 1
 31 25 l 1
17 29 m 1
 15 29 l 1
 15 31 l 1
 17 31 l 1
 17 29 l 1
17 33 m 1
 15 33 l 1
 15 35 l 1
 17 35 l 1
 17 33 l 1
23 33 m 1
 21 33 l 1
 21 35 l 1
 23 35 l 1
 23 33 l 1
25 33 m 1
 24 33 l 1
 24 35 l 1
 26 35 l 1
 26 34 l 1
 25 34 l 1
 25 33 l 1
28 33 m 1
 26 33 l 1
 26 34 l 1
 27 34 l 1
 27 35 l 1
 28 35 l 1
 28 33 l 1
17 37 m 1
 15 37 l 1
 15 39 l 1
 17 39 l 1
 17 37 l 1
17 41 m 1
 15 41 l 1
 15 43 l 1
 17 43 l 1
 17 41 l 1
23 37 m 1
 21 37 l 1
 21 39 l 1
 23 39 l 1
 23 37 l 1
23 41 m 1
 21 41 l 1
 21 43 l 1
 23 43 l 1
 23 41 l 1
26 41 m 1
 24 41 l 1
 24 43 l 1
 25 43 l 1
 25 42 l 1
 26 42 l 1
 26 41 l 1
27 42 m 1
 26 42 l 1
 26 43 l 1
 28 43 l 1
 28 41 l 1
 27 41 l 1
 27 42 l 1
31 29 m 1
 29 29 l 1
 29 31 l 1
 31 31 l 1
 31 29 l 1
36 31 m 1
 34 31 l 1
 34 33 l 1
 36 33 l 1
 36 31 l 1
31 33 m 1
 29 33 l 1
 29 35 l 1
 31 35 l 1
 31 33 l 1
36 35 m 1
 34 35 l 1
 34 37 l 1
 36 37 l 1
 36 35 l 1
31 41 m 1
 29 41 l 1
 29 43 l 1
 31 43 l 1
 31 41 l 1
49 25 m 1
 47 25 l 1
 47 27 l 1
 49 27 l 1
 49 25 l 1
55 25 m 1
 53 25 l 1
 53 27 l 1
 55 27 l 1
 55 25 l 1
58 25 m 1
 56 25 l 1
 56 27 l 1
 57 27 l 1
 57 26 l 1
 58 26 l 1
 58 25 l 1
59 26 m 1
 58 26 l 1
 58 27 l 1
 60 27 l 1
 60 25 l 1
 59 25 l 1
 59 26 l 1
63 25 m 1
 61 25 l 1
 61 27 l 1
 63 27 l 1
 63 25 l 1
49 29 m 1
 47 29 l 1
 47 31 l 1
 49 31 l 1
 49 29 l 1
49 33 m 1
 47 33 l 1
 47 35 l 1
 49 35 l 1
 49 33 l 1
55 33 m 1
 53 33 l 1
 53 35 l 1
 55 35 l 1
 55 33 l 1
57 33 m 1
 56 33 l 1
 56 35 l 1
 58 35 l 1
 58 34 l 1
 57 34 l 1
 57 33 l 1
60 33 m 1
 58 33 l 1
 58 34 l 1
 59 34 l 1
 59 35 l 1
 60 35 l 1
 60 33 l 1
49 37 m 1
 47 37 l 1
 47 39 l 1
 49 39 l 1
 49 37 l 1
49 41 m 1
 47 41 l 1
 47 43 l 1
 49 43 l 1
 49 41 l 1
55 41 m 1
 53 41 l 1
 53 43 l 1
 55 43 l 1
 55 41 l 1
58 41 m 1
 56 41 l 1
 56 43 l 1
 57 43 l 1
 57 42 l 1
 58 42 l 1
 58 41 l 1
59 42 m 1
 58 42 l 1
 58 43 l 1
 60 43 l 1
 60 41 l 1
 59 41 l 1
 59 42 l 1
63 29 m 1
 61 29 l 1
 61 31 l 1
 63 31 l 1
 63 29 l 1
63 33 m 1
 61 33 l 1
 61 35 l 1
 63 35 l 1
 63 33 l 1
63 37 m 1
 61 37 l 1
 61 39 l 1
 63 39 l 1
 63 37 l 1
63 41 m 1
 61 41 l 1
 61 43 l 1
 63 43 l 1
 63 41 l 1
EndSplineSet
Ligature2: "'liga' Standard Ligatures in Latin lookup 0-1" one three zero two nine
LCarets2: 1 0
EndChar

StartChar: custom_1_3_0_3_0
Encoding: 4186 -1 3941
Width: 70
Flags: H
LayerCount: 2
Fore
SplineSet
17 25 m 1
 15 25 l 1
 15 27 l 1
 17 27 l 1
 17 25 l 1
23 25 m 1
 21 25 l 1
 21 27 l 1
 23 27 l 1
 23 25 l 1
26 25 m 1
 24 25 l 1
 24 27 l 1
 25 27 l 1
 25 26 l 1
 26 26 l 1
 26 25 l 1
27 26 m 1
 26 26 l 1
 26 27 l 1
 28 27 l 1
 28 25 l 1
 27 25 l 1
 27 26 l 1
31 25 m 1
 29 25 l 1
 29 27 l 1
 31 27 l 1
 31 25 l 1
17 29 m 1
 15 29 l 1
 15 31 l 1
 17 31 l 1
 17 29 l 1
17 33 m 1
 15 33 l 1
 15 35 l 1
 17 35 l 1
 17 33 l 1
23 33 m 1
 21 33 l 1
 21 35 l 1
 23 35 l 1
 23 33 l 1
25 33 m 1
 24 33 l 1
 24 35 l 1
 26 35 l 1
 26 34 l 1
 25 34 l 1
 25 33 l 1
28 33 m 1
 26 33 l 1
 26 34 l 1
 27 34 l 1
 27 35 l 1
 28 35 l 1
 28 33 l 1
17 37 m 1
 15 37 l 1
 15 39 l 1
 17 39 l 1
 17 37 l 1
17 41 m 1
 15 41 l 1
 15 43 l 1
 17 43 l 1
 17 41 l 1
23 37 m 1
 21 37 l 1
 21 39 l 1
 23 39 l 1
 23 37 l 1
23 41 m 1
 21 41 l 1
 21 43 l 1
 23 43 l 1
 23 41 l 1
26 41 m 1
 24 41 l 1
 24 43 l 1
 25 43 l 1
 25 42 l 1
 26 42 l 1
 26 41 l 1
27 42 m 1
 26 42 l 1
 26 43 l 1
 28 43 l 1
 28 41 l 1
 27 41 l 1
 27 42 l 1
31 29 m 1
 29 29 l 1
 29 31 l 1
 31 31 l 1
 31 29 l 1
36 31 m 1
 34 31 l 1
 34 33 l 1
 36 33 l 1
 36 31 l 1
31 33 m 1
 29 33 l 1
 29 35 l 1
 31 35 l 1
 31 33 l 1
36 35 m 1
 34 35 l 1
 34 37 l 1
 36 37 l 1
 36 35 l 1
31 41 m 1
 29 41 l 1
 29 43 l 1
 31 43 l 1
 31 41 l 1
49 25 m 1
 47 25 l 1
 47 27 l 1
 49 27 l 1
 49 25 l 1
55 25 m 1
 53 25 l 1
 53 27 l 1
 55 27 l 1
 55 25 l 1
58 25 m 1
 56 25 l 1
 56 27 l 1
 57 27 l 1
 57 26 l 1
 58 26 l 1
 58 25 l 1
59 26 m 1
 58 26 l 1
 58 27 l 1
 60 27 l 1
 60 25 l 1
 59 25 l 1
 59 26 l 1
63 25 m 1
 61 25 l 1
 61 27 l 1
 63 27 l 1
 63 25 l 1
49 29 m 1
 47 29 l 1
 47 31 l 1
 49 31 l 1
 49 29 l 1
49 33 m 1
 47 33 l 1
 47 35 l 1
 49 35 l 1
 49 33 l 1
55 33 m 1
 53 33 l 1
 53 35 l 1
 55 35 l 1
 55 33 l 1
57 33 m 1
 56 33 l 1
 56 35 l 1
 58 35 l 1
 58 34 l 1
 57 34 l 1
 57 33 l 1
60 33 m 1
 58 33 l 1
 58 34 l 1
 59 34 l 1
 59 35 l 1
 60 35 l 1
 60 33 l 1
49 37 m 1
 47 37 l 1
 47 39 l 1
 49 39 l 1
 49 37 l 1
49 41 m 1
 47 41 l 1
 47 43 l 1
 49 43 l 1
 49 41 l 1
55 41 m 1
 53 41 l 1
 53 43 l 1
 55 43 l 1
 55 41 l 1
58 41 m 1
 56 41 l 1
 56 43 l 1
 57 43 l 1
 57 42 l 1
 58 42 l 1
 58 41 l 1
59 42 m 1
 58 42 l 1
 58 43 l 1
 60 43 l 1
 60 41 l 1
 59 41 l 1
 59 42 l 1
63 29 m 1
 61 29 l 1
 61 31 l 1
 63 31 l 1
 63 29 l 1
63 33 m 1
 61 33 l 1
 61 35 l 1
 63 35 l 1
 63 33 l 1
63 37 m 1
 61 37 l 1
 61 39 l 1
 63 39 l 1
 63 37 l 1
63 41 m 1
 61 41 l 1
 61 43 l 1
 63 43 l 1
 63 41 l 1
EndSplineSet
Ligature2: "'liga' Standard Ligatures in Latin lookup 0-1" one three zero three zero
LCarets2: 1 0
EndChar

StartChar: custom_1_3_0_3_1
Encoding: 4187 -1 3942
Width: 70
Flags: H
LayerCount: 2
Fore
SplineSet
17 25 m 1
 15 25 l 1
 15 27 l 1
 17 27 l 1
 17 25 l 1
23 25 m 1
 21 25 l 1
 21 27 l 1
 23 27 l 1
 23 25 l 1
26 25 m 1
 24 25 l 1
 24 27 l 1
 25 27 l 1
 25 26 l 1
 26 26 l 1
 26 25 l 1
27 26 m 1
 26 26 l 1
 26 27 l 1
 28 27 l 1
 28 25 l 1
 27 25 l 1
 27 26 l 1
31 25 m 1
 29 25 l 1
 29 27 l 1
 31 27 l 1
 31 25 l 1
17 29 m 1
 15 29 l 1
 15 31 l 1
 17 31 l 1
 17 29 l 1
17 33 m 1
 15 33 l 1
 15 35 l 1
 17 35 l 1
 17 33 l 1
23 33 m 1
 21 33 l 1
 21 35 l 1
 23 35 l 1
 23 33 l 1
25 33 m 1
 24 33 l 1
 24 35 l 1
 26 35 l 1
 26 34 l 1
 25 34 l 1
 25 33 l 1
28 33 m 1
 26 33 l 1
 26 34 l 1
 27 34 l 1
 27 35 l 1
 28 35 l 1
 28 33 l 1
17 37 m 1
 15 37 l 1
 15 39 l 1
 17 39 l 1
 17 37 l 1
17 41 m 1
 15 41 l 1
 15 43 l 1
 17 43 l 1
 17 41 l 1
23 37 m 1
 21 37 l 1
 21 39 l 1
 23 39 l 1
 23 37 l 1
23 41 m 1
 21 41 l 1
 21 43 l 1
 23 43 l 1
 23 41 l 1
26 41 m 1
 24 41 l 1
 24 43 l 1
 25 43 l 1
 25 42 l 1
 26 42 l 1
 26 41 l 1
27 42 m 1
 26 42 l 1
 26 43 l 1
 28 43 l 1
 28 41 l 1
 27 41 l 1
 27 42 l 1
31 29 m 1
 29 29 l 1
 29 31 l 1
 31 31 l 1
 31 29 l 1
36 31 m 1
 34 31 l 1
 34 33 l 1
 36 33 l 1
 36 31 l 1
31 33 m 1
 29 33 l 1
 29 35 l 1
 31 35 l 1
 31 33 l 1
36 35 m 1
 34 35 l 1
 34 37 l 1
 36 37 l 1
 36 35 l 1
31 41 m 1
 29 41 l 1
 29 43 l 1
 31 43 l 1
 31 41 l 1
49 25 m 1
 47 25 l 1
 47 27 l 1
 49 27 l 1
 49 25 l 1
55 25 m 1
 53 25 l 1
 53 27 l 1
 55 27 l 1
 55 25 l 1
58 25 m 1
 56 25 l 1
 56 27 l 1
 57 27 l 1
 57 26 l 1
 58 26 l 1
 58 25 l 1
59 26 m 1
 58 26 l 1
 58 27 l 1
 60 27 l 1
 60 25 l 1
 59 25 l 1
 59 26 l 1
63 25 m 1
 61 25 l 1
 61 27 l 1
 63 27 l 1
 63 25 l 1
49 29 m 1
 47 29 l 1
 47 31 l 1
 49 31 l 1
 49 29 l 1
49 33 m 1
 47 33 l 1
 47 35 l 1
 49 35 l 1
 49 33 l 1
55 33 m 1
 53 33 l 1
 53 35 l 1
 55 35 l 1
 55 33 l 1
57 33 m 1
 56 33 l 1
 56 35 l 1
 58 35 l 1
 58 34 l 1
 57 34 l 1
 57 33 l 1
60 33 m 1
 58 33 l 1
 58 34 l 1
 59 34 l 1
 59 35 l 1
 60 35 l 1
 60 33 l 1
49 37 m 1
 47 37 l 1
 47 39 l 1
 49 39 l 1
 49 37 l 1
49 41 m 1
 47 41 l 1
 47 43 l 1
 49 43 l 1
 49 41 l 1
55 41 m 1
 53 41 l 1
 53 43 l 1
 55 43 l 1
 55 41 l 1
58 41 m 1
 56 41 l 1
 56 43 l 1
 57 43 l 1
 57 42 l 1
 58 42 l 1
 58 41 l 1
59 42 m 1
 58 42 l 1
 58 43 l 1
 60 43 l 1
 60 41 l 1
 59 41 l 1
 59 42 l 1
63 29 m 1
 61 29 l 1
 61 31 l 1
 63 31 l 1
 63 29 l 1
63 33 m 1
 61 33 l 1
 61 35 l 1
 63 35 l 1
 63 33 l 1
63 37 m 1
 61 37 l 1
 61 39 l 1
 63 39 l 1
 63 37 l 1
63 41 m 1
 61 41 l 1
 61 43 l 1
 63 43 l 1
 63 41 l 1
EndSplineSet
Ligature2: "'liga' Standard Ligatures in Latin lookup 0-1" one three zero three one
LCarets2: 1 0
EndChar

StartChar: custom_1_3_0_3_2
Encoding: 4188 -1 3943
Width: 70
Flags: H
LayerCount: 2
Fore
SplineSet
17 25 m 1
 15 25 l 1
 15 27 l 1
 17 27 l 1
 17 25 l 1
23 25 m 1
 21 25 l 1
 21 27 l 1
 23 27 l 1
 23 25 l 1
26 25 m 1
 24 25 l 1
 24 27 l 1
 25 27 l 1
 25 26 l 1
 26 26 l 1
 26 25 l 1
27 26 m 1
 26 26 l 1
 26 27 l 1
 28 27 l 1
 28 25 l 1
 27 25 l 1
 27 26 l 1
31 25 m 1
 29 25 l 1
 29 27 l 1
 31 27 l 1
 31 25 l 1
17 29 m 1
 15 29 l 1
 15 31 l 1
 17 31 l 1
 17 29 l 1
17 33 m 1
 15 33 l 1
 15 35 l 1
 17 35 l 1
 17 33 l 1
23 33 m 1
 21 33 l 1
 21 35 l 1
 23 35 l 1
 23 33 l 1
25 33 m 1
 24 33 l 1
 24 35 l 1
 26 35 l 1
 26 34 l 1
 25 34 l 1
 25 33 l 1
28 33 m 1
 26 33 l 1
 26 34 l 1
 27 34 l 1
 27 35 l 1
 28 35 l 1
 28 33 l 1
17 37 m 1
 15 37 l 1
 15 39 l 1
 17 39 l 1
 17 37 l 1
17 41 m 1
 15 41 l 1
 15 43 l 1
 17 43 l 1
 17 41 l 1
23 37 m 1
 21 37 l 1
 21 39 l 1
 23 39 l 1
 23 37 l 1
23 41 m 1
 21 41 l 1
 21 43 l 1
 23 43 l 1
 23 41 l 1
26 41 m 1
 24 41 l 1
 24 43 l 1
 25 43 l 1
 25 42 l 1
 26 42 l 1
 26 41 l 1
27 42 m 1
 26 42 l 1
 26 43 l 1
 28 43 l 1
 28 41 l 1
 27 41 l 1
 27 42 l 1
31 29 m 1
 29 29 l 1
 29 31 l 1
 31 31 l 1
 31 29 l 1
36 31 m 1
 34 31 l 1
 34 33 l 1
 36 33 l 1
 36 31 l 1
31 33 m 1
 29 33 l 1
 29 35 l 1
 31 35 l 1
 31 33 l 1
36 35 m 1
 34 35 l 1
 34 37 l 1
 36 37 l 1
 36 35 l 1
31 41 m 1
 29 41 l 1
 29 43 l 1
 31 43 l 1
 31 41 l 1
49 25 m 1
 47 25 l 1
 47 27 l 1
 49 27 l 1
 49 25 l 1
55 25 m 1
 53 25 l 1
 53 27 l 1
 55 27 l 1
 55 25 l 1
58 25 m 1
 56 25 l 1
 56 27 l 1
 57 27 l 1
 57 26 l 1
 58 26 l 1
 58 25 l 1
59 26 m 1
 58 26 l 1
 58 27 l 1
 60 27 l 1
 60 25 l 1
 59 25 l 1
 59 26 l 1
63 25 m 1
 61 25 l 1
 61 27 l 1
 63 27 l 1
 63 25 l 1
49 29 m 1
 47 29 l 1
 47 31 l 1
 49 31 l 1
 49 29 l 1
49 33 m 1
 47 33 l 1
 47 35 l 1
 49 35 l 1
 49 33 l 1
55 33 m 1
 53 33 l 1
 53 35 l 1
 55 35 l 1
 55 33 l 1
57 33 m 1
 56 33 l 1
 56 35 l 1
 58 35 l 1
 58 34 l 1
 57 34 l 1
 57 33 l 1
60 33 m 1
 58 33 l 1
 58 34 l 1
 59 34 l 1
 59 35 l 1
 60 35 l 1
 60 33 l 1
49 37 m 1
 47 37 l 1
 47 39 l 1
 49 39 l 1
 49 37 l 1
49 41 m 1
 47 41 l 1
 47 43 l 1
 49 43 l 1
 49 41 l 1
55 41 m 1
 53 41 l 1
 53 43 l 1
 55 43 l 1
 55 41 l 1
58 41 m 1
 56 41 l 1
 56 43 l 1
 57 43 l 1
 57 42 l 1
 58 42 l 1
 58 41 l 1
59 42 m 1
 58 42 l 1
 58 43 l 1
 60 43 l 1
 60 41 l 1
 59 41 l 1
 59 42 l 1
63 29 m 1
 61 29 l 1
 61 31 l 1
 63 31 l 1
 63 29 l 1
63 33 m 1
 61 33 l 1
 61 35 l 1
 63 35 l 1
 63 33 l 1
63 37 m 1
 61 37 l 1
 61 39 l 1
 63 39 l 1
 63 37 l 1
63 41 m 1
 61 41 l 1
 61 43 l 1
 63 43 l 1
 63 41 l 1
EndSplineSet
Ligature2: "'liga' Standard Ligatures in Latin lookup 0-1" one three zero three two
LCarets2: 1 0
EndChar

StartChar: custom_1_3_0_3_3
Encoding: 4189 -1 3944
Width: 70
Flags: H
LayerCount: 2
Fore
SplineSet
17 25 m 1
 15 25 l 1
 15 27 l 1
 17 27 l 1
 17 25 l 1
23 25 m 1
 21 25 l 1
 21 27 l 1
 23 27 l 1
 23 25 l 1
26 25 m 1
 24 25 l 1
 24 27 l 1
 25 27 l 1
 25 26 l 1
 26 26 l 1
 26 25 l 1
27 26 m 1
 26 26 l 1
 26 27 l 1
 28 27 l 1
 28 25 l 1
 27 25 l 1
 27 26 l 1
31 25 m 1
 29 25 l 1
 29 27 l 1
 31 27 l 1
 31 25 l 1
17 29 m 1
 15 29 l 1
 15 31 l 1
 17 31 l 1
 17 29 l 1
17 33 m 1
 15 33 l 1
 15 35 l 1
 17 35 l 1
 17 33 l 1
23 33 m 1
 21 33 l 1
 21 35 l 1
 23 35 l 1
 23 33 l 1
25 33 m 1
 24 33 l 1
 24 35 l 1
 26 35 l 1
 26 34 l 1
 25 34 l 1
 25 33 l 1
28 33 m 1
 26 33 l 1
 26 34 l 1
 27 34 l 1
 27 35 l 1
 28 35 l 1
 28 33 l 1
17 37 m 1
 15 37 l 1
 15 39 l 1
 17 39 l 1
 17 37 l 1
17 41 m 1
 15 41 l 1
 15 43 l 1
 17 43 l 1
 17 41 l 1
23 37 m 1
 21 37 l 1
 21 39 l 1
 23 39 l 1
 23 37 l 1
23 41 m 1
 21 41 l 1
 21 43 l 1
 23 43 l 1
 23 41 l 1
26 41 m 1
 24 41 l 1
 24 43 l 1
 25 43 l 1
 25 42 l 1
 26 42 l 1
 26 41 l 1
27 42 m 1
 26 42 l 1
 26 43 l 1
 28 43 l 1
 28 41 l 1
 27 41 l 1
 27 42 l 1
31 29 m 1
 29 29 l 1
 29 31 l 1
 31 31 l 1
 31 29 l 1
36 31 m 1
 34 31 l 1
 34 33 l 1
 36 33 l 1
 36 31 l 1
31 33 m 1
 29 33 l 1
 29 35 l 1
 31 35 l 1
 31 33 l 1
36 35 m 1
 34 35 l 1
 34 37 l 1
 36 37 l 1
 36 35 l 1
31 41 m 1
 29 41 l 1
 29 43 l 1
 31 43 l 1
 31 41 l 1
49 25 m 1
 47 25 l 1
 47 27 l 1
 49 27 l 1
 49 25 l 1
55 25 m 1
 53 25 l 1
 53 27 l 1
 55 27 l 1
 55 25 l 1
58 25 m 1
 56 25 l 1
 56 27 l 1
 57 27 l 1
 57 26 l 1
 58 26 l 1
 58 25 l 1
59 26 m 1
 58 26 l 1
 58 27 l 1
 60 27 l 1
 60 25 l 1
 59 25 l 1
 59 26 l 1
63 25 m 1
 61 25 l 1
 61 27 l 1
 63 27 l 1
 63 25 l 1
49 29 m 1
 47 29 l 1
 47 31 l 1
 49 31 l 1
 49 29 l 1
49 33 m 1
 47 33 l 1
 47 35 l 1
 49 35 l 1
 49 33 l 1
55 33 m 1
 53 33 l 1
 53 35 l 1
 55 35 l 1
 55 33 l 1
57 33 m 1
 56 33 l 1
 56 35 l 1
 58 35 l 1
 58 34 l 1
 57 34 l 1
 57 33 l 1
60 33 m 1
 58 33 l 1
 58 34 l 1
 59 34 l 1
 59 35 l 1
 60 35 l 1
 60 33 l 1
49 37 m 1
 47 37 l 1
 47 39 l 1
 49 39 l 1
 49 37 l 1
49 41 m 1
 47 41 l 1
 47 43 l 1
 49 43 l 1
 49 41 l 1
55 41 m 1
 53 41 l 1
 53 43 l 1
 55 43 l 1
 55 41 l 1
58 41 m 1
 56 41 l 1
 56 43 l 1
 57 43 l 1
 57 42 l 1
 58 42 l 1
 58 41 l 1
59 42 m 1
 58 42 l 1
 58 43 l 1
 60 43 l 1
 60 41 l 1
 59 41 l 1
 59 42 l 1
63 29 m 1
 61 29 l 1
 61 31 l 1
 63 31 l 1
 63 29 l 1
63 33 m 1
 61 33 l 1
 61 35 l 1
 63 35 l 1
 63 33 l 1
63 37 m 1
 61 37 l 1
 61 39 l 1
 63 39 l 1
 63 37 l 1
63 41 m 1
 61 41 l 1
 61 43 l 1
 63 43 l 1
 63 41 l 1
EndSplineSet
Ligature2: "'liga' Standard Ligatures in Latin lookup 0-1" one three zero three three
LCarets2: 1 0
EndChar

StartChar: custom_1_3_0_3_4
Encoding: 4190 -1 3945
Width: 70
Flags: H
LayerCount: 2
Fore
SplineSet
17 25 m 1
 15 25 l 1
 15 27 l 1
 17 27 l 1
 17 25 l 1
23 25 m 1
 21 25 l 1
 21 27 l 1
 23 27 l 1
 23 25 l 1
26 25 m 1
 24 25 l 1
 24 27 l 1
 25 27 l 1
 25 26 l 1
 26 26 l 1
 26 25 l 1
27 26 m 1
 26 26 l 1
 26 27 l 1
 28 27 l 1
 28 25 l 1
 27 25 l 1
 27 26 l 1
31 25 m 1
 29 25 l 1
 29 27 l 1
 31 27 l 1
 31 25 l 1
17 29 m 1
 15 29 l 1
 15 31 l 1
 17 31 l 1
 17 29 l 1
17 33 m 1
 15 33 l 1
 15 35 l 1
 17 35 l 1
 17 33 l 1
23 33 m 1
 21 33 l 1
 21 35 l 1
 23 35 l 1
 23 33 l 1
25 33 m 1
 24 33 l 1
 24 35 l 1
 26 35 l 1
 26 34 l 1
 25 34 l 1
 25 33 l 1
28 33 m 1
 26 33 l 1
 26 34 l 1
 27 34 l 1
 27 35 l 1
 28 35 l 1
 28 33 l 1
17 37 m 1
 15 37 l 1
 15 39 l 1
 17 39 l 1
 17 37 l 1
17 41 m 1
 15 41 l 1
 15 43 l 1
 17 43 l 1
 17 41 l 1
23 37 m 1
 21 37 l 1
 21 39 l 1
 23 39 l 1
 23 37 l 1
23 41 m 1
 21 41 l 1
 21 43 l 1
 23 43 l 1
 23 41 l 1
26 41 m 1
 24 41 l 1
 24 43 l 1
 25 43 l 1
 25 42 l 1
 26 42 l 1
 26 41 l 1
27 42 m 1
 26 42 l 1
 26 43 l 1
 28 43 l 1
 28 41 l 1
 27 41 l 1
 27 42 l 1
31 29 m 1
 29 29 l 1
 29 31 l 1
 31 31 l 1
 31 29 l 1
36 31 m 1
 34 31 l 1
 34 33 l 1
 36 33 l 1
 36 31 l 1
31 33 m 1
 29 33 l 1
 29 35 l 1
 31 35 l 1
 31 33 l 1
36 35 m 1
 34 35 l 1
 34 37 l 1
 36 37 l 1
 36 35 l 1
31 41 m 1
 29 41 l 1
 29 43 l 1
 31 43 l 1
 31 41 l 1
49 25 m 1
 47 25 l 1
 47 27 l 1
 49 27 l 1
 49 25 l 1
55 25 m 1
 53 25 l 1
 53 27 l 1
 55 27 l 1
 55 25 l 1
58 25 m 1
 56 25 l 1
 56 27 l 1
 57 27 l 1
 57 26 l 1
 58 26 l 1
 58 25 l 1
59 26 m 1
 58 26 l 1
 58 27 l 1
 60 27 l 1
 60 25 l 1
 59 25 l 1
 59 26 l 1
63 25 m 1
 61 25 l 1
 61 27 l 1
 63 27 l 1
 63 25 l 1
49 29 m 1
 47 29 l 1
 47 31 l 1
 49 31 l 1
 49 29 l 1
49 33 m 1
 47 33 l 1
 47 35 l 1
 49 35 l 1
 49 33 l 1
55 33 m 1
 53 33 l 1
 53 35 l 1
 55 35 l 1
 55 33 l 1
57 33 m 1
 56 33 l 1
 56 35 l 1
 58 35 l 1
 58 34 l 1
 57 34 l 1
 57 33 l 1
60 33 m 1
 58 33 l 1
 58 34 l 1
 59 34 l 1
 59 35 l 1
 60 35 l 1
 60 33 l 1
49 37 m 1
 47 37 l 1
 47 39 l 1
 49 39 l 1
 49 37 l 1
49 41 m 1
 47 41 l 1
 47 43 l 1
 49 43 l 1
 49 41 l 1
55 41 m 1
 53 41 l 1
 53 43 l 1
 55 43 l 1
 55 41 l 1
58 41 m 1
 56 41 l 1
 56 43 l 1
 57 43 l 1
 57 42 l 1
 58 42 l 1
 58 41 l 1
59 42 m 1
 58 42 l 1
 58 43 l 1
 60 43 l 1
 60 41 l 1
 59 41 l 1
 59 42 l 1
63 29 m 1
 61 29 l 1
 61 31 l 1
 63 31 l 1
 63 29 l 1
63 33 m 1
 61 33 l 1
 61 35 l 1
 63 35 l 1
 63 33 l 1
63 37 m 1
 61 37 l 1
 61 39 l 1
 63 39 l 1
 63 37 l 1
63 41 m 1
 61 41 l 1
 61 43 l 1
 63 43 l 1
 63 41 l 1
EndSplineSet
Ligature2: "'liga' Standard Ligatures in Latin lookup 0-1" one three zero three four
LCarets2: 1 0
EndChar

StartChar: custom_1_3_0_3_5
Encoding: 4191 -1 3946
Width: 70
Flags: H
LayerCount: 2
Fore
SplineSet
17 25 m 1
 15 25 l 1
 15 27 l 1
 17 27 l 1
 17 25 l 1
23 25 m 1
 21 25 l 1
 21 27 l 1
 23 27 l 1
 23 25 l 1
26 25 m 1
 24 25 l 1
 24 27 l 1
 25 27 l 1
 25 26 l 1
 26 26 l 1
 26 25 l 1
27 26 m 1
 26 26 l 1
 26 27 l 1
 28 27 l 1
 28 25 l 1
 27 25 l 1
 27 26 l 1
31 25 m 1
 29 25 l 1
 29 27 l 1
 31 27 l 1
 31 25 l 1
17 29 m 1
 15 29 l 1
 15 31 l 1
 17 31 l 1
 17 29 l 1
17 33 m 1
 15 33 l 1
 15 35 l 1
 17 35 l 1
 17 33 l 1
23 33 m 1
 21 33 l 1
 21 35 l 1
 23 35 l 1
 23 33 l 1
25 33 m 1
 24 33 l 1
 24 35 l 1
 26 35 l 1
 26 34 l 1
 25 34 l 1
 25 33 l 1
28 33 m 1
 26 33 l 1
 26 34 l 1
 27 34 l 1
 27 35 l 1
 28 35 l 1
 28 33 l 1
17 37 m 1
 15 37 l 1
 15 39 l 1
 17 39 l 1
 17 37 l 1
17 41 m 1
 15 41 l 1
 15 43 l 1
 17 43 l 1
 17 41 l 1
23 37 m 1
 21 37 l 1
 21 39 l 1
 23 39 l 1
 23 37 l 1
23 41 m 1
 21 41 l 1
 21 43 l 1
 23 43 l 1
 23 41 l 1
26 41 m 1
 24 41 l 1
 24 43 l 1
 25 43 l 1
 25 42 l 1
 26 42 l 1
 26 41 l 1
27 42 m 1
 26 42 l 1
 26 43 l 1
 28 43 l 1
 28 41 l 1
 27 41 l 1
 27 42 l 1
31 29 m 1
 29 29 l 1
 29 31 l 1
 31 31 l 1
 31 29 l 1
36 31 m 1
 34 31 l 1
 34 33 l 1
 36 33 l 1
 36 31 l 1
31 33 m 1
 29 33 l 1
 29 35 l 1
 31 35 l 1
 31 33 l 1
36 35 m 1
 34 35 l 1
 34 37 l 1
 36 37 l 1
 36 35 l 1
31 41 m 1
 29 41 l 1
 29 43 l 1
 31 43 l 1
 31 41 l 1
49 25 m 1
 47 25 l 1
 47 27 l 1
 49 27 l 1
 49 25 l 1
55 25 m 1
 53 25 l 1
 53 27 l 1
 55 27 l 1
 55 25 l 1
58 25 m 1
 56 25 l 1
 56 27 l 1
 57 27 l 1
 57 26 l 1
 58 26 l 1
 58 25 l 1
59 26 m 1
 58 26 l 1
 58 27 l 1
 60 27 l 1
 60 25 l 1
 59 25 l 1
 59 26 l 1
63 25 m 1
 61 25 l 1
 61 27 l 1
 63 27 l 1
 63 25 l 1
49 29 m 1
 47 29 l 1
 47 31 l 1
 49 31 l 1
 49 29 l 1
49 33 m 1
 47 33 l 1
 47 35 l 1
 49 35 l 1
 49 33 l 1
55 33 m 1
 53 33 l 1
 53 35 l 1
 55 35 l 1
 55 33 l 1
57 33 m 1
 56 33 l 1
 56 35 l 1
 58 35 l 1
 58 34 l 1
 57 34 l 1
 57 33 l 1
60 33 m 1
 58 33 l 1
 58 34 l 1
 59 34 l 1
 59 35 l 1
 60 35 l 1
 60 33 l 1
49 37 m 1
 47 37 l 1
 47 39 l 1
 49 39 l 1
 49 37 l 1
49 41 m 1
 47 41 l 1
 47 43 l 1
 49 43 l 1
 49 41 l 1
55 41 m 1
 53 41 l 1
 53 43 l 1
 55 43 l 1
 55 41 l 1
58 41 m 1
 56 41 l 1
 56 43 l 1
 57 43 l 1
 57 42 l 1
 58 42 l 1
 58 41 l 1
59 42 m 1
 58 42 l 1
 58 43 l 1
 60 43 l 1
 60 41 l 1
 59 41 l 1
 59 42 l 1
63 29 m 1
 61 29 l 1
 61 31 l 1
 63 31 l 1
 63 29 l 1
63 33 m 1
 61 33 l 1
 61 35 l 1
 63 35 l 1
 63 33 l 1
63 37 m 1
 61 37 l 1
 61 39 l 1
 63 39 l 1
 63 37 l 1
63 41 m 1
 61 41 l 1
 61 43 l 1
 63 43 l 1
 63 41 l 1
EndSplineSet
Ligature2: "'liga' Standard Ligatures in Latin lookup 0-1" one three zero three five
LCarets2: 1 0
EndChar

StartChar: custom_1_3_0_3_6
Encoding: 4192 -1 3947
Width: 70
Flags: H
LayerCount: 2
Fore
SplineSet
17 25 m 1
 15 25 l 1
 15 27 l 1
 17 27 l 1
 17 25 l 1
23 25 m 1
 21 25 l 1
 21 27 l 1
 23 27 l 1
 23 25 l 1
26 25 m 1
 24 25 l 1
 24 27 l 1
 25 27 l 1
 25 26 l 1
 26 26 l 1
 26 25 l 1
27 26 m 1
 26 26 l 1
 26 27 l 1
 28 27 l 1
 28 25 l 1
 27 25 l 1
 27 26 l 1
31 25 m 1
 29 25 l 1
 29 27 l 1
 31 27 l 1
 31 25 l 1
17 29 m 1
 15 29 l 1
 15 31 l 1
 17 31 l 1
 17 29 l 1
17 33 m 1
 15 33 l 1
 15 35 l 1
 17 35 l 1
 17 33 l 1
23 33 m 1
 21 33 l 1
 21 35 l 1
 23 35 l 1
 23 33 l 1
25 33 m 1
 24 33 l 1
 24 35 l 1
 26 35 l 1
 26 34 l 1
 25 34 l 1
 25 33 l 1
28 33 m 1
 26 33 l 1
 26 34 l 1
 27 34 l 1
 27 35 l 1
 28 35 l 1
 28 33 l 1
17 37 m 1
 15 37 l 1
 15 39 l 1
 17 39 l 1
 17 37 l 1
17 41 m 1
 15 41 l 1
 15 43 l 1
 17 43 l 1
 17 41 l 1
23 37 m 1
 21 37 l 1
 21 39 l 1
 23 39 l 1
 23 37 l 1
23 41 m 1
 21 41 l 1
 21 43 l 1
 23 43 l 1
 23 41 l 1
26 41 m 1
 24 41 l 1
 24 43 l 1
 25 43 l 1
 25 42 l 1
 26 42 l 1
 26 41 l 1
27 42 m 1
 26 42 l 1
 26 43 l 1
 28 43 l 1
 28 41 l 1
 27 41 l 1
 27 42 l 1
31 29 m 1
 29 29 l 1
 29 31 l 1
 31 31 l 1
 31 29 l 1
36 31 m 1
 34 31 l 1
 34 33 l 1
 36 33 l 1
 36 31 l 1
31 33 m 1
 29 33 l 1
 29 35 l 1
 31 35 l 1
 31 33 l 1
36 35 m 1
 34 35 l 1
 34 37 l 1
 36 37 l 1
 36 35 l 1
31 41 m 1
 29 41 l 1
 29 43 l 1
 31 43 l 1
 31 41 l 1
49 25 m 1
 47 25 l 1
 47 27 l 1
 49 27 l 1
 49 25 l 1
55 25 m 1
 53 25 l 1
 53 27 l 1
 55 27 l 1
 55 25 l 1
58 25 m 1
 56 25 l 1
 56 27 l 1
 57 27 l 1
 57 26 l 1
 58 26 l 1
 58 25 l 1
59 26 m 1
 58 26 l 1
 58 27 l 1
 60 27 l 1
 60 25 l 1
 59 25 l 1
 59 26 l 1
63 25 m 1
 61 25 l 1
 61 27 l 1
 63 27 l 1
 63 25 l 1
49 29 m 1
 47 29 l 1
 47 31 l 1
 49 31 l 1
 49 29 l 1
49 33 m 1
 47 33 l 1
 47 35 l 1
 49 35 l 1
 49 33 l 1
55 33 m 1
 53 33 l 1
 53 35 l 1
 55 35 l 1
 55 33 l 1
57 33 m 1
 56 33 l 1
 56 35 l 1
 58 35 l 1
 58 34 l 1
 57 34 l 1
 57 33 l 1
60 33 m 1
 58 33 l 1
 58 34 l 1
 59 34 l 1
 59 35 l 1
 60 35 l 1
 60 33 l 1
49 37 m 1
 47 37 l 1
 47 39 l 1
 49 39 l 1
 49 37 l 1
49 41 m 1
 47 41 l 1
 47 43 l 1
 49 43 l 1
 49 41 l 1
55 41 m 1
 53 41 l 1
 53 43 l 1
 55 43 l 1
 55 41 l 1
58 41 m 1
 56 41 l 1
 56 43 l 1
 57 43 l 1
 57 42 l 1
 58 42 l 1
 58 41 l 1
59 42 m 1
 58 42 l 1
 58 43 l 1
 60 43 l 1
 60 41 l 1
 59 41 l 1
 59 42 l 1
63 29 m 1
 61 29 l 1
 61 31 l 1
 63 31 l 1
 63 29 l 1
63 33 m 1
 61 33 l 1
 61 35 l 1
 63 35 l 1
 63 33 l 1
63 37 m 1
 61 37 l 1
 61 39 l 1
 63 39 l 1
 63 37 l 1
63 41 m 1
 61 41 l 1
 61 43 l 1
 63 43 l 1
 63 41 l 1
EndSplineSet
Ligature2: "'liga' Standard Ligatures in Latin lookup 0-1" one three zero three six
LCarets2: 1 0
EndChar

StartChar: custom_1_3_0_3_7
Encoding: 4193 -1 3948
Width: 70
Flags: H
LayerCount: 2
Fore
SplineSet
17 25 m 1
 15 25 l 1
 15 27 l 1
 17 27 l 1
 17 25 l 1
23 25 m 1
 21 25 l 1
 21 27 l 1
 23 27 l 1
 23 25 l 1
26 25 m 1
 24 25 l 1
 24 27 l 1
 25 27 l 1
 25 26 l 1
 26 26 l 1
 26 25 l 1
27 26 m 1
 26 26 l 1
 26 27 l 1
 28 27 l 1
 28 25 l 1
 27 25 l 1
 27 26 l 1
31 25 m 1
 29 25 l 1
 29 27 l 1
 31 27 l 1
 31 25 l 1
17 29 m 1
 15 29 l 1
 15 31 l 1
 17 31 l 1
 17 29 l 1
17 33 m 1
 15 33 l 1
 15 35 l 1
 17 35 l 1
 17 33 l 1
23 33 m 1
 21 33 l 1
 21 35 l 1
 23 35 l 1
 23 33 l 1
25 33 m 1
 24 33 l 1
 24 35 l 1
 26 35 l 1
 26 34 l 1
 25 34 l 1
 25 33 l 1
28 33 m 1
 26 33 l 1
 26 34 l 1
 27 34 l 1
 27 35 l 1
 28 35 l 1
 28 33 l 1
17 37 m 1
 15 37 l 1
 15 39 l 1
 17 39 l 1
 17 37 l 1
17 41 m 1
 15 41 l 1
 15 43 l 1
 17 43 l 1
 17 41 l 1
23 37 m 1
 21 37 l 1
 21 39 l 1
 23 39 l 1
 23 37 l 1
23 41 m 1
 21 41 l 1
 21 43 l 1
 23 43 l 1
 23 41 l 1
26 41 m 1
 24 41 l 1
 24 43 l 1
 25 43 l 1
 25 42 l 1
 26 42 l 1
 26 41 l 1
27 42 m 1
 26 42 l 1
 26 43 l 1
 28 43 l 1
 28 41 l 1
 27 41 l 1
 27 42 l 1
31 29 m 1
 29 29 l 1
 29 31 l 1
 31 31 l 1
 31 29 l 1
36 31 m 1
 34 31 l 1
 34 33 l 1
 36 33 l 1
 36 31 l 1
31 33 m 1
 29 33 l 1
 29 35 l 1
 31 35 l 1
 31 33 l 1
36 35 m 1
 34 35 l 1
 34 37 l 1
 36 37 l 1
 36 35 l 1
31 41 m 1
 29 41 l 1
 29 43 l 1
 31 43 l 1
 31 41 l 1
49 25 m 1
 47 25 l 1
 47 27 l 1
 49 27 l 1
 49 25 l 1
55 25 m 1
 53 25 l 1
 53 27 l 1
 55 27 l 1
 55 25 l 1
58 25 m 1
 56 25 l 1
 56 27 l 1
 57 27 l 1
 57 26 l 1
 58 26 l 1
 58 25 l 1
59 26 m 1
 58 26 l 1
 58 27 l 1
 60 27 l 1
 60 25 l 1
 59 25 l 1
 59 26 l 1
63 25 m 1
 61 25 l 1
 61 27 l 1
 63 27 l 1
 63 25 l 1
49 29 m 1
 47 29 l 1
 47 31 l 1
 49 31 l 1
 49 29 l 1
49 33 m 1
 47 33 l 1
 47 35 l 1
 49 35 l 1
 49 33 l 1
55 33 m 1
 53 33 l 1
 53 35 l 1
 55 35 l 1
 55 33 l 1
57 33 m 1
 56 33 l 1
 56 35 l 1
 58 35 l 1
 58 34 l 1
 57 34 l 1
 57 33 l 1
60 33 m 1
 58 33 l 1
 58 34 l 1
 59 34 l 1
 59 35 l 1
 60 35 l 1
 60 33 l 1
49 37 m 1
 47 37 l 1
 47 39 l 1
 49 39 l 1
 49 37 l 1
49 41 m 1
 47 41 l 1
 47 43 l 1
 49 43 l 1
 49 41 l 1
55 41 m 1
 53 41 l 1
 53 43 l 1
 55 43 l 1
 55 41 l 1
58 41 m 1
 56 41 l 1
 56 43 l 1
 57 43 l 1
 57 42 l 1
 58 42 l 1
 58 41 l 1
59 42 m 1
 58 42 l 1
 58 43 l 1
 60 43 l 1
 60 41 l 1
 59 41 l 1
 59 42 l 1
63 29 m 1
 61 29 l 1
 61 31 l 1
 63 31 l 1
 63 29 l 1
63 33 m 1
 61 33 l 1
 61 35 l 1
 63 35 l 1
 63 33 l 1
63 37 m 1
 61 37 l 1
 61 39 l 1
 63 39 l 1
 63 37 l 1
63 41 m 1
 61 41 l 1
 61 43 l 1
 63 43 l 1
 63 41 l 1
EndSplineSet
Ligature2: "'liga' Standard Ligatures in Latin lookup 0-1" one three zero three seven
LCarets2: 1 0
EndChar

StartChar: custom_1_3_0_3_8
Encoding: 4194 -1 3949
Width: 70
Flags: H
LayerCount: 2
Fore
SplineSet
17 25 m 1
 15 25 l 1
 15 27 l 1
 17 27 l 1
 17 25 l 1
23 25 m 1
 21 25 l 1
 21 27 l 1
 23 27 l 1
 23 25 l 1
26 25 m 1
 24 25 l 1
 24 27 l 1
 25 27 l 1
 25 26 l 1
 26 26 l 1
 26 25 l 1
27 26 m 1
 26 26 l 1
 26 27 l 1
 28 27 l 1
 28 25 l 1
 27 25 l 1
 27 26 l 1
31 25 m 1
 29 25 l 1
 29 27 l 1
 31 27 l 1
 31 25 l 1
17 29 m 1
 15 29 l 1
 15 31 l 1
 17 31 l 1
 17 29 l 1
17 33 m 1
 15 33 l 1
 15 35 l 1
 17 35 l 1
 17 33 l 1
23 33 m 1
 21 33 l 1
 21 35 l 1
 23 35 l 1
 23 33 l 1
25 33 m 1
 24 33 l 1
 24 35 l 1
 26 35 l 1
 26 34 l 1
 25 34 l 1
 25 33 l 1
28 33 m 1
 26 33 l 1
 26 34 l 1
 27 34 l 1
 27 35 l 1
 28 35 l 1
 28 33 l 1
17 37 m 1
 15 37 l 1
 15 39 l 1
 17 39 l 1
 17 37 l 1
17 41 m 1
 15 41 l 1
 15 43 l 1
 17 43 l 1
 17 41 l 1
23 37 m 1
 21 37 l 1
 21 39 l 1
 23 39 l 1
 23 37 l 1
23 41 m 1
 21 41 l 1
 21 43 l 1
 23 43 l 1
 23 41 l 1
26 41 m 1
 24 41 l 1
 24 43 l 1
 25 43 l 1
 25 42 l 1
 26 42 l 1
 26 41 l 1
27 42 m 1
 26 42 l 1
 26 43 l 1
 28 43 l 1
 28 41 l 1
 27 41 l 1
 27 42 l 1
31 29 m 1
 29 29 l 1
 29 31 l 1
 31 31 l 1
 31 29 l 1
36 31 m 1
 34 31 l 1
 34 33 l 1
 36 33 l 1
 36 31 l 1
31 33 m 1
 29 33 l 1
 29 35 l 1
 31 35 l 1
 31 33 l 1
36 35 m 1
 34 35 l 1
 34 37 l 1
 36 37 l 1
 36 35 l 1
31 41 m 1
 29 41 l 1
 29 43 l 1
 31 43 l 1
 31 41 l 1
49 25 m 1
 47 25 l 1
 47 27 l 1
 49 27 l 1
 49 25 l 1
55 25 m 1
 53 25 l 1
 53 27 l 1
 55 27 l 1
 55 25 l 1
58 25 m 1
 56 25 l 1
 56 27 l 1
 57 27 l 1
 57 26 l 1
 58 26 l 1
 58 25 l 1
59 26 m 1
 58 26 l 1
 58 27 l 1
 60 27 l 1
 60 25 l 1
 59 25 l 1
 59 26 l 1
63 25 m 1
 61 25 l 1
 61 27 l 1
 63 27 l 1
 63 25 l 1
49 29 m 1
 47 29 l 1
 47 31 l 1
 49 31 l 1
 49 29 l 1
49 33 m 1
 47 33 l 1
 47 35 l 1
 49 35 l 1
 49 33 l 1
55 33 m 1
 53 33 l 1
 53 35 l 1
 55 35 l 1
 55 33 l 1
57 33 m 1
 56 33 l 1
 56 35 l 1
 58 35 l 1
 58 34 l 1
 57 34 l 1
 57 33 l 1
60 33 m 1
 58 33 l 1
 58 34 l 1
 59 34 l 1
 59 35 l 1
 60 35 l 1
 60 33 l 1
49 37 m 1
 47 37 l 1
 47 39 l 1
 49 39 l 1
 49 37 l 1
49 41 m 1
 47 41 l 1
 47 43 l 1
 49 43 l 1
 49 41 l 1
55 41 m 1
 53 41 l 1
 53 43 l 1
 55 43 l 1
 55 41 l 1
58 41 m 1
 56 41 l 1
 56 43 l 1
 57 43 l 1
 57 42 l 1
 58 42 l 1
 58 41 l 1
59 42 m 1
 58 42 l 1
 58 43 l 1
 60 43 l 1
 60 41 l 1
 59 41 l 1
 59 42 l 1
63 29 m 1
 61 29 l 1
 61 31 l 1
 63 31 l 1
 63 29 l 1
63 33 m 1
 61 33 l 1
 61 35 l 1
 63 35 l 1
 63 33 l 1
63 37 m 1
 61 37 l 1
 61 39 l 1
 63 39 l 1
 63 37 l 1
63 41 m 1
 61 41 l 1
 61 43 l 1
 63 43 l 1
 63 41 l 1
EndSplineSet
Ligature2: "'liga' Standard Ligatures in Latin lookup 0-1" one three zero three eight
LCarets2: 1 0
EndChar

StartChar: custom_1_3_0_3_9
Encoding: 4195 -1 3950
Width: 70
Flags: H
LayerCount: 2
Fore
SplineSet
17 25 m 1
 15 25 l 1
 15 27 l 1
 17 27 l 1
 17 25 l 1
23 25 m 1
 21 25 l 1
 21 27 l 1
 23 27 l 1
 23 25 l 1
26 25 m 1
 24 25 l 1
 24 27 l 1
 25 27 l 1
 25 26 l 1
 26 26 l 1
 26 25 l 1
27 26 m 1
 26 26 l 1
 26 27 l 1
 28 27 l 1
 28 25 l 1
 27 25 l 1
 27 26 l 1
31 25 m 1
 29 25 l 1
 29 27 l 1
 31 27 l 1
 31 25 l 1
17 29 m 1
 15 29 l 1
 15 31 l 1
 17 31 l 1
 17 29 l 1
17 33 m 1
 15 33 l 1
 15 35 l 1
 17 35 l 1
 17 33 l 1
23 33 m 1
 21 33 l 1
 21 35 l 1
 23 35 l 1
 23 33 l 1
25 33 m 1
 24 33 l 1
 24 35 l 1
 26 35 l 1
 26 34 l 1
 25 34 l 1
 25 33 l 1
28 33 m 1
 26 33 l 1
 26 34 l 1
 27 34 l 1
 27 35 l 1
 28 35 l 1
 28 33 l 1
17 37 m 1
 15 37 l 1
 15 39 l 1
 17 39 l 1
 17 37 l 1
17 41 m 1
 15 41 l 1
 15 43 l 1
 17 43 l 1
 17 41 l 1
23 37 m 1
 21 37 l 1
 21 39 l 1
 23 39 l 1
 23 37 l 1
23 41 m 1
 21 41 l 1
 21 43 l 1
 23 43 l 1
 23 41 l 1
26 41 m 1
 24 41 l 1
 24 43 l 1
 25 43 l 1
 25 42 l 1
 26 42 l 1
 26 41 l 1
27 42 m 1
 26 42 l 1
 26 43 l 1
 28 43 l 1
 28 41 l 1
 27 41 l 1
 27 42 l 1
31 29 m 1
 29 29 l 1
 29 31 l 1
 31 31 l 1
 31 29 l 1
36 31 m 1
 34 31 l 1
 34 33 l 1
 36 33 l 1
 36 31 l 1
31 33 m 1
 29 33 l 1
 29 35 l 1
 31 35 l 1
 31 33 l 1
36 35 m 1
 34 35 l 1
 34 37 l 1
 36 37 l 1
 36 35 l 1
31 41 m 1
 29 41 l 1
 29 43 l 1
 31 43 l 1
 31 41 l 1
49 25 m 1
 47 25 l 1
 47 27 l 1
 49 27 l 1
 49 25 l 1
55 25 m 1
 53 25 l 1
 53 27 l 1
 55 27 l 1
 55 25 l 1
58 25 m 1
 56 25 l 1
 56 27 l 1
 57 27 l 1
 57 26 l 1
 58 26 l 1
 58 25 l 1
59 26 m 1
 58 26 l 1
 58 27 l 1
 60 27 l 1
 60 25 l 1
 59 25 l 1
 59 26 l 1
63 25 m 1
 61 25 l 1
 61 27 l 1
 63 27 l 1
 63 25 l 1
49 29 m 1
 47 29 l 1
 47 31 l 1
 49 31 l 1
 49 29 l 1
49 33 m 1
 47 33 l 1
 47 35 l 1
 49 35 l 1
 49 33 l 1
55 33 m 1
 53 33 l 1
 53 35 l 1
 55 35 l 1
 55 33 l 1
57 33 m 1
 56 33 l 1
 56 35 l 1
 58 35 l 1
 58 34 l 1
 57 34 l 1
 57 33 l 1
60 33 m 1
 58 33 l 1
 58 34 l 1
 59 34 l 1
 59 35 l 1
 60 35 l 1
 60 33 l 1
49 37 m 1
 47 37 l 1
 47 39 l 1
 49 39 l 1
 49 37 l 1
49 41 m 1
 47 41 l 1
 47 43 l 1
 49 43 l 1
 49 41 l 1
55 41 m 1
 53 41 l 1
 53 43 l 1
 55 43 l 1
 55 41 l 1
58 41 m 1
 56 41 l 1
 56 43 l 1
 57 43 l 1
 57 42 l 1
 58 42 l 1
 58 41 l 1
59 42 m 1
 58 42 l 1
 58 43 l 1
 60 43 l 1
 60 41 l 1
 59 41 l 1
 59 42 l 1
63 29 m 1
 61 29 l 1
 61 31 l 1
 63 31 l 1
 63 29 l 1
63 33 m 1
 61 33 l 1
 61 35 l 1
 63 35 l 1
 63 33 l 1
63 37 m 1
 61 37 l 1
 61 39 l 1
 63 39 l 1
 63 37 l 1
63 41 m 1
 61 41 l 1
 61 43 l 1
 63 43 l 1
 63 41 l 1
EndSplineSet
Ligature2: "'liga' Standard Ligatures in Latin lookup 0-1" one three zero three nine
LCarets2: 1 0
EndChar

StartChar: custom_1_3_0_4_0
Encoding: 4196 -1 3951
Width: 70
Flags: H
LayerCount: 2
Fore
SplineSet
17 25 m 1
 15 25 l 1
 15 27 l 1
 17 27 l 1
 17 25 l 1
23 25 m 1
 21 25 l 1
 21 27 l 1
 23 27 l 1
 23 25 l 1
26 25 m 1
 24 25 l 1
 24 27 l 1
 25 27 l 1
 25 26 l 1
 26 26 l 1
 26 25 l 1
27 26 m 1
 26 26 l 1
 26 27 l 1
 28 27 l 1
 28 25 l 1
 27 25 l 1
 27 26 l 1
31 25 m 1
 29 25 l 1
 29 27 l 1
 31 27 l 1
 31 25 l 1
17 29 m 1
 15 29 l 1
 15 31 l 1
 17 31 l 1
 17 29 l 1
17 33 m 1
 15 33 l 1
 15 35 l 1
 17 35 l 1
 17 33 l 1
23 33 m 1
 21 33 l 1
 21 35 l 1
 23 35 l 1
 23 33 l 1
25 33 m 1
 24 33 l 1
 24 35 l 1
 26 35 l 1
 26 34 l 1
 25 34 l 1
 25 33 l 1
28 33 m 1
 26 33 l 1
 26 34 l 1
 27 34 l 1
 27 35 l 1
 28 35 l 1
 28 33 l 1
17 37 m 1
 15 37 l 1
 15 39 l 1
 17 39 l 1
 17 37 l 1
17 41 m 1
 15 41 l 1
 15 43 l 1
 17 43 l 1
 17 41 l 1
23 37 m 1
 21 37 l 1
 21 39 l 1
 23 39 l 1
 23 37 l 1
23 41 m 1
 21 41 l 1
 21 43 l 1
 23 43 l 1
 23 41 l 1
26 41 m 1
 24 41 l 1
 24 43 l 1
 25 43 l 1
 25 42 l 1
 26 42 l 1
 26 41 l 1
27 42 m 1
 26 42 l 1
 26 43 l 1
 28 43 l 1
 28 41 l 1
 27 41 l 1
 27 42 l 1
31 29 m 1
 29 29 l 1
 29 31 l 1
 31 31 l 1
 31 29 l 1
36 31 m 1
 34 31 l 1
 34 33 l 1
 36 33 l 1
 36 31 l 1
31 33 m 1
 29 33 l 1
 29 35 l 1
 31 35 l 1
 31 33 l 1
36 35 m 1
 34 35 l 1
 34 37 l 1
 36 37 l 1
 36 35 l 1
31 41 m 1
 29 41 l 1
 29 43 l 1
 31 43 l 1
 31 41 l 1
49 25 m 1
 47 25 l 1
 47 27 l 1
 49 27 l 1
 49 25 l 1
55 25 m 1
 53 25 l 1
 53 27 l 1
 55 27 l 1
 55 25 l 1
58 25 m 1
 56 25 l 1
 56 27 l 1
 57 27 l 1
 57 26 l 1
 58 26 l 1
 58 25 l 1
59 26 m 1
 58 26 l 1
 58 27 l 1
 60 27 l 1
 60 25 l 1
 59 25 l 1
 59 26 l 1
63 25 m 1
 61 25 l 1
 61 27 l 1
 63 27 l 1
 63 25 l 1
49 29 m 1
 47 29 l 1
 47 31 l 1
 49 31 l 1
 49 29 l 1
49 33 m 1
 47 33 l 1
 47 35 l 1
 49 35 l 1
 49 33 l 1
55 33 m 1
 53 33 l 1
 53 35 l 1
 55 35 l 1
 55 33 l 1
57 33 m 1
 56 33 l 1
 56 35 l 1
 58 35 l 1
 58 34 l 1
 57 34 l 1
 57 33 l 1
60 33 m 1
 58 33 l 1
 58 34 l 1
 59 34 l 1
 59 35 l 1
 60 35 l 1
 60 33 l 1
49 37 m 1
 47 37 l 1
 47 39 l 1
 49 39 l 1
 49 37 l 1
49 41 m 1
 47 41 l 1
 47 43 l 1
 49 43 l 1
 49 41 l 1
55 41 m 1
 53 41 l 1
 53 43 l 1
 55 43 l 1
 55 41 l 1
58 41 m 1
 56 41 l 1
 56 43 l 1
 57 43 l 1
 57 42 l 1
 58 42 l 1
 58 41 l 1
59 42 m 1
 58 42 l 1
 58 43 l 1
 60 43 l 1
 60 41 l 1
 59 41 l 1
 59 42 l 1
63 29 m 1
 61 29 l 1
 61 31 l 1
 63 31 l 1
 63 29 l 1
63 33 m 1
 61 33 l 1
 61 35 l 1
 63 35 l 1
 63 33 l 1
63 37 m 1
 61 37 l 1
 61 39 l 1
 63 39 l 1
 63 37 l 1
63 41 m 1
 61 41 l 1
 61 43 l 1
 63 43 l 1
 63 41 l 1
EndSplineSet
Ligature2: "'liga' Standard Ligatures in Latin lookup 0-1" one three zero four zero
LCarets2: 1 0
EndChar

StartChar: custom_1_3_0_4_1
Encoding: 4197 -1 3952
Width: 70
Flags: H
LayerCount: 2
Fore
SplineSet
17 25 m 1
 15 25 l 1
 15 27 l 1
 17 27 l 1
 17 25 l 1
23 25 m 1
 21 25 l 1
 21 27 l 1
 23 27 l 1
 23 25 l 1
26 25 m 1
 24 25 l 1
 24 27 l 1
 25 27 l 1
 25 26 l 1
 26 26 l 1
 26 25 l 1
27 26 m 1
 26 26 l 1
 26 27 l 1
 28 27 l 1
 28 25 l 1
 27 25 l 1
 27 26 l 1
31 25 m 1
 29 25 l 1
 29 27 l 1
 31 27 l 1
 31 25 l 1
17 29 m 1
 15 29 l 1
 15 31 l 1
 17 31 l 1
 17 29 l 1
17 33 m 1
 15 33 l 1
 15 35 l 1
 17 35 l 1
 17 33 l 1
23 33 m 1
 21 33 l 1
 21 35 l 1
 23 35 l 1
 23 33 l 1
25 33 m 1
 24 33 l 1
 24 35 l 1
 26 35 l 1
 26 34 l 1
 25 34 l 1
 25 33 l 1
28 33 m 1
 26 33 l 1
 26 34 l 1
 27 34 l 1
 27 35 l 1
 28 35 l 1
 28 33 l 1
17 37 m 1
 15 37 l 1
 15 39 l 1
 17 39 l 1
 17 37 l 1
17 41 m 1
 15 41 l 1
 15 43 l 1
 17 43 l 1
 17 41 l 1
23 37 m 1
 21 37 l 1
 21 39 l 1
 23 39 l 1
 23 37 l 1
23 41 m 1
 21 41 l 1
 21 43 l 1
 23 43 l 1
 23 41 l 1
26 41 m 1
 24 41 l 1
 24 43 l 1
 25 43 l 1
 25 42 l 1
 26 42 l 1
 26 41 l 1
27 42 m 1
 26 42 l 1
 26 43 l 1
 28 43 l 1
 28 41 l 1
 27 41 l 1
 27 42 l 1
31 29 m 1
 29 29 l 1
 29 31 l 1
 31 31 l 1
 31 29 l 1
36 31 m 1
 34 31 l 1
 34 33 l 1
 36 33 l 1
 36 31 l 1
31 33 m 1
 29 33 l 1
 29 35 l 1
 31 35 l 1
 31 33 l 1
36 35 m 1
 34 35 l 1
 34 37 l 1
 36 37 l 1
 36 35 l 1
31 41 m 1
 29 41 l 1
 29 43 l 1
 31 43 l 1
 31 41 l 1
49 25 m 1
 47 25 l 1
 47 27 l 1
 49 27 l 1
 49 25 l 1
55 25 m 1
 53 25 l 1
 53 27 l 1
 55 27 l 1
 55 25 l 1
58 25 m 1
 56 25 l 1
 56 27 l 1
 57 27 l 1
 57 26 l 1
 58 26 l 1
 58 25 l 1
59 26 m 1
 58 26 l 1
 58 27 l 1
 60 27 l 1
 60 25 l 1
 59 25 l 1
 59 26 l 1
63 25 m 1
 61 25 l 1
 61 27 l 1
 63 27 l 1
 63 25 l 1
49 29 m 1
 47 29 l 1
 47 31 l 1
 49 31 l 1
 49 29 l 1
49 33 m 1
 47 33 l 1
 47 35 l 1
 49 35 l 1
 49 33 l 1
55 33 m 1
 53 33 l 1
 53 35 l 1
 55 35 l 1
 55 33 l 1
57 33 m 1
 56 33 l 1
 56 35 l 1
 58 35 l 1
 58 34 l 1
 57 34 l 1
 57 33 l 1
60 33 m 1
 58 33 l 1
 58 34 l 1
 59 34 l 1
 59 35 l 1
 60 35 l 1
 60 33 l 1
49 37 m 1
 47 37 l 1
 47 39 l 1
 49 39 l 1
 49 37 l 1
49 41 m 1
 47 41 l 1
 47 43 l 1
 49 43 l 1
 49 41 l 1
55 41 m 1
 53 41 l 1
 53 43 l 1
 55 43 l 1
 55 41 l 1
58 41 m 1
 56 41 l 1
 56 43 l 1
 57 43 l 1
 57 42 l 1
 58 42 l 1
 58 41 l 1
59 42 m 1
 58 42 l 1
 58 43 l 1
 60 43 l 1
 60 41 l 1
 59 41 l 1
 59 42 l 1
63 29 m 1
 61 29 l 1
 61 31 l 1
 63 31 l 1
 63 29 l 1
63 33 m 1
 61 33 l 1
 61 35 l 1
 63 35 l 1
 63 33 l 1
63 37 m 1
 61 37 l 1
 61 39 l 1
 63 39 l 1
 63 37 l 1
63 41 m 1
 61 41 l 1
 61 43 l 1
 63 43 l 1
 63 41 l 1
EndSplineSet
Ligature2: "'liga' Standard Ligatures in Latin lookup 0-1" one three zero four one
LCarets2: 1 0
EndChar

StartChar: custom_1_3_0_4_2
Encoding: 4198 -1 3953
Width: 70
Flags: H
LayerCount: 2
Fore
SplineSet
17 25 m 1
 15 25 l 1
 15 27 l 1
 17 27 l 1
 17 25 l 1
23 25 m 1
 21 25 l 1
 21 27 l 1
 23 27 l 1
 23 25 l 1
26 25 m 1
 24 25 l 1
 24 27 l 1
 25 27 l 1
 25 26 l 1
 26 26 l 1
 26 25 l 1
27 26 m 1
 26 26 l 1
 26 27 l 1
 28 27 l 1
 28 25 l 1
 27 25 l 1
 27 26 l 1
31 25 m 1
 29 25 l 1
 29 27 l 1
 31 27 l 1
 31 25 l 1
17 29 m 1
 15 29 l 1
 15 31 l 1
 17 31 l 1
 17 29 l 1
17 33 m 1
 15 33 l 1
 15 35 l 1
 17 35 l 1
 17 33 l 1
23 33 m 1
 21 33 l 1
 21 35 l 1
 23 35 l 1
 23 33 l 1
25 33 m 1
 24 33 l 1
 24 35 l 1
 26 35 l 1
 26 34 l 1
 25 34 l 1
 25 33 l 1
28 33 m 1
 26 33 l 1
 26 34 l 1
 27 34 l 1
 27 35 l 1
 28 35 l 1
 28 33 l 1
17 37 m 1
 15 37 l 1
 15 39 l 1
 17 39 l 1
 17 37 l 1
17 41 m 1
 15 41 l 1
 15 43 l 1
 17 43 l 1
 17 41 l 1
23 37 m 1
 21 37 l 1
 21 39 l 1
 23 39 l 1
 23 37 l 1
23 41 m 1
 21 41 l 1
 21 43 l 1
 23 43 l 1
 23 41 l 1
26 41 m 1
 24 41 l 1
 24 43 l 1
 25 43 l 1
 25 42 l 1
 26 42 l 1
 26 41 l 1
27 42 m 1
 26 42 l 1
 26 43 l 1
 28 43 l 1
 28 41 l 1
 27 41 l 1
 27 42 l 1
31 29 m 1
 29 29 l 1
 29 31 l 1
 31 31 l 1
 31 29 l 1
36 31 m 1
 34 31 l 1
 34 33 l 1
 36 33 l 1
 36 31 l 1
31 33 m 1
 29 33 l 1
 29 35 l 1
 31 35 l 1
 31 33 l 1
36 35 m 1
 34 35 l 1
 34 37 l 1
 36 37 l 1
 36 35 l 1
31 41 m 1
 29 41 l 1
 29 43 l 1
 31 43 l 1
 31 41 l 1
49 25 m 1
 47 25 l 1
 47 27 l 1
 49 27 l 1
 49 25 l 1
55 25 m 1
 53 25 l 1
 53 27 l 1
 55 27 l 1
 55 25 l 1
58 25 m 1
 56 25 l 1
 56 27 l 1
 57 27 l 1
 57 26 l 1
 58 26 l 1
 58 25 l 1
59 26 m 1
 58 26 l 1
 58 27 l 1
 60 27 l 1
 60 25 l 1
 59 25 l 1
 59 26 l 1
63 25 m 1
 61 25 l 1
 61 27 l 1
 63 27 l 1
 63 25 l 1
49 29 m 1
 47 29 l 1
 47 31 l 1
 49 31 l 1
 49 29 l 1
49 33 m 1
 47 33 l 1
 47 35 l 1
 49 35 l 1
 49 33 l 1
55 33 m 1
 53 33 l 1
 53 35 l 1
 55 35 l 1
 55 33 l 1
57 33 m 1
 56 33 l 1
 56 35 l 1
 58 35 l 1
 58 34 l 1
 57 34 l 1
 57 33 l 1
60 33 m 1
 58 33 l 1
 58 34 l 1
 59 34 l 1
 59 35 l 1
 60 35 l 1
 60 33 l 1
49 37 m 1
 47 37 l 1
 47 39 l 1
 49 39 l 1
 49 37 l 1
49 41 m 1
 47 41 l 1
 47 43 l 1
 49 43 l 1
 49 41 l 1
55 41 m 1
 53 41 l 1
 53 43 l 1
 55 43 l 1
 55 41 l 1
58 41 m 1
 56 41 l 1
 56 43 l 1
 57 43 l 1
 57 42 l 1
 58 42 l 1
 58 41 l 1
59 42 m 1
 58 42 l 1
 58 43 l 1
 60 43 l 1
 60 41 l 1
 59 41 l 1
 59 42 l 1
63 29 m 1
 61 29 l 1
 61 31 l 1
 63 31 l 1
 63 29 l 1
63 33 m 1
 61 33 l 1
 61 35 l 1
 63 35 l 1
 63 33 l 1
63 37 m 1
 61 37 l 1
 61 39 l 1
 63 39 l 1
 63 37 l 1
63 41 m 1
 61 41 l 1
 61 43 l 1
 63 43 l 1
 63 41 l 1
EndSplineSet
Ligature2: "'liga' Standard Ligatures in Latin lookup 0-1" one three zero four two
LCarets2: 1 0
EndChar

StartChar: custom_1_3_0_4_3
Encoding: 4199 -1 3954
Width: 70
Flags: H
LayerCount: 2
Fore
SplineSet
17 25 m 1
 15 25 l 1
 15 27 l 1
 17 27 l 1
 17 25 l 1
23 25 m 1
 21 25 l 1
 21 27 l 1
 23 27 l 1
 23 25 l 1
26 25 m 1
 24 25 l 1
 24 27 l 1
 25 27 l 1
 25 26 l 1
 26 26 l 1
 26 25 l 1
27 26 m 1
 26 26 l 1
 26 27 l 1
 28 27 l 1
 28 25 l 1
 27 25 l 1
 27 26 l 1
31 25 m 1
 29 25 l 1
 29 27 l 1
 31 27 l 1
 31 25 l 1
17 29 m 1
 15 29 l 1
 15 31 l 1
 17 31 l 1
 17 29 l 1
17 33 m 1
 15 33 l 1
 15 35 l 1
 17 35 l 1
 17 33 l 1
23 33 m 1
 21 33 l 1
 21 35 l 1
 23 35 l 1
 23 33 l 1
25 33 m 1
 24 33 l 1
 24 35 l 1
 26 35 l 1
 26 34 l 1
 25 34 l 1
 25 33 l 1
28 33 m 1
 26 33 l 1
 26 34 l 1
 27 34 l 1
 27 35 l 1
 28 35 l 1
 28 33 l 1
17 37 m 1
 15 37 l 1
 15 39 l 1
 17 39 l 1
 17 37 l 1
17 41 m 1
 15 41 l 1
 15 43 l 1
 17 43 l 1
 17 41 l 1
23 37 m 1
 21 37 l 1
 21 39 l 1
 23 39 l 1
 23 37 l 1
23 41 m 1
 21 41 l 1
 21 43 l 1
 23 43 l 1
 23 41 l 1
26 41 m 1
 24 41 l 1
 24 43 l 1
 25 43 l 1
 25 42 l 1
 26 42 l 1
 26 41 l 1
27 42 m 1
 26 42 l 1
 26 43 l 1
 28 43 l 1
 28 41 l 1
 27 41 l 1
 27 42 l 1
31 29 m 1
 29 29 l 1
 29 31 l 1
 31 31 l 1
 31 29 l 1
36 31 m 1
 34 31 l 1
 34 33 l 1
 36 33 l 1
 36 31 l 1
31 33 m 1
 29 33 l 1
 29 35 l 1
 31 35 l 1
 31 33 l 1
36 35 m 1
 34 35 l 1
 34 37 l 1
 36 37 l 1
 36 35 l 1
31 41 m 1
 29 41 l 1
 29 43 l 1
 31 43 l 1
 31 41 l 1
49 25 m 1
 47 25 l 1
 47 27 l 1
 49 27 l 1
 49 25 l 1
55 25 m 1
 53 25 l 1
 53 27 l 1
 55 27 l 1
 55 25 l 1
58 25 m 1
 56 25 l 1
 56 27 l 1
 57 27 l 1
 57 26 l 1
 58 26 l 1
 58 25 l 1
59 26 m 1
 58 26 l 1
 58 27 l 1
 60 27 l 1
 60 25 l 1
 59 25 l 1
 59 26 l 1
63 25 m 1
 61 25 l 1
 61 27 l 1
 63 27 l 1
 63 25 l 1
49 29 m 1
 47 29 l 1
 47 31 l 1
 49 31 l 1
 49 29 l 1
49 33 m 1
 47 33 l 1
 47 35 l 1
 49 35 l 1
 49 33 l 1
55 33 m 1
 53 33 l 1
 53 35 l 1
 55 35 l 1
 55 33 l 1
57 33 m 1
 56 33 l 1
 56 35 l 1
 58 35 l 1
 58 34 l 1
 57 34 l 1
 57 33 l 1
60 33 m 1
 58 33 l 1
 58 34 l 1
 59 34 l 1
 59 35 l 1
 60 35 l 1
 60 33 l 1
49 37 m 1
 47 37 l 1
 47 39 l 1
 49 39 l 1
 49 37 l 1
49 41 m 1
 47 41 l 1
 47 43 l 1
 49 43 l 1
 49 41 l 1
55 41 m 1
 53 41 l 1
 53 43 l 1
 55 43 l 1
 55 41 l 1
58 41 m 1
 56 41 l 1
 56 43 l 1
 57 43 l 1
 57 42 l 1
 58 42 l 1
 58 41 l 1
59 42 m 1
 58 42 l 1
 58 43 l 1
 60 43 l 1
 60 41 l 1
 59 41 l 1
 59 42 l 1
63 29 m 1
 61 29 l 1
 61 31 l 1
 63 31 l 1
 63 29 l 1
63 33 m 1
 61 33 l 1
 61 35 l 1
 63 35 l 1
 63 33 l 1
63 37 m 1
 61 37 l 1
 61 39 l 1
 63 39 l 1
 63 37 l 1
63 41 m 1
 61 41 l 1
 61 43 l 1
 63 43 l 1
 63 41 l 1
EndSplineSet
Ligature2: "'liga' Standard Ligatures in Latin lookup 0-1" one three zero four three
LCarets2: 1 0
EndChar

StartChar: custom_1_3_0_4_4
Encoding: 4200 -1 3955
Width: 70
Flags: H
LayerCount: 2
Fore
SplineSet
17 25 m 1
 15 25 l 1
 15 27 l 1
 17 27 l 1
 17 25 l 1
23 25 m 1
 21 25 l 1
 21 27 l 1
 23 27 l 1
 23 25 l 1
26 25 m 1
 24 25 l 1
 24 27 l 1
 25 27 l 1
 25 26 l 1
 26 26 l 1
 26 25 l 1
27 26 m 1
 26 26 l 1
 26 27 l 1
 28 27 l 1
 28 25 l 1
 27 25 l 1
 27 26 l 1
31 25 m 1
 29 25 l 1
 29 27 l 1
 31 27 l 1
 31 25 l 1
17 29 m 1
 15 29 l 1
 15 31 l 1
 17 31 l 1
 17 29 l 1
17 33 m 1
 15 33 l 1
 15 35 l 1
 17 35 l 1
 17 33 l 1
23 33 m 1
 21 33 l 1
 21 35 l 1
 23 35 l 1
 23 33 l 1
25 33 m 1
 24 33 l 1
 24 35 l 1
 26 35 l 1
 26 34 l 1
 25 34 l 1
 25 33 l 1
28 33 m 1
 26 33 l 1
 26 34 l 1
 27 34 l 1
 27 35 l 1
 28 35 l 1
 28 33 l 1
17 37 m 1
 15 37 l 1
 15 39 l 1
 17 39 l 1
 17 37 l 1
17 41 m 1
 15 41 l 1
 15 43 l 1
 17 43 l 1
 17 41 l 1
23 37 m 1
 21 37 l 1
 21 39 l 1
 23 39 l 1
 23 37 l 1
23 41 m 1
 21 41 l 1
 21 43 l 1
 23 43 l 1
 23 41 l 1
26 41 m 1
 24 41 l 1
 24 43 l 1
 25 43 l 1
 25 42 l 1
 26 42 l 1
 26 41 l 1
27 42 m 1
 26 42 l 1
 26 43 l 1
 28 43 l 1
 28 41 l 1
 27 41 l 1
 27 42 l 1
31 29 m 1
 29 29 l 1
 29 31 l 1
 31 31 l 1
 31 29 l 1
36 31 m 1
 34 31 l 1
 34 33 l 1
 36 33 l 1
 36 31 l 1
31 33 m 1
 29 33 l 1
 29 35 l 1
 31 35 l 1
 31 33 l 1
36 35 m 1
 34 35 l 1
 34 37 l 1
 36 37 l 1
 36 35 l 1
31 41 m 1
 29 41 l 1
 29 43 l 1
 31 43 l 1
 31 41 l 1
49 25 m 1
 47 25 l 1
 47 27 l 1
 49 27 l 1
 49 25 l 1
55 25 m 1
 53 25 l 1
 53 27 l 1
 55 27 l 1
 55 25 l 1
58 25 m 1
 56 25 l 1
 56 27 l 1
 57 27 l 1
 57 26 l 1
 58 26 l 1
 58 25 l 1
59 26 m 1
 58 26 l 1
 58 27 l 1
 60 27 l 1
 60 25 l 1
 59 25 l 1
 59 26 l 1
63 25 m 1
 61 25 l 1
 61 27 l 1
 63 27 l 1
 63 25 l 1
49 29 m 1
 47 29 l 1
 47 31 l 1
 49 31 l 1
 49 29 l 1
49 33 m 1
 47 33 l 1
 47 35 l 1
 49 35 l 1
 49 33 l 1
55 33 m 1
 53 33 l 1
 53 35 l 1
 55 35 l 1
 55 33 l 1
57 33 m 1
 56 33 l 1
 56 35 l 1
 58 35 l 1
 58 34 l 1
 57 34 l 1
 57 33 l 1
60 33 m 1
 58 33 l 1
 58 34 l 1
 59 34 l 1
 59 35 l 1
 60 35 l 1
 60 33 l 1
49 37 m 1
 47 37 l 1
 47 39 l 1
 49 39 l 1
 49 37 l 1
49 41 m 1
 47 41 l 1
 47 43 l 1
 49 43 l 1
 49 41 l 1
55 41 m 1
 53 41 l 1
 53 43 l 1
 55 43 l 1
 55 41 l 1
58 41 m 1
 56 41 l 1
 56 43 l 1
 57 43 l 1
 57 42 l 1
 58 42 l 1
 58 41 l 1
59 42 m 1
 58 42 l 1
 58 43 l 1
 60 43 l 1
 60 41 l 1
 59 41 l 1
 59 42 l 1
63 29 m 1
 61 29 l 1
 61 31 l 1
 63 31 l 1
 63 29 l 1
63 33 m 1
 61 33 l 1
 61 35 l 1
 63 35 l 1
 63 33 l 1
63 37 m 1
 61 37 l 1
 61 39 l 1
 63 39 l 1
 63 37 l 1
63 41 m 1
 61 41 l 1
 61 43 l 1
 63 43 l 1
 63 41 l 1
EndSplineSet
Ligature2: "'liga' Standard Ligatures in Latin lookup 0-1" one three zero four four
LCarets2: 1 0
EndChar

StartChar: custom_1_3_0_4_5
Encoding: 4201 -1 3956
Width: 70
Flags: H
LayerCount: 2
Fore
SplineSet
17 25 m 1
 15 25 l 1
 15 27 l 1
 17 27 l 1
 17 25 l 1
23 25 m 1
 21 25 l 1
 21 27 l 1
 23 27 l 1
 23 25 l 1
26 25 m 1
 24 25 l 1
 24 27 l 1
 25 27 l 1
 25 26 l 1
 26 26 l 1
 26 25 l 1
27 26 m 1
 26 26 l 1
 26 27 l 1
 28 27 l 1
 28 25 l 1
 27 25 l 1
 27 26 l 1
31 25 m 1
 29 25 l 1
 29 27 l 1
 31 27 l 1
 31 25 l 1
17 29 m 1
 15 29 l 1
 15 31 l 1
 17 31 l 1
 17 29 l 1
17 33 m 1
 15 33 l 1
 15 35 l 1
 17 35 l 1
 17 33 l 1
23 33 m 1
 21 33 l 1
 21 35 l 1
 23 35 l 1
 23 33 l 1
25 33 m 1
 24 33 l 1
 24 35 l 1
 26 35 l 1
 26 34 l 1
 25 34 l 1
 25 33 l 1
28 33 m 1
 26 33 l 1
 26 34 l 1
 27 34 l 1
 27 35 l 1
 28 35 l 1
 28 33 l 1
17 37 m 1
 15 37 l 1
 15 39 l 1
 17 39 l 1
 17 37 l 1
17 41 m 1
 15 41 l 1
 15 43 l 1
 17 43 l 1
 17 41 l 1
23 37 m 1
 21 37 l 1
 21 39 l 1
 23 39 l 1
 23 37 l 1
23 41 m 1
 21 41 l 1
 21 43 l 1
 23 43 l 1
 23 41 l 1
26 41 m 1
 24 41 l 1
 24 43 l 1
 25 43 l 1
 25 42 l 1
 26 42 l 1
 26 41 l 1
27 42 m 1
 26 42 l 1
 26 43 l 1
 28 43 l 1
 28 41 l 1
 27 41 l 1
 27 42 l 1
31 29 m 1
 29 29 l 1
 29 31 l 1
 31 31 l 1
 31 29 l 1
36 31 m 1
 34 31 l 1
 34 33 l 1
 36 33 l 1
 36 31 l 1
31 33 m 1
 29 33 l 1
 29 35 l 1
 31 35 l 1
 31 33 l 1
36 35 m 1
 34 35 l 1
 34 37 l 1
 36 37 l 1
 36 35 l 1
31 41 m 1
 29 41 l 1
 29 43 l 1
 31 43 l 1
 31 41 l 1
49 25 m 1
 47 25 l 1
 47 27 l 1
 49 27 l 1
 49 25 l 1
55 25 m 1
 53 25 l 1
 53 27 l 1
 55 27 l 1
 55 25 l 1
58 25 m 1
 56 25 l 1
 56 27 l 1
 57 27 l 1
 57 26 l 1
 58 26 l 1
 58 25 l 1
59 26 m 1
 58 26 l 1
 58 27 l 1
 60 27 l 1
 60 25 l 1
 59 25 l 1
 59 26 l 1
63 25 m 1
 61 25 l 1
 61 27 l 1
 63 27 l 1
 63 25 l 1
49 29 m 1
 47 29 l 1
 47 31 l 1
 49 31 l 1
 49 29 l 1
49 33 m 1
 47 33 l 1
 47 35 l 1
 49 35 l 1
 49 33 l 1
55 33 m 1
 53 33 l 1
 53 35 l 1
 55 35 l 1
 55 33 l 1
57 33 m 1
 56 33 l 1
 56 35 l 1
 58 35 l 1
 58 34 l 1
 57 34 l 1
 57 33 l 1
60 33 m 1
 58 33 l 1
 58 34 l 1
 59 34 l 1
 59 35 l 1
 60 35 l 1
 60 33 l 1
49 37 m 1
 47 37 l 1
 47 39 l 1
 49 39 l 1
 49 37 l 1
49 41 m 1
 47 41 l 1
 47 43 l 1
 49 43 l 1
 49 41 l 1
55 41 m 1
 53 41 l 1
 53 43 l 1
 55 43 l 1
 55 41 l 1
58 41 m 1
 56 41 l 1
 56 43 l 1
 57 43 l 1
 57 42 l 1
 58 42 l 1
 58 41 l 1
59 42 m 1
 58 42 l 1
 58 43 l 1
 60 43 l 1
 60 41 l 1
 59 41 l 1
 59 42 l 1
63 29 m 1
 61 29 l 1
 61 31 l 1
 63 31 l 1
 63 29 l 1
63 33 m 1
 61 33 l 1
 61 35 l 1
 63 35 l 1
 63 33 l 1
63 37 m 1
 61 37 l 1
 61 39 l 1
 63 39 l 1
 63 37 l 1
63 41 m 1
 61 41 l 1
 61 43 l 1
 63 43 l 1
 63 41 l 1
EndSplineSet
Ligature2: "'liga' Standard Ligatures in Latin lookup 0-1" one three zero four five
LCarets2: 1 0
EndChar

StartChar: custom_1_3_0_4_6
Encoding: 4202 -1 3957
Width: 70
Flags: H
LayerCount: 2
Fore
SplineSet
17 25 m 1
 15 25 l 1
 15 27 l 1
 17 27 l 1
 17 25 l 1
23 25 m 1
 21 25 l 1
 21 27 l 1
 23 27 l 1
 23 25 l 1
26 25 m 1
 24 25 l 1
 24 27 l 1
 25 27 l 1
 25 26 l 1
 26 26 l 1
 26 25 l 1
27 26 m 1
 26 26 l 1
 26 27 l 1
 28 27 l 1
 28 25 l 1
 27 25 l 1
 27 26 l 1
31 25 m 1
 29 25 l 1
 29 27 l 1
 31 27 l 1
 31 25 l 1
17 29 m 1
 15 29 l 1
 15 31 l 1
 17 31 l 1
 17 29 l 1
17 33 m 1
 15 33 l 1
 15 35 l 1
 17 35 l 1
 17 33 l 1
23 33 m 1
 21 33 l 1
 21 35 l 1
 23 35 l 1
 23 33 l 1
25 33 m 1
 24 33 l 1
 24 35 l 1
 26 35 l 1
 26 34 l 1
 25 34 l 1
 25 33 l 1
28 33 m 1
 26 33 l 1
 26 34 l 1
 27 34 l 1
 27 35 l 1
 28 35 l 1
 28 33 l 1
17 37 m 1
 15 37 l 1
 15 39 l 1
 17 39 l 1
 17 37 l 1
17 41 m 1
 15 41 l 1
 15 43 l 1
 17 43 l 1
 17 41 l 1
23 37 m 1
 21 37 l 1
 21 39 l 1
 23 39 l 1
 23 37 l 1
23 41 m 1
 21 41 l 1
 21 43 l 1
 23 43 l 1
 23 41 l 1
26 41 m 1
 24 41 l 1
 24 43 l 1
 25 43 l 1
 25 42 l 1
 26 42 l 1
 26 41 l 1
27 42 m 1
 26 42 l 1
 26 43 l 1
 28 43 l 1
 28 41 l 1
 27 41 l 1
 27 42 l 1
31 29 m 1
 29 29 l 1
 29 31 l 1
 31 31 l 1
 31 29 l 1
36 31 m 1
 34 31 l 1
 34 33 l 1
 36 33 l 1
 36 31 l 1
31 33 m 1
 29 33 l 1
 29 35 l 1
 31 35 l 1
 31 33 l 1
36 35 m 1
 34 35 l 1
 34 37 l 1
 36 37 l 1
 36 35 l 1
31 41 m 1
 29 41 l 1
 29 43 l 1
 31 43 l 1
 31 41 l 1
49 25 m 1
 47 25 l 1
 47 27 l 1
 49 27 l 1
 49 25 l 1
55 25 m 1
 53 25 l 1
 53 27 l 1
 55 27 l 1
 55 25 l 1
58 25 m 1
 56 25 l 1
 56 27 l 1
 57 27 l 1
 57 26 l 1
 58 26 l 1
 58 25 l 1
59 26 m 1
 58 26 l 1
 58 27 l 1
 60 27 l 1
 60 25 l 1
 59 25 l 1
 59 26 l 1
63 25 m 1
 61 25 l 1
 61 27 l 1
 63 27 l 1
 63 25 l 1
49 29 m 1
 47 29 l 1
 47 31 l 1
 49 31 l 1
 49 29 l 1
49 33 m 1
 47 33 l 1
 47 35 l 1
 49 35 l 1
 49 33 l 1
55 33 m 1
 53 33 l 1
 53 35 l 1
 55 35 l 1
 55 33 l 1
57 33 m 1
 56 33 l 1
 56 35 l 1
 58 35 l 1
 58 34 l 1
 57 34 l 1
 57 33 l 1
60 33 m 1
 58 33 l 1
 58 34 l 1
 59 34 l 1
 59 35 l 1
 60 35 l 1
 60 33 l 1
49 37 m 1
 47 37 l 1
 47 39 l 1
 49 39 l 1
 49 37 l 1
49 41 m 1
 47 41 l 1
 47 43 l 1
 49 43 l 1
 49 41 l 1
55 41 m 1
 53 41 l 1
 53 43 l 1
 55 43 l 1
 55 41 l 1
58 41 m 1
 56 41 l 1
 56 43 l 1
 57 43 l 1
 57 42 l 1
 58 42 l 1
 58 41 l 1
59 42 m 1
 58 42 l 1
 58 43 l 1
 60 43 l 1
 60 41 l 1
 59 41 l 1
 59 42 l 1
63 29 m 1
 61 29 l 1
 61 31 l 1
 63 31 l 1
 63 29 l 1
63 33 m 1
 61 33 l 1
 61 35 l 1
 63 35 l 1
 63 33 l 1
63 37 m 1
 61 37 l 1
 61 39 l 1
 63 39 l 1
 63 37 l 1
63 41 m 1
 61 41 l 1
 61 43 l 1
 63 43 l 1
 63 41 l 1
EndSplineSet
Ligature2: "'liga' Standard Ligatures in Latin lookup 0-1" one three zero four six
LCarets2: 1 0
EndChar

StartChar: custom_1_3_0_4_7
Encoding: 4203 -1 3958
Width: 70
Flags: H
LayerCount: 2
Fore
SplineSet
17 25 m 1
 15 25 l 1
 15 27 l 1
 17 27 l 1
 17 25 l 1
23 25 m 1
 21 25 l 1
 21 27 l 1
 23 27 l 1
 23 25 l 1
26 25 m 1
 24 25 l 1
 24 27 l 1
 25 27 l 1
 25 26 l 1
 26 26 l 1
 26 25 l 1
27 26 m 1
 26 26 l 1
 26 27 l 1
 28 27 l 1
 28 25 l 1
 27 25 l 1
 27 26 l 1
31 25 m 1
 29 25 l 1
 29 27 l 1
 31 27 l 1
 31 25 l 1
17 29 m 1
 15 29 l 1
 15 31 l 1
 17 31 l 1
 17 29 l 1
17 33 m 1
 15 33 l 1
 15 35 l 1
 17 35 l 1
 17 33 l 1
23 33 m 1
 21 33 l 1
 21 35 l 1
 23 35 l 1
 23 33 l 1
25 33 m 1
 24 33 l 1
 24 35 l 1
 26 35 l 1
 26 34 l 1
 25 34 l 1
 25 33 l 1
28 33 m 1
 26 33 l 1
 26 34 l 1
 27 34 l 1
 27 35 l 1
 28 35 l 1
 28 33 l 1
17 37 m 1
 15 37 l 1
 15 39 l 1
 17 39 l 1
 17 37 l 1
17 41 m 1
 15 41 l 1
 15 43 l 1
 17 43 l 1
 17 41 l 1
23 37 m 1
 21 37 l 1
 21 39 l 1
 23 39 l 1
 23 37 l 1
23 41 m 1
 21 41 l 1
 21 43 l 1
 23 43 l 1
 23 41 l 1
26 41 m 1
 24 41 l 1
 24 43 l 1
 25 43 l 1
 25 42 l 1
 26 42 l 1
 26 41 l 1
27 42 m 1
 26 42 l 1
 26 43 l 1
 28 43 l 1
 28 41 l 1
 27 41 l 1
 27 42 l 1
31 29 m 1
 29 29 l 1
 29 31 l 1
 31 31 l 1
 31 29 l 1
36 31 m 1
 34 31 l 1
 34 33 l 1
 36 33 l 1
 36 31 l 1
31 33 m 1
 29 33 l 1
 29 35 l 1
 31 35 l 1
 31 33 l 1
36 35 m 1
 34 35 l 1
 34 37 l 1
 36 37 l 1
 36 35 l 1
31 41 m 1
 29 41 l 1
 29 43 l 1
 31 43 l 1
 31 41 l 1
49 25 m 1
 47 25 l 1
 47 27 l 1
 49 27 l 1
 49 25 l 1
55 25 m 1
 53 25 l 1
 53 27 l 1
 55 27 l 1
 55 25 l 1
58 25 m 1
 56 25 l 1
 56 27 l 1
 57 27 l 1
 57 26 l 1
 58 26 l 1
 58 25 l 1
59 26 m 1
 58 26 l 1
 58 27 l 1
 60 27 l 1
 60 25 l 1
 59 25 l 1
 59 26 l 1
63 25 m 1
 61 25 l 1
 61 27 l 1
 63 27 l 1
 63 25 l 1
49 29 m 1
 47 29 l 1
 47 31 l 1
 49 31 l 1
 49 29 l 1
49 33 m 1
 47 33 l 1
 47 35 l 1
 49 35 l 1
 49 33 l 1
55 33 m 1
 53 33 l 1
 53 35 l 1
 55 35 l 1
 55 33 l 1
57 33 m 1
 56 33 l 1
 56 35 l 1
 58 35 l 1
 58 34 l 1
 57 34 l 1
 57 33 l 1
60 33 m 1
 58 33 l 1
 58 34 l 1
 59 34 l 1
 59 35 l 1
 60 35 l 1
 60 33 l 1
49 37 m 1
 47 37 l 1
 47 39 l 1
 49 39 l 1
 49 37 l 1
49 41 m 1
 47 41 l 1
 47 43 l 1
 49 43 l 1
 49 41 l 1
55 41 m 1
 53 41 l 1
 53 43 l 1
 55 43 l 1
 55 41 l 1
58 41 m 1
 56 41 l 1
 56 43 l 1
 57 43 l 1
 57 42 l 1
 58 42 l 1
 58 41 l 1
59 42 m 1
 58 42 l 1
 58 43 l 1
 60 43 l 1
 60 41 l 1
 59 41 l 1
 59 42 l 1
63 29 m 1
 61 29 l 1
 61 31 l 1
 63 31 l 1
 63 29 l 1
63 33 m 1
 61 33 l 1
 61 35 l 1
 63 35 l 1
 63 33 l 1
63 37 m 1
 61 37 l 1
 61 39 l 1
 63 39 l 1
 63 37 l 1
63 41 m 1
 61 41 l 1
 61 43 l 1
 63 43 l 1
 63 41 l 1
EndSplineSet
Ligature2: "'liga' Standard Ligatures in Latin lookup 0-1" one three zero four seven
LCarets2: 1 0
EndChar

StartChar: custom_1_3_0_4_8
Encoding: 4204 -1 3959
Width: 70
Flags: H
LayerCount: 2
Fore
SplineSet
17 25 m 1
 15 25 l 1
 15 27 l 1
 17 27 l 1
 17 25 l 1
23 25 m 1
 21 25 l 1
 21 27 l 1
 23 27 l 1
 23 25 l 1
26 25 m 1
 24 25 l 1
 24 27 l 1
 25 27 l 1
 25 26 l 1
 26 26 l 1
 26 25 l 1
27 26 m 1
 26 26 l 1
 26 27 l 1
 28 27 l 1
 28 25 l 1
 27 25 l 1
 27 26 l 1
31 25 m 1
 29 25 l 1
 29 27 l 1
 31 27 l 1
 31 25 l 1
17 29 m 1
 15 29 l 1
 15 31 l 1
 17 31 l 1
 17 29 l 1
17 33 m 1
 15 33 l 1
 15 35 l 1
 17 35 l 1
 17 33 l 1
23 33 m 1
 21 33 l 1
 21 35 l 1
 23 35 l 1
 23 33 l 1
25 33 m 1
 24 33 l 1
 24 35 l 1
 26 35 l 1
 26 34 l 1
 25 34 l 1
 25 33 l 1
28 33 m 1
 26 33 l 1
 26 34 l 1
 27 34 l 1
 27 35 l 1
 28 35 l 1
 28 33 l 1
17 37 m 1
 15 37 l 1
 15 39 l 1
 17 39 l 1
 17 37 l 1
17 41 m 1
 15 41 l 1
 15 43 l 1
 17 43 l 1
 17 41 l 1
23 37 m 1
 21 37 l 1
 21 39 l 1
 23 39 l 1
 23 37 l 1
23 41 m 1
 21 41 l 1
 21 43 l 1
 23 43 l 1
 23 41 l 1
26 41 m 1
 24 41 l 1
 24 43 l 1
 25 43 l 1
 25 42 l 1
 26 42 l 1
 26 41 l 1
27 42 m 1
 26 42 l 1
 26 43 l 1
 28 43 l 1
 28 41 l 1
 27 41 l 1
 27 42 l 1
31 29 m 1
 29 29 l 1
 29 31 l 1
 31 31 l 1
 31 29 l 1
36 31 m 1
 34 31 l 1
 34 33 l 1
 36 33 l 1
 36 31 l 1
31 33 m 1
 29 33 l 1
 29 35 l 1
 31 35 l 1
 31 33 l 1
36 35 m 1
 34 35 l 1
 34 37 l 1
 36 37 l 1
 36 35 l 1
31 41 m 1
 29 41 l 1
 29 43 l 1
 31 43 l 1
 31 41 l 1
49 25 m 1
 47 25 l 1
 47 27 l 1
 49 27 l 1
 49 25 l 1
55 25 m 1
 53 25 l 1
 53 27 l 1
 55 27 l 1
 55 25 l 1
58 25 m 1
 56 25 l 1
 56 27 l 1
 57 27 l 1
 57 26 l 1
 58 26 l 1
 58 25 l 1
59 26 m 1
 58 26 l 1
 58 27 l 1
 60 27 l 1
 60 25 l 1
 59 25 l 1
 59 26 l 1
63 25 m 1
 61 25 l 1
 61 27 l 1
 63 27 l 1
 63 25 l 1
49 29 m 1
 47 29 l 1
 47 31 l 1
 49 31 l 1
 49 29 l 1
49 33 m 1
 47 33 l 1
 47 35 l 1
 49 35 l 1
 49 33 l 1
55 33 m 1
 53 33 l 1
 53 35 l 1
 55 35 l 1
 55 33 l 1
57 33 m 1
 56 33 l 1
 56 35 l 1
 58 35 l 1
 58 34 l 1
 57 34 l 1
 57 33 l 1
60 33 m 1
 58 33 l 1
 58 34 l 1
 59 34 l 1
 59 35 l 1
 60 35 l 1
 60 33 l 1
49 37 m 1
 47 37 l 1
 47 39 l 1
 49 39 l 1
 49 37 l 1
49 41 m 1
 47 41 l 1
 47 43 l 1
 49 43 l 1
 49 41 l 1
55 41 m 1
 53 41 l 1
 53 43 l 1
 55 43 l 1
 55 41 l 1
58 41 m 1
 56 41 l 1
 56 43 l 1
 57 43 l 1
 57 42 l 1
 58 42 l 1
 58 41 l 1
59 42 m 1
 58 42 l 1
 58 43 l 1
 60 43 l 1
 60 41 l 1
 59 41 l 1
 59 42 l 1
63 29 m 1
 61 29 l 1
 61 31 l 1
 63 31 l 1
 63 29 l 1
63 33 m 1
 61 33 l 1
 61 35 l 1
 63 35 l 1
 63 33 l 1
63 37 m 1
 61 37 l 1
 61 39 l 1
 63 39 l 1
 63 37 l 1
63 41 m 1
 61 41 l 1
 61 43 l 1
 63 43 l 1
 63 41 l 1
EndSplineSet
Ligature2: "'liga' Standard Ligatures in Latin lookup 0-1" one three zero four eight
LCarets2: 1 0
EndChar

StartChar: custom_1_3_0_4_9
Encoding: 4205 -1 3960
Width: 70
Flags: H
LayerCount: 2
Fore
SplineSet
17 25 m 1
 15 25 l 1
 15 27 l 1
 17 27 l 1
 17 25 l 1
23 25 m 1
 21 25 l 1
 21 27 l 1
 23 27 l 1
 23 25 l 1
26 25 m 1
 24 25 l 1
 24 27 l 1
 25 27 l 1
 25 26 l 1
 26 26 l 1
 26 25 l 1
27 26 m 1
 26 26 l 1
 26 27 l 1
 28 27 l 1
 28 25 l 1
 27 25 l 1
 27 26 l 1
31 25 m 1
 29 25 l 1
 29 27 l 1
 31 27 l 1
 31 25 l 1
17 29 m 1
 15 29 l 1
 15 31 l 1
 17 31 l 1
 17 29 l 1
17 33 m 1
 15 33 l 1
 15 35 l 1
 17 35 l 1
 17 33 l 1
23 33 m 1
 21 33 l 1
 21 35 l 1
 23 35 l 1
 23 33 l 1
25 33 m 1
 24 33 l 1
 24 35 l 1
 26 35 l 1
 26 34 l 1
 25 34 l 1
 25 33 l 1
28 33 m 1
 26 33 l 1
 26 34 l 1
 27 34 l 1
 27 35 l 1
 28 35 l 1
 28 33 l 1
17 37 m 1
 15 37 l 1
 15 39 l 1
 17 39 l 1
 17 37 l 1
17 41 m 1
 15 41 l 1
 15 43 l 1
 17 43 l 1
 17 41 l 1
23 37 m 1
 21 37 l 1
 21 39 l 1
 23 39 l 1
 23 37 l 1
23 41 m 1
 21 41 l 1
 21 43 l 1
 23 43 l 1
 23 41 l 1
26 41 m 1
 24 41 l 1
 24 43 l 1
 25 43 l 1
 25 42 l 1
 26 42 l 1
 26 41 l 1
27 42 m 1
 26 42 l 1
 26 43 l 1
 28 43 l 1
 28 41 l 1
 27 41 l 1
 27 42 l 1
31 29 m 1
 29 29 l 1
 29 31 l 1
 31 31 l 1
 31 29 l 1
36 31 m 1
 34 31 l 1
 34 33 l 1
 36 33 l 1
 36 31 l 1
31 33 m 1
 29 33 l 1
 29 35 l 1
 31 35 l 1
 31 33 l 1
36 35 m 1
 34 35 l 1
 34 37 l 1
 36 37 l 1
 36 35 l 1
31 41 m 1
 29 41 l 1
 29 43 l 1
 31 43 l 1
 31 41 l 1
49 25 m 1
 47 25 l 1
 47 27 l 1
 49 27 l 1
 49 25 l 1
55 25 m 1
 53 25 l 1
 53 27 l 1
 55 27 l 1
 55 25 l 1
58 25 m 1
 56 25 l 1
 56 27 l 1
 57 27 l 1
 57 26 l 1
 58 26 l 1
 58 25 l 1
59 26 m 1
 58 26 l 1
 58 27 l 1
 60 27 l 1
 60 25 l 1
 59 25 l 1
 59 26 l 1
63 25 m 1
 61 25 l 1
 61 27 l 1
 63 27 l 1
 63 25 l 1
49 29 m 1
 47 29 l 1
 47 31 l 1
 49 31 l 1
 49 29 l 1
49 33 m 1
 47 33 l 1
 47 35 l 1
 49 35 l 1
 49 33 l 1
55 33 m 1
 53 33 l 1
 53 35 l 1
 55 35 l 1
 55 33 l 1
57 33 m 1
 56 33 l 1
 56 35 l 1
 58 35 l 1
 58 34 l 1
 57 34 l 1
 57 33 l 1
60 33 m 1
 58 33 l 1
 58 34 l 1
 59 34 l 1
 59 35 l 1
 60 35 l 1
 60 33 l 1
49 37 m 1
 47 37 l 1
 47 39 l 1
 49 39 l 1
 49 37 l 1
49 41 m 1
 47 41 l 1
 47 43 l 1
 49 43 l 1
 49 41 l 1
55 41 m 1
 53 41 l 1
 53 43 l 1
 55 43 l 1
 55 41 l 1
58 41 m 1
 56 41 l 1
 56 43 l 1
 57 43 l 1
 57 42 l 1
 58 42 l 1
 58 41 l 1
59 42 m 1
 58 42 l 1
 58 43 l 1
 60 43 l 1
 60 41 l 1
 59 41 l 1
 59 42 l 1
63 29 m 1
 61 29 l 1
 61 31 l 1
 63 31 l 1
 63 29 l 1
63 33 m 1
 61 33 l 1
 61 35 l 1
 63 35 l 1
 63 33 l 1
63 37 m 1
 61 37 l 1
 61 39 l 1
 63 39 l 1
 63 37 l 1
63 41 m 1
 61 41 l 1
 61 43 l 1
 63 43 l 1
 63 41 l 1
EndSplineSet
Ligature2: "'liga' Standard Ligatures in Latin lookup 0-1" one three zero four nine
LCarets2: 1 0
EndChar

StartChar: custom_1_3_0_5_0
Encoding: 4206 -1 3961
Width: 70
Flags: H
LayerCount: 2
Fore
SplineSet
17 25 m 1
 15 25 l 1
 15 27 l 1
 17 27 l 1
 17 25 l 1
23 25 m 1
 21 25 l 1
 21 27 l 1
 23 27 l 1
 23 25 l 1
26 25 m 1
 24 25 l 1
 24 27 l 1
 25 27 l 1
 25 26 l 1
 26 26 l 1
 26 25 l 1
27 26 m 1
 26 26 l 1
 26 27 l 1
 28 27 l 1
 28 25 l 1
 27 25 l 1
 27 26 l 1
31 25 m 1
 29 25 l 1
 29 27 l 1
 31 27 l 1
 31 25 l 1
17 29 m 1
 15 29 l 1
 15 31 l 1
 17 31 l 1
 17 29 l 1
17 33 m 1
 15 33 l 1
 15 35 l 1
 17 35 l 1
 17 33 l 1
23 33 m 1
 21 33 l 1
 21 35 l 1
 23 35 l 1
 23 33 l 1
25 33 m 1
 24 33 l 1
 24 35 l 1
 26 35 l 1
 26 34 l 1
 25 34 l 1
 25 33 l 1
28 33 m 1
 26 33 l 1
 26 34 l 1
 27 34 l 1
 27 35 l 1
 28 35 l 1
 28 33 l 1
17 37 m 1
 15 37 l 1
 15 39 l 1
 17 39 l 1
 17 37 l 1
17 41 m 1
 15 41 l 1
 15 43 l 1
 17 43 l 1
 17 41 l 1
23 37 m 1
 21 37 l 1
 21 39 l 1
 23 39 l 1
 23 37 l 1
23 41 m 1
 21 41 l 1
 21 43 l 1
 23 43 l 1
 23 41 l 1
26 41 m 1
 24 41 l 1
 24 43 l 1
 25 43 l 1
 25 42 l 1
 26 42 l 1
 26 41 l 1
27 42 m 1
 26 42 l 1
 26 43 l 1
 28 43 l 1
 28 41 l 1
 27 41 l 1
 27 42 l 1
31 29 m 1
 29 29 l 1
 29 31 l 1
 31 31 l 1
 31 29 l 1
36 31 m 1
 34 31 l 1
 34 33 l 1
 36 33 l 1
 36 31 l 1
31 33 m 1
 29 33 l 1
 29 35 l 1
 31 35 l 1
 31 33 l 1
36 35 m 1
 34 35 l 1
 34 37 l 1
 36 37 l 1
 36 35 l 1
31 41 m 1
 29 41 l 1
 29 43 l 1
 31 43 l 1
 31 41 l 1
49 25 m 1
 47 25 l 1
 47 27 l 1
 49 27 l 1
 49 25 l 1
55 25 m 1
 53 25 l 1
 53 27 l 1
 55 27 l 1
 55 25 l 1
58 25 m 1
 56 25 l 1
 56 27 l 1
 57 27 l 1
 57 26 l 1
 58 26 l 1
 58 25 l 1
59 26 m 1
 58 26 l 1
 58 27 l 1
 60 27 l 1
 60 25 l 1
 59 25 l 1
 59 26 l 1
63 25 m 1
 61 25 l 1
 61 27 l 1
 63 27 l 1
 63 25 l 1
49 29 m 1
 47 29 l 1
 47 31 l 1
 49 31 l 1
 49 29 l 1
49 33 m 1
 47 33 l 1
 47 35 l 1
 49 35 l 1
 49 33 l 1
55 33 m 1
 53 33 l 1
 53 35 l 1
 55 35 l 1
 55 33 l 1
57 33 m 1
 56 33 l 1
 56 35 l 1
 58 35 l 1
 58 34 l 1
 57 34 l 1
 57 33 l 1
60 33 m 1
 58 33 l 1
 58 34 l 1
 59 34 l 1
 59 35 l 1
 60 35 l 1
 60 33 l 1
49 37 m 1
 47 37 l 1
 47 39 l 1
 49 39 l 1
 49 37 l 1
49 41 m 1
 47 41 l 1
 47 43 l 1
 49 43 l 1
 49 41 l 1
55 41 m 1
 53 41 l 1
 53 43 l 1
 55 43 l 1
 55 41 l 1
58 41 m 1
 56 41 l 1
 56 43 l 1
 57 43 l 1
 57 42 l 1
 58 42 l 1
 58 41 l 1
59 42 m 1
 58 42 l 1
 58 43 l 1
 60 43 l 1
 60 41 l 1
 59 41 l 1
 59 42 l 1
63 29 m 1
 61 29 l 1
 61 31 l 1
 63 31 l 1
 63 29 l 1
63 33 m 1
 61 33 l 1
 61 35 l 1
 63 35 l 1
 63 33 l 1
63 37 m 1
 61 37 l 1
 61 39 l 1
 63 39 l 1
 63 37 l 1
63 41 m 1
 61 41 l 1
 61 43 l 1
 63 43 l 1
 63 41 l 1
EndSplineSet
Ligature2: "'liga' Standard Ligatures in Latin lookup 0-1" one three zero five zero
LCarets2: 1 0
EndChar

StartChar: custom_1_3_0_5_1
Encoding: 4207 -1 3962
Width: 70
Flags: H
LayerCount: 2
Fore
SplineSet
17 25 m 1
 15 25 l 1
 15 27 l 1
 17 27 l 1
 17 25 l 1
23 25 m 1
 21 25 l 1
 21 27 l 1
 23 27 l 1
 23 25 l 1
26 25 m 1
 24 25 l 1
 24 27 l 1
 25 27 l 1
 25 26 l 1
 26 26 l 1
 26 25 l 1
27 26 m 1
 26 26 l 1
 26 27 l 1
 28 27 l 1
 28 25 l 1
 27 25 l 1
 27 26 l 1
31 25 m 1
 29 25 l 1
 29 27 l 1
 31 27 l 1
 31 25 l 1
17 29 m 1
 15 29 l 1
 15 31 l 1
 17 31 l 1
 17 29 l 1
17 33 m 1
 15 33 l 1
 15 35 l 1
 17 35 l 1
 17 33 l 1
23 33 m 1
 21 33 l 1
 21 35 l 1
 23 35 l 1
 23 33 l 1
25 33 m 1
 24 33 l 1
 24 35 l 1
 26 35 l 1
 26 34 l 1
 25 34 l 1
 25 33 l 1
28 33 m 1
 26 33 l 1
 26 34 l 1
 27 34 l 1
 27 35 l 1
 28 35 l 1
 28 33 l 1
17 37 m 1
 15 37 l 1
 15 39 l 1
 17 39 l 1
 17 37 l 1
17 41 m 1
 15 41 l 1
 15 43 l 1
 17 43 l 1
 17 41 l 1
23 37 m 1
 21 37 l 1
 21 39 l 1
 23 39 l 1
 23 37 l 1
23 41 m 1
 21 41 l 1
 21 43 l 1
 23 43 l 1
 23 41 l 1
26 41 m 1
 24 41 l 1
 24 43 l 1
 25 43 l 1
 25 42 l 1
 26 42 l 1
 26 41 l 1
27 42 m 1
 26 42 l 1
 26 43 l 1
 28 43 l 1
 28 41 l 1
 27 41 l 1
 27 42 l 1
31 29 m 1
 29 29 l 1
 29 31 l 1
 31 31 l 1
 31 29 l 1
36 31 m 1
 34 31 l 1
 34 33 l 1
 36 33 l 1
 36 31 l 1
31 33 m 1
 29 33 l 1
 29 35 l 1
 31 35 l 1
 31 33 l 1
36 35 m 1
 34 35 l 1
 34 37 l 1
 36 37 l 1
 36 35 l 1
31 41 m 1
 29 41 l 1
 29 43 l 1
 31 43 l 1
 31 41 l 1
49 25 m 1
 47 25 l 1
 47 27 l 1
 49 27 l 1
 49 25 l 1
55 25 m 1
 53 25 l 1
 53 27 l 1
 55 27 l 1
 55 25 l 1
58 25 m 1
 56 25 l 1
 56 27 l 1
 57 27 l 1
 57 26 l 1
 58 26 l 1
 58 25 l 1
59 26 m 1
 58 26 l 1
 58 27 l 1
 60 27 l 1
 60 25 l 1
 59 25 l 1
 59 26 l 1
63 25 m 1
 61 25 l 1
 61 27 l 1
 63 27 l 1
 63 25 l 1
49 29 m 1
 47 29 l 1
 47 31 l 1
 49 31 l 1
 49 29 l 1
49 33 m 1
 47 33 l 1
 47 35 l 1
 49 35 l 1
 49 33 l 1
55 33 m 1
 53 33 l 1
 53 35 l 1
 55 35 l 1
 55 33 l 1
57 33 m 1
 56 33 l 1
 56 35 l 1
 58 35 l 1
 58 34 l 1
 57 34 l 1
 57 33 l 1
60 33 m 1
 58 33 l 1
 58 34 l 1
 59 34 l 1
 59 35 l 1
 60 35 l 1
 60 33 l 1
49 37 m 1
 47 37 l 1
 47 39 l 1
 49 39 l 1
 49 37 l 1
49 41 m 1
 47 41 l 1
 47 43 l 1
 49 43 l 1
 49 41 l 1
55 41 m 1
 53 41 l 1
 53 43 l 1
 55 43 l 1
 55 41 l 1
58 41 m 1
 56 41 l 1
 56 43 l 1
 57 43 l 1
 57 42 l 1
 58 42 l 1
 58 41 l 1
59 42 m 1
 58 42 l 1
 58 43 l 1
 60 43 l 1
 60 41 l 1
 59 41 l 1
 59 42 l 1
63 29 m 1
 61 29 l 1
 61 31 l 1
 63 31 l 1
 63 29 l 1
63 33 m 1
 61 33 l 1
 61 35 l 1
 63 35 l 1
 63 33 l 1
63 37 m 1
 61 37 l 1
 61 39 l 1
 63 39 l 1
 63 37 l 1
63 41 m 1
 61 41 l 1
 61 43 l 1
 63 43 l 1
 63 41 l 1
EndSplineSet
Ligature2: "'liga' Standard Ligatures in Latin lookup 0-1" one three zero five one
LCarets2: 1 0
EndChar

StartChar: custom_1_3_0_5_2
Encoding: 4208 -1 3963
Width: 70
Flags: H
LayerCount: 2
Fore
SplineSet
17 25 m 1
 15 25 l 1
 15 27 l 1
 17 27 l 1
 17 25 l 1
23 25 m 1
 21 25 l 1
 21 27 l 1
 23 27 l 1
 23 25 l 1
26 25 m 1
 24 25 l 1
 24 27 l 1
 25 27 l 1
 25 26 l 1
 26 26 l 1
 26 25 l 1
27 26 m 1
 26 26 l 1
 26 27 l 1
 28 27 l 1
 28 25 l 1
 27 25 l 1
 27 26 l 1
31 25 m 1
 29 25 l 1
 29 27 l 1
 31 27 l 1
 31 25 l 1
17 29 m 1
 15 29 l 1
 15 31 l 1
 17 31 l 1
 17 29 l 1
17 33 m 1
 15 33 l 1
 15 35 l 1
 17 35 l 1
 17 33 l 1
23 33 m 1
 21 33 l 1
 21 35 l 1
 23 35 l 1
 23 33 l 1
25 33 m 1
 24 33 l 1
 24 35 l 1
 26 35 l 1
 26 34 l 1
 25 34 l 1
 25 33 l 1
28 33 m 1
 26 33 l 1
 26 34 l 1
 27 34 l 1
 27 35 l 1
 28 35 l 1
 28 33 l 1
17 37 m 1
 15 37 l 1
 15 39 l 1
 17 39 l 1
 17 37 l 1
17 41 m 1
 15 41 l 1
 15 43 l 1
 17 43 l 1
 17 41 l 1
23 37 m 1
 21 37 l 1
 21 39 l 1
 23 39 l 1
 23 37 l 1
23 41 m 1
 21 41 l 1
 21 43 l 1
 23 43 l 1
 23 41 l 1
26 41 m 1
 24 41 l 1
 24 43 l 1
 25 43 l 1
 25 42 l 1
 26 42 l 1
 26 41 l 1
27 42 m 1
 26 42 l 1
 26 43 l 1
 28 43 l 1
 28 41 l 1
 27 41 l 1
 27 42 l 1
31 29 m 1
 29 29 l 1
 29 31 l 1
 31 31 l 1
 31 29 l 1
36 31 m 1
 34 31 l 1
 34 33 l 1
 36 33 l 1
 36 31 l 1
31 33 m 1
 29 33 l 1
 29 35 l 1
 31 35 l 1
 31 33 l 1
36 35 m 1
 34 35 l 1
 34 37 l 1
 36 37 l 1
 36 35 l 1
31 41 m 1
 29 41 l 1
 29 43 l 1
 31 43 l 1
 31 41 l 1
49 25 m 1
 47 25 l 1
 47 27 l 1
 49 27 l 1
 49 25 l 1
55 25 m 1
 53 25 l 1
 53 27 l 1
 55 27 l 1
 55 25 l 1
58 25 m 1
 56 25 l 1
 56 27 l 1
 57 27 l 1
 57 26 l 1
 58 26 l 1
 58 25 l 1
59 26 m 1
 58 26 l 1
 58 27 l 1
 60 27 l 1
 60 25 l 1
 59 25 l 1
 59 26 l 1
63 25 m 1
 61 25 l 1
 61 27 l 1
 63 27 l 1
 63 25 l 1
49 29 m 1
 47 29 l 1
 47 31 l 1
 49 31 l 1
 49 29 l 1
49 33 m 1
 47 33 l 1
 47 35 l 1
 49 35 l 1
 49 33 l 1
55 33 m 1
 53 33 l 1
 53 35 l 1
 55 35 l 1
 55 33 l 1
57 33 m 1
 56 33 l 1
 56 35 l 1
 58 35 l 1
 58 34 l 1
 57 34 l 1
 57 33 l 1
60 33 m 1
 58 33 l 1
 58 34 l 1
 59 34 l 1
 59 35 l 1
 60 35 l 1
 60 33 l 1
49 37 m 1
 47 37 l 1
 47 39 l 1
 49 39 l 1
 49 37 l 1
49 41 m 1
 47 41 l 1
 47 43 l 1
 49 43 l 1
 49 41 l 1
55 41 m 1
 53 41 l 1
 53 43 l 1
 55 43 l 1
 55 41 l 1
58 41 m 1
 56 41 l 1
 56 43 l 1
 57 43 l 1
 57 42 l 1
 58 42 l 1
 58 41 l 1
59 42 m 1
 58 42 l 1
 58 43 l 1
 60 43 l 1
 60 41 l 1
 59 41 l 1
 59 42 l 1
63 29 m 1
 61 29 l 1
 61 31 l 1
 63 31 l 1
 63 29 l 1
63 33 m 1
 61 33 l 1
 61 35 l 1
 63 35 l 1
 63 33 l 1
63 37 m 1
 61 37 l 1
 61 39 l 1
 63 39 l 1
 63 37 l 1
63 41 m 1
 61 41 l 1
 61 43 l 1
 63 43 l 1
 63 41 l 1
EndSplineSet
Ligature2: "'liga' Standard Ligatures in Latin lookup 0-1" one three zero five two
LCarets2: 1 0
EndChar

StartChar: custom_1_3_0_5_3
Encoding: 4209 -1 3964
Width: 70
Flags: H
LayerCount: 2
Fore
SplineSet
17 25 m 1
 15 25 l 1
 15 27 l 1
 17 27 l 1
 17 25 l 1
23 25 m 1
 21 25 l 1
 21 27 l 1
 23 27 l 1
 23 25 l 1
26 25 m 1
 24 25 l 1
 24 27 l 1
 25 27 l 1
 25 26 l 1
 26 26 l 1
 26 25 l 1
27 26 m 1
 26 26 l 1
 26 27 l 1
 28 27 l 1
 28 25 l 1
 27 25 l 1
 27 26 l 1
31 25 m 1
 29 25 l 1
 29 27 l 1
 31 27 l 1
 31 25 l 1
17 29 m 1
 15 29 l 1
 15 31 l 1
 17 31 l 1
 17 29 l 1
17 33 m 1
 15 33 l 1
 15 35 l 1
 17 35 l 1
 17 33 l 1
23 33 m 1
 21 33 l 1
 21 35 l 1
 23 35 l 1
 23 33 l 1
25 33 m 1
 24 33 l 1
 24 35 l 1
 26 35 l 1
 26 34 l 1
 25 34 l 1
 25 33 l 1
28 33 m 1
 26 33 l 1
 26 34 l 1
 27 34 l 1
 27 35 l 1
 28 35 l 1
 28 33 l 1
17 37 m 1
 15 37 l 1
 15 39 l 1
 17 39 l 1
 17 37 l 1
17 41 m 1
 15 41 l 1
 15 43 l 1
 17 43 l 1
 17 41 l 1
23 37 m 1
 21 37 l 1
 21 39 l 1
 23 39 l 1
 23 37 l 1
23 41 m 1
 21 41 l 1
 21 43 l 1
 23 43 l 1
 23 41 l 1
26 41 m 1
 24 41 l 1
 24 43 l 1
 25 43 l 1
 25 42 l 1
 26 42 l 1
 26 41 l 1
27 42 m 1
 26 42 l 1
 26 43 l 1
 28 43 l 1
 28 41 l 1
 27 41 l 1
 27 42 l 1
31 29 m 1
 29 29 l 1
 29 31 l 1
 31 31 l 1
 31 29 l 1
36 31 m 1
 34 31 l 1
 34 33 l 1
 36 33 l 1
 36 31 l 1
31 33 m 1
 29 33 l 1
 29 35 l 1
 31 35 l 1
 31 33 l 1
36 35 m 1
 34 35 l 1
 34 37 l 1
 36 37 l 1
 36 35 l 1
31 41 m 1
 29 41 l 1
 29 43 l 1
 31 43 l 1
 31 41 l 1
49 25 m 1
 47 25 l 1
 47 27 l 1
 49 27 l 1
 49 25 l 1
55 25 m 1
 53 25 l 1
 53 27 l 1
 55 27 l 1
 55 25 l 1
58 25 m 1
 56 25 l 1
 56 27 l 1
 57 27 l 1
 57 26 l 1
 58 26 l 1
 58 25 l 1
59 26 m 1
 58 26 l 1
 58 27 l 1
 60 27 l 1
 60 25 l 1
 59 25 l 1
 59 26 l 1
63 25 m 1
 61 25 l 1
 61 27 l 1
 63 27 l 1
 63 25 l 1
49 29 m 1
 47 29 l 1
 47 31 l 1
 49 31 l 1
 49 29 l 1
49 33 m 1
 47 33 l 1
 47 35 l 1
 49 35 l 1
 49 33 l 1
55 33 m 1
 53 33 l 1
 53 35 l 1
 55 35 l 1
 55 33 l 1
57 33 m 1
 56 33 l 1
 56 35 l 1
 58 35 l 1
 58 34 l 1
 57 34 l 1
 57 33 l 1
60 33 m 1
 58 33 l 1
 58 34 l 1
 59 34 l 1
 59 35 l 1
 60 35 l 1
 60 33 l 1
49 37 m 1
 47 37 l 1
 47 39 l 1
 49 39 l 1
 49 37 l 1
49 41 m 1
 47 41 l 1
 47 43 l 1
 49 43 l 1
 49 41 l 1
55 41 m 1
 53 41 l 1
 53 43 l 1
 55 43 l 1
 55 41 l 1
58 41 m 1
 56 41 l 1
 56 43 l 1
 57 43 l 1
 57 42 l 1
 58 42 l 1
 58 41 l 1
59 42 m 1
 58 42 l 1
 58 43 l 1
 60 43 l 1
 60 41 l 1
 59 41 l 1
 59 42 l 1
63 29 m 1
 61 29 l 1
 61 31 l 1
 63 31 l 1
 63 29 l 1
63 33 m 1
 61 33 l 1
 61 35 l 1
 63 35 l 1
 63 33 l 1
63 37 m 1
 61 37 l 1
 61 39 l 1
 63 39 l 1
 63 37 l 1
63 41 m 1
 61 41 l 1
 61 43 l 1
 63 43 l 1
 63 41 l 1
EndSplineSet
Ligature2: "'liga' Standard Ligatures in Latin lookup 0-1" one three zero five three
LCarets2: 1 0
EndChar

StartChar: custom_1_3_0_5_4
Encoding: 4210 -1 3965
Width: 70
Flags: H
LayerCount: 2
Fore
SplineSet
17 25 m 1
 15 25 l 1
 15 27 l 1
 17 27 l 1
 17 25 l 1
23 25 m 1
 21 25 l 1
 21 27 l 1
 23 27 l 1
 23 25 l 1
26 25 m 1
 24 25 l 1
 24 27 l 1
 25 27 l 1
 25 26 l 1
 26 26 l 1
 26 25 l 1
27 26 m 1
 26 26 l 1
 26 27 l 1
 28 27 l 1
 28 25 l 1
 27 25 l 1
 27 26 l 1
31 25 m 1
 29 25 l 1
 29 27 l 1
 31 27 l 1
 31 25 l 1
17 29 m 1
 15 29 l 1
 15 31 l 1
 17 31 l 1
 17 29 l 1
17 33 m 1
 15 33 l 1
 15 35 l 1
 17 35 l 1
 17 33 l 1
23 33 m 1
 21 33 l 1
 21 35 l 1
 23 35 l 1
 23 33 l 1
25 33 m 1
 24 33 l 1
 24 35 l 1
 26 35 l 1
 26 34 l 1
 25 34 l 1
 25 33 l 1
28 33 m 1
 26 33 l 1
 26 34 l 1
 27 34 l 1
 27 35 l 1
 28 35 l 1
 28 33 l 1
17 37 m 1
 15 37 l 1
 15 39 l 1
 17 39 l 1
 17 37 l 1
17 41 m 1
 15 41 l 1
 15 43 l 1
 17 43 l 1
 17 41 l 1
23 37 m 1
 21 37 l 1
 21 39 l 1
 23 39 l 1
 23 37 l 1
23 41 m 1
 21 41 l 1
 21 43 l 1
 23 43 l 1
 23 41 l 1
26 41 m 1
 24 41 l 1
 24 43 l 1
 25 43 l 1
 25 42 l 1
 26 42 l 1
 26 41 l 1
27 42 m 1
 26 42 l 1
 26 43 l 1
 28 43 l 1
 28 41 l 1
 27 41 l 1
 27 42 l 1
31 29 m 1
 29 29 l 1
 29 31 l 1
 31 31 l 1
 31 29 l 1
36 31 m 1
 34 31 l 1
 34 33 l 1
 36 33 l 1
 36 31 l 1
31 33 m 1
 29 33 l 1
 29 35 l 1
 31 35 l 1
 31 33 l 1
36 35 m 1
 34 35 l 1
 34 37 l 1
 36 37 l 1
 36 35 l 1
31 41 m 1
 29 41 l 1
 29 43 l 1
 31 43 l 1
 31 41 l 1
49 25 m 1
 47 25 l 1
 47 27 l 1
 49 27 l 1
 49 25 l 1
55 25 m 1
 53 25 l 1
 53 27 l 1
 55 27 l 1
 55 25 l 1
58 25 m 1
 56 25 l 1
 56 27 l 1
 57 27 l 1
 57 26 l 1
 58 26 l 1
 58 25 l 1
59 26 m 1
 58 26 l 1
 58 27 l 1
 60 27 l 1
 60 25 l 1
 59 25 l 1
 59 26 l 1
63 25 m 1
 61 25 l 1
 61 27 l 1
 63 27 l 1
 63 25 l 1
49 29 m 1
 47 29 l 1
 47 31 l 1
 49 31 l 1
 49 29 l 1
49 33 m 1
 47 33 l 1
 47 35 l 1
 49 35 l 1
 49 33 l 1
55 33 m 1
 53 33 l 1
 53 35 l 1
 55 35 l 1
 55 33 l 1
57 33 m 1
 56 33 l 1
 56 35 l 1
 58 35 l 1
 58 34 l 1
 57 34 l 1
 57 33 l 1
60 33 m 1
 58 33 l 1
 58 34 l 1
 59 34 l 1
 59 35 l 1
 60 35 l 1
 60 33 l 1
49 37 m 1
 47 37 l 1
 47 39 l 1
 49 39 l 1
 49 37 l 1
49 41 m 1
 47 41 l 1
 47 43 l 1
 49 43 l 1
 49 41 l 1
55 41 m 1
 53 41 l 1
 53 43 l 1
 55 43 l 1
 55 41 l 1
58 41 m 1
 56 41 l 1
 56 43 l 1
 57 43 l 1
 57 42 l 1
 58 42 l 1
 58 41 l 1
59 42 m 1
 58 42 l 1
 58 43 l 1
 60 43 l 1
 60 41 l 1
 59 41 l 1
 59 42 l 1
63 29 m 1
 61 29 l 1
 61 31 l 1
 63 31 l 1
 63 29 l 1
63 33 m 1
 61 33 l 1
 61 35 l 1
 63 35 l 1
 63 33 l 1
63 37 m 1
 61 37 l 1
 61 39 l 1
 63 39 l 1
 63 37 l 1
63 41 m 1
 61 41 l 1
 61 43 l 1
 63 43 l 1
 63 41 l 1
EndSplineSet
Ligature2: "'liga' Standard Ligatures in Latin lookup 0-1" one three zero five four
LCarets2: 1 0
EndChar

StartChar: custom_1_3_0_5_5
Encoding: 4211 -1 3966
Width: 70
Flags: H
LayerCount: 2
Fore
SplineSet
17 25 m 1
 15 25 l 1
 15 27 l 1
 17 27 l 1
 17 25 l 1
23 25 m 1
 21 25 l 1
 21 27 l 1
 23 27 l 1
 23 25 l 1
26 25 m 1
 24 25 l 1
 24 27 l 1
 25 27 l 1
 25 26 l 1
 26 26 l 1
 26 25 l 1
27 26 m 1
 26 26 l 1
 26 27 l 1
 28 27 l 1
 28 25 l 1
 27 25 l 1
 27 26 l 1
31 25 m 1
 29 25 l 1
 29 27 l 1
 31 27 l 1
 31 25 l 1
17 29 m 1
 15 29 l 1
 15 31 l 1
 17 31 l 1
 17 29 l 1
17 33 m 1
 15 33 l 1
 15 35 l 1
 17 35 l 1
 17 33 l 1
23 33 m 1
 21 33 l 1
 21 35 l 1
 23 35 l 1
 23 33 l 1
25 33 m 1
 24 33 l 1
 24 35 l 1
 26 35 l 1
 26 34 l 1
 25 34 l 1
 25 33 l 1
28 33 m 1
 26 33 l 1
 26 34 l 1
 27 34 l 1
 27 35 l 1
 28 35 l 1
 28 33 l 1
17 37 m 1
 15 37 l 1
 15 39 l 1
 17 39 l 1
 17 37 l 1
17 41 m 1
 15 41 l 1
 15 43 l 1
 17 43 l 1
 17 41 l 1
23 37 m 1
 21 37 l 1
 21 39 l 1
 23 39 l 1
 23 37 l 1
23 41 m 1
 21 41 l 1
 21 43 l 1
 23 43 l 1
 23 41 l 1
26 41 m 1
 24 41 l 1
 24 43 l 1
 25 43 l 1
 25 42 l 1
 26 42 l 1
 26 41 l 1
27 42 m 1
 26 42 l 1
 26 43 l 1
 28 43 l 1
 28 41 l 1
 27 41 l 1
 27 42 l 1
31 29 m 1
 29 29 l 1
 29 31 l 1
 31 31 l 1
 31 29 l 1
36 31 m 1
 34 31 l 1
 34 33 l 1
 36 33 l 1
 36 31 l 1
31 33 m 1
 29 33 l 1
 29 35 l 1
 31 35 l 1
 31 33 l 1
36 35 m 1
 34 35 l 1
 34 37 l 1
 36 37 l 1
 36 35 l 1
31 41 m 1
 29 41 l 1
 29 43 l 1
 31 43 l 1
 31 41 l 1
49 25 m 1
 47 25 l 1
 47 27 l 1
 49 27 l 1
 49 25 l 1
55 25 m 1
 53 25 l 1
 53 27 l 1
 55 27 l 1
 55 25 l 1
58 25 m 1
 56 25 l 1
 56 27 l 1
 57 27 l 1
 57 26 l 1
 58 26 l 1
 58 25 l 1
59 26 m 1
 58 26 l 1
 58 27 l 1
 60 27 l 1
 60 25 l 1
 59 25 l 1
 59 26 l 1
63 25 m 1
 61 25 l 1
 61 27 l 1
 63 27 l 1
 63 25 l 1
49 29 m 1
 47 29 l 1
 47 31 l 1
 49 31 l 1
 49 29 l 1
49 33 m 1
 47 33 l 1
 47 35 l 1
 49 35 l 1
 49 33 l 1
55 33 m 1
 53 33 l 1
 53 35 l 1
 55 35 l 1
 55 33 l 1
57 33 m 1
 56 33 l 1
 56 35 l 1
 58 35 l 1
 58 34 l 1
 57 34 l 1
 57 33 l 1
60 33 m 1
 58 33 l 1
 58 34 l 1
 59 34 l 1
 59 35 l 1
 60 35 l 1
 60 33 l 1
49 37 m 1
 47 37 l 1
 47 39 l 1
 49 39 l 1
 49 37 l 1
49 41 m 1
 47 41 l 1
 47 43 l 1
 49 43 l 1
 49 41 l 1
55 41 m 1
 53 41 l 1
 53 43 l 1
 55 43 l 1
 55 41 l 1
58 41 m 1
 56 41 l 1
 56 43 l 1
 57 43 l 1
 57 42 l 1
 58 42 l 1
 58 41 l 1
59 42 m 1
 58 42 l 1
 58 43 l 1
 60 43 l 1
 60 41 l 1
 59 41 l 1
 59 42 l 1
63 29 m 1
 61 29 l 1
 61 31 l 1
 63 31 l 1
 63 29 l 1
63 33 m 1
 61 33 l 1
 61 35 l 1
 63 35 l 1
 63 33 l 1
63 37 m 1
 61 37 l 1
 61 39 l 1
 63 39 l 1
 63 37 l 1
63 41 m 1
 61 41 l 1
 61 43 l 1
 63 43 l 1
 63 41 l 1
EndSplineSet
Ligature2: "'liga' Standard Ligatures in Latin lookup 0-1" one three zero five five
LCarets2: 1 0
EndChar

StartChar: custom_1_3_0_5_6
Encoding: 4212 -1 3967
Width: 70
Flags: H
LayerCount: 2
Fore
SplineSet
17 25 m 1
 15 25 l 1
 15 27 l 1
 17 27 l 1
 17 25 l 1
23 25 m 1
 21 25 l 1
 21 27 l 1
 23 27 l 1
 23 25 l 1
26 25 m 1
 24 25 l 1
 24 27 l 1
 25 27 l 1
 25 26 l 1
 26 26 l 1
 26 25 l 1
27 26 m 1
 26 26 l 1
 26 27 l 1
 28 27 l 1
 28 25 l 1
 27 25 l 1
 27 26 l 1
31 25 m 1
 29 25 l 1
 29 27 l 1
 31 27 l 1
 31 25 l 1
17 29 m 1
 15 29 l 1
 15 31 l 1
 17 31 l 1
 17 29 l 1
17 33 m 1
 15 33 l 1
 15 35 l 1
 17 35 l 1
 17 33 l 1
23 33 m 1
 21 33 l 1
 21 35 l 1
 23 35 l 1
 23 33 l 1
25 33 m 1
 24 33 l 1
 24 35 l 1
 26 35 l 1
 26 34 l 1
 25 34 l 1
 25 33 l 1
28 33 m 1
 26 33 l 1
 26 34 l 1
 27 34 l 1
 27 35 l 1
 28 35 l 1
 28 33 l 1
17 37 m 1
 15 37 l 1
 15 39 l 1
 17 39 l 1
 17 37 l 1
17 41 m 1
 15 41 l 1
 15 43 l 1
 17 43 l 1
 17 41 l 1
23 37 m 1
 21 37 l 1
 21 39 l 1
 23 39 l 1
 23 37 l 1
23 41 m 1
 21 41 l 1
 21 43 l 1
 23 43 l 1
 23 41 l 1
26 41 m 1
 24 41 l 1
 24 43 l 1
 25 43 l 1
 25 42 l 1
 26 42 l 1
 26 41 l 1
27 42 m 1
 26 42 l 1
 26 43 l 1
 28 43 l 1
 28 41 l 1
 27 41 l 1
 27 42 l 1
31 29 m 1
 29 29 l 1
 29 31 l 1
 31 31 l 1
 31 29 l 1
36 31 m 1
 34 31 l 1
 34 33 l 1
 36 33 l 1
 36 31 l 1
31 33 m 1
 29 33 l 1
 29 35 l 1
 31 35 l 1
 31 33 l 1
36 35 m 1
 34 35 l 1
 34 37 l 1
 36 37 l 1
 36 35 l 1
31 41 m 1
 29 41 l 1
 29 43 l 1
 31 43 l 1
 31 41 l 1
49 25 m 1
 47 25 l 1
 47 27 l 1
 49 27 l 1
 49 25 l 1
55 25 m 1
 53 25 l 1
 53 27 l 1
 55 27 l 1
 55 25 l 1
58 25 m 1
 56 25 l 1
 56 27 l 1
 57 27 l 1
 57 26 l 1
 58 26 l 1
 58 25 l 1
59 26 m 1
 58 26 l 1
 58 27 l 1
 60 27 l 1
 60 25 l 1
 59 25 l 1
 59 26 l 1
63 25 m 1
 61 25 l 1
 61 27 l 1
 63 27 l 1
 63 25 l 1
49 29 m 1
 47 29 l 1
 47 31 l 1
 49 31 l 1
 49 29 l 1
49 33 m 1
 47 33 l 1
 47 35 l 1
 49 35 l 1
 49 33 l 1
55 33 m 1
 53 33 l 1
 53 35 l 1
 55 35 l 1
 55 33 l 1
57 33 m 1
 56 33 l 1
 56 35 l 1
 58 35 l 1
 58 34 l 1
 57 34 l 1
 57 33 l 1
60 33 m 1
 58 33 l 1
 58 34 l 1
 59 34 l 1
 59 35 l 1
 60 35 l 1
 60 33 l 1
49 37 m 1
 47 37 l 1
 47 39 l 1
 49 39 l 1
 49 37 l 1
49 41 m 1
 47 41 l 1
 47 43 l 1
 49 43 l 1
 49 41 l 1
55 41 m 1
 53 41 l 1
 53 43 l 1
 55 43 l 1
 55 41 l 1
58 41 m 1
 56 41 l 1
 56 43 l 1
 57 43 l 1
 57 42 l 1
 58 42 l 1
 58 41 l 1
59 42 m 1
 58 42 l 1
 58 43 l 1
 60 43 l 1
 60 41 l 1
 59 41 l 1
 59 42 l 1
63 29 m 1
 61 29 l 1
 61 31 l 1
 63 31 l 1
 63 29 l 1
63 33 m 1
 61 33 l 1
 61 35 l 1
 63 35 l 1
 63 33 l 1
63 37 m 1
 61 37 l 1
 61 39 l 1
 63 39 l 1
 63 37 l 1
63 41 m 1
 61 41 l 1
 61 43 l 1
 63 43 l 1
 63 41 l 1
EndSplineSet
Ligature2: "'liga' Standard Ligatures in Latin lookup 0-1" one three zero five six
LCarets2: 1 0
EndChar

StartChar: custom_1_3_0_5_7
Encoding: 4213 -1 3968
Width: 70
Flags: H
LayerCount: 2
Fore
SplineSet
17 25 m 1
 15 25 l 1
 15 27 l 1
 17 27 l 1
 17 25 l 1
23 25 m 1
 21 25 l 1
 21 27 l 1
 23 27 l 1
 23 25 l 1
26 25 m 1
 24 25 l 1
 24 27 l 1
 25 27 l 1
 25 26 l 1
 26 26 l 1
 26 25 l 1
27 26 m 1
 26 26 l 1
 26 27 l 1
 28 27 l 1
 28 25 l 1
 27 25 l 1
 27 26 l 1
31 25 m 1
 29 25 l 1
 29 27 l 1
 31 27 l 1
 31 25 l 1
17 29 m 1
 15 29 l 1
 15 31 l 1
 17 31 l 1
 17 29 l 1
17 33 m 1
 15 33 l 1
 15 35 l 1
 17 35 l 1
 17 33 l 1
23 33 m 1
 21 33 l 1
 21 35 l 1
 23 35 l 1
 23 33 l 1
25 33 m 1
 24 33 l 1
 24 35 l 1
 26 35 l 1
 26 34 l 1
 25 34 l 1
 25 33 l 1
28 33 m 1
 26 33 l 1
 26 34 l 1
 27 34 l 1
 27 35 l 1
 28 35 l 1
 28 33 l 1
17 37 m 1
 15 37 l 1
 15 39 l 1
 17 39 l 1
 17 37 l 1
17 41 m 1
 15 41 l 1
 15 43 l 1
 17 43 l 1
 17 41 l 1
23 37 m 1
 21 37 l 1
 21 39 l 1
 23 39 l 1
 23 37 l 1
23 41 m 1
 21 41 l 1
 21 43 l 1
 23 43 l 1
 23 41 l 1
26 41 m 1
 24 41 l 1
 24 43 l 1
 25 43 l 1
 25 42 l 1
 26 42 l 1
 26 41 l 1
27 42 m 1
 26 42 l 1
 26 43 l 1
 28 43 l 1
 28 41 l 1
 27 41 l 1
 27 42 l 1
31 29 m 1
 29 29 l 1
 29 31 l 1
 31 31 l 1
 31 29 l 1
36 31 m 1
 34 31 l 1
 34 33 l 1
 36 33 l 1
 36 31 l 1
31 33 m 1
 29 33 l 1
 29 35 l 1
 31 35 l 1
 31 33 l 1
36 35 m 1
 34 35 l 1
 34 37 l 1
 36 37 l 1
 36 35 l 1
31 41 m 1
 29 41 l 1
 29 43 l 1
 31 43 l 1
 31 41 l 1
49 25 m 1
 47 25 l 1
 47 27 l 1
 49 27 l 1
 49 25 l 1
55 25 m 1
 53 25 l 1
 53 27 l 1
 55 27 l 1
 55 25 l 1
58 25 m 1
 56 25 l 1
 56 27 l 1
 57 27 l 1
 57 26 l 1
 58 26 l 1
 58 25 l 1
59 26 m 1
 58 26 l 1
 58 27 l 1
 60 27 l 1
 60 25 l 1
 59 25 l 1
 59 26 l 1
63 25 m 1
 61 25 l 1
 61 27 l 1
 63 27 l 1
 63 25 l 1
49 29 m 1
 47 29 l 1
 47 31 l 1
 49 31 l 1
 49 29 l 1
49 33 m 1
 47 33 l 1
 47 35 l 1
 49 35 l 1
 49 33 l 1
55 33 m 1
 53 33 l 1
 53 35 l 1
 55 35 l 1
 55 33 l 1
57 33 m 1
 56 33 l 1
 56 35 l 1
 58 35 l 1
 58 34 l 1
 57 34 l 1
 57 33 l 1
60 33 m 1
 58 33 l 1
 58 34 l 1
 59 34 l 1
 59 35 l 1
 60 35 l 1
 60 33 l 1
49 37 m 1
 47 37 l 1
 47 39 l 1
 49 39 l 1
 49 37 l 1
49 41 m 1
 47 41 l 1
 47 43 l 1
 49 43 l 1
 49 41 l 1
55 41 m 1
 53 41 l 1
 53 43 l 1
 55 43 l 1
 55 41 l 1
58 41 m 1
 56 41 l 1
 56 43 l 1
 57 43 l 1
 57 42 l 1
 58 42 l 1
 58 41 l 1
59 42 m 1
 58 42 l 1
 58 43 l 1
 60 43 l 1
 60 41 l 1
 59 41 l 1
 59 42 l 1
63 29 m 1
 61 29 l 1
 61 31 l 1
 63 31 l 1
 63 29 l 1
63 33 m 1
 61 33 l 1
 61 35 l 1
 63 35 l 1
 63 33 l 1
63 37 m 1
 61 37 l 1
 61 39 l 1
 63 39 l 1
 63 37 l 1
63 41 m 1
 61 41 l 1
 61 43 l 1
 63 43 l 1
 63 41 l 1
EndSplineSet
Ligature2: "'liga' Standard Ligatures in Latin lookup 0-1" one three zero five seven
LCarets2: 1 0
EndChar

StartChar: custom_1_3_0_5_8
Encoding: 4214 -1 3969
Width: 70
Flags: H
LayerCount: 2
Fore
SplineSet
17 25 m 1
 15 25 l 1
 15 27 l 1
 17 27 l 1
 17 25 l 1
23 25 m 1
 21 25 l 1
 21 27 l 1
 23 27 l 1
 23 25 l 1
26 25 m 1
 24 25 l 1
 24 27 l 1
 25 27 l 1
 25 26 l 1
 26 26 l 1
 26 25 l 1
27 26 m 1
 26 26 l 1
 26 27 l 1
 28 27 l 1
 28 25 l 1
 27 25 l 1
 27 26 l 1
31 25 m 1
 29 25 l 1
 29 27 l 1
 31 27 l 1
 31 25 l 1
17 29 m 1
 15 29 l 1
 15 31 l 1
 17 31 l 1
 17 29 l 1
17 33 m 1
 15 33 l 1
 15 35 l 1
 17 35 l 1
 17 33 l 1
23 33 m 1
 21 33 l 1
 21 35 l 1
 23 35 l 1
 23 33 l 1
25 33 m 1
 24 33 l 1
 24 35 l 1
 26 35 l 1
 26 34 l 1
 25 34 l 1
 25 33 l 1
28 33 m 1
 26 33 l 1
 26 34 l 1
 27 34 l 1
 27 35 l 1
 28 35 l 1
 28 33 l 1
17 37 m 1
 15 37 l 1
 15 39 l 1
 17 39 l 1
 17 37 l 1
17 41 m 1
 15 41 l 1
 15 43 l 1
 17 43 l 1
 17 41 l 1
23 37 m 1
 21 37 l 1
 21 39 l 1
 23 39 l 1
 23 37 l 1
23 41 m 1
 21 41 l 1
 21 43 l 1
 23 43 l 1
 23 41 l 1
26 41 m 1
 24 41 l 1
 24 43 l 1
 25 43 l 1
 25 42 l 1
 26 42 l 1
 26 41 l 1
27 42 m 1
 26 42 l 1
 26 43 l 1
 28 43 l 1
 28 41 l 1
 27 41 l 1
 27 42 l 1
31 29 m 1
 29 29 l 1
 29 31 l 1
 31 31 l 1
 31 29 l 1
36 31 m 1
 34 31 l 1
 34 33 l 1
 36 33 l 1
 36 31 l 1
31 33 m 1
 29 33 l 1
 29 35 l 1
 31 35 l 1
 31 33 l 1
36 35 m 1
 34 35 l 1
 34 37 l 1
 36 37 l 1
 36 35 l 1
31 41 m 1
 29 41 l 1
 29 43 l 1
 31 43 l 1
 31 41 l 1
49 25 m 1
 47 25 l 1
 47 27 l 1
 49 27 l 1
 49 25 l 1
55 25 m 1
 53 25 l 1
 53 27 l 1
 55 27 l 1
 55 25 l 1
58 25 m 1
 56 25 l 1
 56 27 l 1
 57 27 l 1
 57 26 l 1
 58 26 l 1
 58 25 l 1
59 26 m 1
 58 26 l 1
 58 27 l 1
 60 27 l 1
 60 25 l 1
 59 25 l 1
 59 26 l 1
63 25 m 1
 61 25 l 1
 61 27 l 1
 63 27 l 1
 63 25 l 1
49 29 m 1
 47 29 l 1
 47 31 l 1
 49 31 l 1
 49 29 l 1
49 33 m 1
 47 33 l 1
 47 35 l 1
 49 35 l 1
 49 33 l 1
55 33 m 1
 53 33 l 1
 53 35 l 1
 55 35 l 1
 55 33 l 1
57 33 m 1
 56 33 l 1
 56 35 l 1
 58 35 l 1
 58 34 l 1
 57 34 l 1
 57 33 l 1
60 33 m 1
 58 33 l 1
 58 34 l 1
 59 34 l 1
 59 35 l 1
 60 35 l 1
 60 33 l 1
49 37 m 1
 47 37 l 1
 47 39 l 1
 49 39 l 1
 49 37 l 1
49 41 m 1
 47 41 l 1
 47 43 l 1
 49 43 l 1
 49 41 l 1
55 41 m 1
 53 41 l 1
 53 43 l 1
 55 43 l 1
 55 41 l 1
58 41 m 1
 56 41 l 1
 56 43 l 1
 57 43 l 1
 57 42 l 1
 58 42 l 1
 58 41 l 1
59 42 m 1
 58 42 l 1
 58 43 l 1
 60 43 l 1
 60 41 l 1
 59 41 l 1
 59 42 l 1
63 29 m 1
 61 29 l 1
 61 31 l 1
 63 31 l 1
 63 29 l 1
63 33 m 1
 61 33 l 1
 61 35 l 1
 63 35 l 1
 63 33 l 1
63 37 m 1
 61 37 l 1
 61 39 l 1
 63 39 l 1
 63 37 l 1
63 41 m 1
 61 41 l 1
 61 43 l 1
 63 43 l 1
 63 41 l 1
EndSplineSet
Ligature2: "'liga' Standard Ligatures in Latin lookup 0-1" one three zero five eight
LCarets2: 1 0
EndChar

StartChar: custom_1_3_0_5_9
Encoding: 4215 -1 3970
Width: 70
Flags: H
LayerCount: 2
Fore
SplineSet
17 25 m 1
 15 25 l 1
 15 27 l 1
 17 27 l 1
 17 25 l 1
23 25 m 1
 21 25 l 1
 21 27 l 1
 23 27 l 1
 23 25 l 1
26 25 m 1
 24 25 l 1
 24 27 l 1
 25 27 l 1
 25 26 l 1
 26 26 l 1
 26 25 l 1
27 26 m 1
 26 26 l 1
 26 27 l 1
 28 27 l 1
 28 25 l 1
 27 25 l 1
 27 26 l 1
31 25 m 1
 29 25 l 1
 29 27 l 1
 31 27 l 1
 31 25 l 1
17 29 m 1
 15 29 l 1
 15 31 l 1
 17 31 l 1
 17 29 l 1
17 33 m 1
 15 33 l 1
 15 35 l 1
 17 35 l 1
 17 33 l 1
23 33 m 1
 21 33 l 1
 21 35 l 1
 23 35 l 1
 23 33 l 1
25 33 m 1
 24 33 l 1
 24 35 l 1
 26 35 l 1
 26 34 l 1
 25 34 l 1
 25 33 l 1
28 33 m 1
 26 33 l 1
 26 34 l 1
 27 34 l 1
 27 35 l 1
 28 35 l 1
 28 33 l 1
17 37 m 1
 15 37 l 1
 15 39 l 1
 17 39 l 1
 17 37 l 1
17 41 m 1
 15 41 l 1
 15 43 l 1
 17 43 l 1
 17 41 l 1
23 37 m 1
 21 37 l 1
 21 39 l 1
 23 39 l 1
 23 37 l 1
23 41 m 1
 21 41 l 1
 21 43 l 1
 23 43 l 1
 23 41 l 1
26 41 m 1
 24 41 l 1
 24 43 l 1
 25 43 l 1
 25 42 l 1
 26 42 l 1
 26 41 l 1
27 42 m 1
 26 42 l 1
 26 43 l 1
 28 43 l 1
 28 41 l 1
 27 41 l 1
 27 42 l 1
31 29 m 1
 29 29 l 1
 29 31 l 1
 31 31 l 1
 31 29 l 1
36 31 m 1
 34 31 l 1
 34 33 l 1
 36 33 l 1
 36 31 l 1
31 33 m 1
 29 33 l 1
 29 35 l 1
 31 35 l 1
 31 33 l 1
36 35 m 1
 34 35 l 1
 34 37 l 1
 36 37 l 1
 36 35 l 1
31 41 m 1
 29 41 l 1
 29 43 l 1
 31 43 l 1
 31 41 l 1
49 25 m 1
 47 25 l 1
 47 27 l 1
 49 27 l 1
 49 25 l 1
55 25 m 1
 53 25 l 1
 53 27 l 1
 55 27 l 1
 55 25 l 1
58 25 m 1
 56 25 l 1
 56 27 l 1
 57 27 l 1
 57 26 l 1
 58 26 l 1
 58 25 l 1
59 26 m 1
 58 26 l 1
 58 27 l 1
 60 27 l 1
 60 25 l 1
 59 25 l 1
 59 26 l 1
63 25 m 1
 61 25 l 1
 61 27 l 1
 63 27 l 1
 63 25 l 1
49 29 m 1
 47 29 l 1
 47 31 l 1
 49 31 l 1
 49 29 l 1
49 33 m 1
 47 33 l 1
 47 35 l 1
 49 35 l 1
 49 33 l 1
55 33 m 1
 53 33 l 1
 53 35 l 1
 55 35 l 1
 55 33 l 1
57 33 m 1
 56 33 l 1
 56 35 l 1
 58 35 l 1
 58 34 l 1
 57 34 l 1
 57 33 l 1
60 33 m 1
 58 33 l 1
 58 34 l 1
 59 34 l 1
 59 35 l 1
 60 35 l 1
 60 33 l 1
49 37 m 1
 47 37 l 1
 47 39 l 1
 49 39 l 1
 49 37 l 1
49 41 m 1
 47 41 l 1
 47 43 l 1
 49 43 l 1
 49 41 l 1
55 41 m 1
 53 41 l 1
 53 43 l 1
 55 43 l 1
 55 41 l 1
58 41 m 1
 56 41 l 1
 56 43 l 1
 57 43 l 1
 57 42 l 1
 58 42 l 1
 58 41 l 1
59 42 m 1
 58 42 l 1
 58 43 l 1
 60 43 l 1
 60 41 l 1
 59 41 l 1
 59 42 l 1
63 29 m 1
 61 29 l 1
 61 31 l 1
 63 31 l 1
 63 29 l 1
63 33 m 1
 61 33 l 1
 61 35 l 1
 63 35 l 1
 63 33 l 1
63 37 m 1
 61 37 l 1
 61 39 l 1
 63 39 l 1
 63 37 l 1
63 41 m 1
 61 41 l 1
 61 43 l 1
 63 43 l 1
 63 41 l 1
EndSplineSet
Ligature2: "'liga' Standard Ligatures in Latin lookup 0-1" one three zero five nine
LCarets2: 1 0
EndChar

StartChar: custom_1_3_0_6_0
Encoding: 4216 -1 3971
Width: 70
Flags: H
LayerCount: 2
Fore
SplineSet
17 25 m 1
 15 25 l 1
 15 27 l 1
 17 27 l 1
 17 25 l 1
23 25 m 1
 21 25 l 1
 21 27 l 1
 23 27 l 1
 23 25 l 1
26 25 m 1
 24 25 l 1
 24 27 l 1
 25 27 l 1
 25 26 l 1
 26 26 l 1
 26 25 l 1
27 26 m 1
 26 26 l 1
 26 27 l 1
 28 27 l 1
 28 25 l 1
 27 25 l 1
 27 26 l 1
31 25 m 1
 29 25 l 1
 29 27 l 1
 31 27 l 1
 31 25 l 1
17 29 m 1
 15 29 l 1
 15 31 l 1
 17 31 l 1
 17 29 l 1
17 33 m 1
 15 33 l 1
 15 35 l 1
 17 35 l 1
 17 33 l 1
23 33 m 1
 21 33 l 1
 21 35 l 1
 23 35 l 1
 23 33 l 1
25 33 m 1
 24 33 l 1
 24 35 l 1
 26 35 l 1
 26 34 l 1
 25 34 l 1
 25 33 l 1
28 33 m 1
 26 33 l 1
 26 34 l 1
 27 34 l 1
 27 35 l 1
 28 35 l 1
 28 33 l 1
17 37 m 1
 15 37 l 1
 15 39 l 1
 17 39 l 1
 17 37 l 1
17 41 m 1
 15 41 l 1
 15 43 l 1
 17 43 l 1
 17 41 l 1
23 37 m 1
 21 37 l 1
 21 39 l 1
 23 39 l 1
 23 37 l 1
23 41 m 1
 21 41 l 1
 21 43 l 1
 23 43 l 1
 23 41 l 1
26 41 m 1
 24 41 l 1
 24 43 l 1
 25 43 l 1
 25 42 l 1
 26 42 l 1
 26 41 l 1
27 42 m 1
 26 42 l 1
 26 43 l 1
 28 43 l 1
 28 41 l 1
 27 41 l 1
 27 42 l 1
31 29 m 1
 29 29 l 1
 29 31 l 1
 31 31 l 1
 31 29 l 1
36 31 m 1
 34 31 l 1
 34 33 l 1
 36 33 l 1
 36 31 l 1
31 33 m 1
 29 33 l 1
 29 35 l 1
 31 35 l 1
 31 33 l 1
36 35 m 1
 34 35 l 1
 34 37 l 1
 36 37 l 1
 36 35 l 1
31 41 m 1
 29 41 l 1
 29 43 l 1
 31 43 l 1
 31 41 l 1
49 25 m 1
 47 25 l 1
 47 27 l 1
 49 27 l 1
 49 25 l 1
55 25 m 1
 53 25 l 1
 53 27 l 1
 55 27 l 1
 55 25 l 1
58 25 m 1
 56 25 l 1
 56 27 l 1
 57 27 l 1
 57 26 l 1
 58 26 l 1
 58 25 l 1
59 26 m 1
 58 26 l 1
 58 27 l 1
 60 27 l 1
 60 25 l 1
 59 25 l 1
 59 26 l 1
63 25 m 1
 61 25 l 1
 61 27 l 1
 63 27 l 1
 63 25 l 1
49 29 m 1
 47 29 l 1
 47 31 l 1
 49 31 l 1
 49 29 l 1
49 33 m 1
 47 33 l 1
 47 35 l 1
 49 35 l 1
 49 33 l 1
55 33 m 1
 53 33 l 1
 53 35 l 1
 55 35 l 1
 55 33 l 1
57 33 m 1
 56 33 l 1
 56 35 l 1
 58 35 l 1
 58 34 l 1
 57 34 l 1
 57 33 l 1
60 33 m 1
 58 33 l 1
 58 34 l 1
 59 34 l 1
 59 35 l 1
 60 35 l 1
 60 33 l 1
49 37 m 1
 47 37 l 1
 47 39 l 1
 49 39 l 1
 49 37 l 1
49 41 m 1
 47 41 l 1
 47 43 l 1
 49 43 l 1
 49 41 l 1
55 41 m 1
 53 41 l 1
 53 43 l 1
 55 43 l 1
 55 41 l 1
58 41 m 1
 56 41 l 1
 56 43 l 1
 57 43 l 1
 57 42 l 1
 58 42 l 1
 58 41 l 1
59 42 m 1
 58 42 l 1
 58 43 l 1
 60 43 l 1
 60 41 l 1
 59 41 l 1
 59 42 l 1
63 29 m 1
 61 29 l 1
 61 31 l 1
 63 31 l 1
 63 29 l 1
63 33 m 1
 61 33 l 1
 61 35 l 1
 63 35 l 1
 63 33 l 1
63 37 m 1
 61 37 l 1
 61 39 l 1
 63 39 l 1
 63 37 l 1
63 41 m 1
 61 41 l 1
 61 43 l 1
 63 43 l 1
 63 41 l 1
EndSplineSet
Ligature2: "'liga' Standard Ligatures in Latin lookup 0-1" one three zero six zero
LCarets2: 1 0
EndChar

StartChar: custom_1_3_0_6_1
Encoding: 4217 -1 3972
Width: 70
Flags: H
LayerCount: 2
Fore
SplineSet
17 25 m 1
 15 25 l 1
 15 27 l 1
 17 27 l 1
 17 25 l 1
23 25 m 1
 21 25 l 1
 21 27 l 1
 23 27 l 1
 23 25 l 1
26 25 m 1
 24 25 l 1
 24 27 l 1
 25 27 l 1
 25 26 l 1
 26 26 l 1
 26 25 l 1
27 26 m 1
 26 26 l 1
 26 27 l 1
 28 27 l 1
 28 25 l 1
 27 25 l 1
 27 26 l 1
31 25 m 1
 29 25 l 1
 29 27 l 1
 31 27 l 1
 31 25 l 1
17 29 m 1
 15 29 l 1
 15 31 l 1
 17 31 l 1
 17 29 l 1
17 33 m 1
 15 33 l 1
 15 35 l 1
 17 35 l 1
 17 33 l 1
23 33 m 1
 21 33 l 1
 21 35 l 1
 23 35 l 1
 23 33 l 1
25 33 m 1
 24 33 l 1
 24 35 l 1
 26 35 l 1
 26 34 l 1
 25 34 l 1
 25 33 l 1
28 33 m 1
 26 33 l 1
 26 34 l 1
 27 34 l 1
 27 35 l 1
 28 35 l 1
 28 33 l 1
17 37 m 1
 15 37 l 1
 15 39 l 1
 17 39 l 1
 17 37 l 1
17 41 m 1
 15 41 l 1
 15 43 l 1
 17 43 l 1
 17 41 l 1
23 37 m 1
 21 37 l 1
 21 39 l 1
 23 39 l 1
 23 37 l 1
23 41 m 1
 21 41 l 1
 21 43 l 1
 23 43 l 1
 23 41 l 1
26 41 m 1
 24 41 l 1
 24 43 l 1
 25 43 l 1
 25 42 l 1
 26 42 l 1
 26 41 l 1
27 42 m 1
 26 42 l 1
 26 43 l 1
 28 43 l 1
 28 41 l 1
 27 41 l 1
 27 42 l 1
31 29 m 1
 29 29 l 1
 29 31 l 1
 31 31 l 1
 31 29 l 1
36 31 m 1
 34 31 l 1
 34 33 l 1
 36 33 l 1
 36 31 l 1
31 33 m 1
 29 33 l 1
 29 35 l 1
 31 35 l 1
 31 33 l 1
36 35 m 1
 34 35 l 1
 34 37 l 1
 36 37 l 1
 36 35 l 1
31 41 m 1
 29 41 l 1
 29 43 l 1
 31 43 l 1
 31 41 l 1
49 25 m 1
 47 25 l 1
 47 27 l 1
 49 27 l 1
 49 25 l 1
55 25 m 1
 53 25 l 1
 53 27 l 1
 55 27 l 1
 55 25 l 1
58 25 m 1
 56 25 l 1
 56 27 l 1
 57 27 l 1
 57 26 l 1
 58 26 l 1
 58 25 l 1
59 26 m 1
 58 26 l 1
 58 27 l 1
 60 27 l 1
 60 25 l 1
 59 25 l 1
 59 26 l 1
63 25 m 1
 61 25 l 1
 61 27 l 1
 63 27 l 1
 63 25 l 1
49 29 m 1
 47 29 l 1
 47 31 l 1
 49 31 l 1
 49 29 l 1
49 33 m 1
 47 33 l 1
 47 35 l 1
 49 35 l 1
 49 33 l 1
55 33 m 1
 53 33 l 1
 53 35 l 1
 55 35 l 1
 55 33 l 1
57 33 m 1
 56 33 l 1
 56 35 l 1
 58 35 l 1
 58 34 l 1
 57 34 l 1
 57 33 l 1
60 33 m 1
 58 33 l 1
 58 34 l 1
 59 34 l 1
 59 35 l 1
 60 35 l 1
 60 33 l 1
49 37 m 1
 47 37 l 1
 47 39 l 1
 49 39 l 1
 49 37 l 1
49 41 m 1
 47 41 l 1
 47 43 l 1
 49 43 l 1
 49 41 l 1
55 41 m 1
 53 41 l 1
 53 43 l 1
 55 43 l 1
 55 41 l 1
58 41 m 1
 56 41 l 1
 56 43 l 1
 57 43 l 1
 57 42 l 1
 58 42 l 1
 58 41 l 1
59 42 m 1
 58 42 l 1
 58 43 l 1
 60 43 l 1
 60 41 l 1
 59 41 l 1
 59 42 l 1
63 29 m 1
 61 29 l 1
 61 31 l 1
 63 31 l 1
 63 29 l 1
63 33 m 1
 61 33 l 1
 61 35 l 1
 63 35 l 1
 63 33 l 1
63 37 m 1
 61 37 l 1
 61 39 l 1
 63 39 l 1
 63 37 l 1
63 41 m 1
 61 41 l 1
 61 43 l 1
 63 43 l 1
 63 41 l 1
EndSplineSet
Ligature2: "'liga' Standard Ligatures in Latin lookup 0-1" one three zero six one
LCarets2: 1 0
EndChar

StartChar: custom_1_3_0_6_2
Encoding: 4218 -1 3973
Width: 70
Flags: H
LayerCount: 2
Fore
SplineSet
17 25 m 1
 15 25 l 1
 15 27 l 1
 17 27 l 1
 17 25 l 1
23 25 m 1
 21 25 l 1
 21 27 l 1
 23 27 l 1
 23 25 l 1
26 25 m 1
 24 25 l 1
 24 27 l 1
 25 27 l 1
 25 26 l 1
 26 26 l 1
 26 25 l 1
27 26 m 1
 26 26 l 1
 26 27 l 1
 28 27 l 1
 28 25 l 1
 27 25 l 1
 27 26 l 1
31 25 m 1
 29 25 l 1
 29 27 l 1
 31 27 l 1
 31 25 l 1
17 29 m 1
 15 29 l 1
 15 31 l 1
 17 31 l 1
 17 29 l 1
17 33 m 1
 15 33 l 1
 15 35 l 1
 17 35 l 1
 17 33 l 1
23 33 m 1
 21 33 l 1
 21 35 l 1
 23 35 l 1
 23 33 l 1
25 33 m 1
 24 33 l 1
 24 35 l 1
 26 35 l 1
 26 34 l 1
 25 34 l 1
 25 33 l 1
28 33 m 1
 26 33 l 1
 26 34 l 1
 27 34 l 1
 27 35 l 1
 28 35 l 1
 28 33 l 1
17 37 m 1
 15 37 l 1
 15 39 l 1
 17 39 l 1
 17 37 l 1
17 41 m 1
 15 41 l 1
 15 43 l 1
 17 43 l 1
 17 41 l 1
23 37 m 1
 21 37 l 1
 21 39 l 1
 23 39 l 1
 23 37 l 1
23 41 m 1
 21 41 l 1
 21 43 l 1
 23 43 l 1
 23 41 l 1
26 41 m 1
 24 41 l 1
 24 43 l 1
 25 43 l 1
 25 42 l 1
 26 42 l 1
 26 41 l 1
27 42 m 1
 26 42 l 1
 26 43 l 1
 28 43 l 1
 28 41 l 1
 27 41 l 1
 27 42 l 1
31 29 m 1
 29 29 l 1
 29 31 l 1
 31 31 l 1
 31 29 l 1
36 31 m 1
 34 31 l 1
 34 33 l 1
 36 33 l 1
 36 31 l 1
31 33 m 1
 29 33 l 1
 29 35 l 1
 31 35 l 1
 31 33 l 1
36 35 m 1
 34 35 l 1
 34 37 l 1
 36 37 l 1
 36 35 l 1
31 41 m 1
 29 41 l 1
 29 43 l 1
 31 43 l 1
 31 41 l 1
49 25 m 1
 47 25 l 1
 47 27 l 1
 49 27 l 1
 49 25 l 1
55 25 m 1
 53 25 l 1
 53 27 l 1
 55 27 l 1
 55 25 l 1
58 25 m 1
 56 25 l 1
 56 27 l 1
 57 27 l 1
 57 26 l 1
 58 26 l 1
 58 25 l 1
59 26 m 1
 58 26 l 1
 58 27 l 1
 60 27 l 1
 60 25 l 1
 59 25 l 1
 59 26 l 1
63 25 m 1
 61 25 l 1
 61 27 l 1
 63 27 l 1
 63 25 l 1
49 29 m 1
 47 29 l 1
 47 31 l 1
 49 31 l 1
 49 29 l 1
49 33 m 1
 47 33 l 1
 47 35 l 1
 49 35 l 1
 49 33 l 1
55 33 m 1
 53 33 l 1
 53 35 l 1
 55 35 l 1
 55 33 l 1
57 33 m 1
 56 33 l 1
 56 35 l 1
 58 35 l 1
 58 34 l 1
 57 34 l 1
 57 33 l 1
60 33 m 1
 58 33 l 1
 58 34 l 1
 59 34 l 1
 59 35 l 1
 60 35 l 1
 60 33 l 1
49 37 m 1
 47 37 l 1
 47 39 l 1
 49 39 l 1
 49 37 l 1
49 41 m 1
 47 41 l 1
 47 43 l 1
 49 43 l 1
 49 41 l 1
55 41 m 1
 53 41 l 1
 53 43 l 1
 55 43 l 1
 55 41 l 1
58 41 m 1
 56 41 l 1
 56 43 l 1
 57 43 l 1
 57 42 l 1
 58 42 l 1
 58 41 l 1
59 42 m 1
 58 42 l 1
 58 43 l 1
 60 43 l 1
 60 41 l 1
 59 41 l 1
 59 42 l 1
63 29 m 1
 61 29 l 1
 61 31 l 1
 63 31 l 1
 63 29 l 1
63 33 m 1
 61 33 l 1
 61 35 l 1
 63 35 l 1
 63 33 l 1
63 37 m 1
 61 37 l 1
 61 39 l 1
 63 39 l 1
 63 37 l 1
63 41 m 1
 61 41 l 1
 61 43 l 1
 63 43 l 1
 63 41 l 1
EndSplineSet
Ligature2: "'liga' Standard Ligatures in Latin lookup 0-1" one three zero six two
LCarets2: 1 0
EndChar

StartChar: custom_1_3_0_6_3
Encoding: 4219 -1 3974
Width: 70
Flags: H
LayerCount: 2
Fore
SplineSet
17 25 m 1
 15 25 l 1
 15 27 l 1
 17 27 l 1
 17 25 l 1
23 25 m 1
 21 25 l 1
 21 27 l 1
 23 27 l 1
 23 25 l 1
26 25 m 1
 24 25 l 1
 24 27 l 1
 25 27 l 1
 25 26 l 1
 26 26 l 1
 26 25 l 1
27 26 m 1
 26 26 l 1
 26 27 l 1
 28 27 l 1
 28 25 l 1
 27 25 l 1
 27 26 l 1
31 25 m 1
 29 25 l 1
 29 27 l 1
 31 27 l 1
 31 25 l 1
17 29 m 1
 15 29 l 1
 15 31 l 1
 17 31 l 1
 17 29 l 1
17 33 m 1
 15 33 l 1
 15 35 l 1
 17 35 l 1
 17 33 l 1
23 33 m 1
 21 33 l 1
 21 35 l 1
 23 35 l 1
 23 33 l 1
25 33 m 1
 24 33 l 1
 24 35 l 1
 26 35 l 1
 26 34 l 1
 25 34 l 1
 25 33 l 1
28 33 m 1
 26 33 l 1
 26 34 l 1
 27 34 l 1
 27 35 l 1
 28 35 l 1
 28 33 l 1
17 37 m 1
 15 37 l 1
 15 39 l 1
 17 39 l 1
 17 37 l 1
17 41 m 1
 15 41 l 1
 15 43 l 1
 17 43 l 1
 17 41 l 1
23 37 m 1
 21 37 l 1
 21 39 l 1
 23 39 l 1
 23 37 l 1
23 41 m 1
 21 41 l 1
 21 43 l 1
 23 43 l 1
 23 41 l 1
26 41 m 1
 24 41 l 1
 24 43 l 1
 25 43 l 1
 25 42 l 1
 26 42 l 1
 26 41 l 1
27 42 m 1
 26 42 l 1
 26 43 l 1
 28 43 l 1
 28 41 l 1
 27 41 l 1
 27 42 l 1
31 29 m 1
 29 29 l 1
 29 31 l 1
 31 31 l 1
 31 29 l 1
36 31 m 1
 34 31 l 1
 34 33 l 1
 36 33 l 1
 36 31 l 1
31 33 m 1
 29 33 l 1
 29 35 l 1
 31 35 l 1
 31 33 l 1
36 35 m 1
 34 35 l 1
 34 37 l 1
 36 37 l 1
 36 35 l 1
31 41 m 1
 29 41 l 1
 29 43 l 1
 31 43 l 1
 31 41 l 1
49 25 m 1
 47 25 l 1
 47 27 l 1
 49 27 l 1
 49 25 l 1
55 25 m 1
 53 25 l 1
 53 27 l 1
 55 27 l 1
 55 25 l 1
58 25 m 1
 56 25 l 1
 56 27 l 1
 57 27 l 1
 57 26 l 1
 58 26 l 1
 58 25 l 1
59 26 m 1
 58 26 l 1
 58 27 l 1
 60 27 l 1
 60 25 l 1
 59 25 l 1
 59 26 l 1
63 25 m 1
 61 25 l 1
 61 27 l 1
 63 27 l 1
 63 25 l 1
49 29 m 1
 47 29 l 1
 47 31 l 1
 49 31 l 1
 49 29 l 1
49 33 m 1
 47 33 l 1
 47 35 l 1
 49 35 l 1
 49 33 l 1
55 33 m 1
 53 33 l 1
 53 35 l 1
 55 35 l 1
 55 33 l 1
57 33 m 1
 56 33 l 1
 56 35 l 1
 58 35 l 1
 58 34 l 1
 57 34 l 1
 57 33 l 1
60 33 m 1
 58 33 l 1
 58 34 l 1
 59 34 l 1
 59 35 l 1
 60 35 l 1
 60 33 l 1
49 37 m 1
 47 37 l 1
 47 39 l 1
 49 39 l 1
 49 37 l 1
49 41 m 1
 47 41 l 1
 47 43 l 1
 49 43 l 1
 49 41 l 1
55 41 m 1
 53 41 l 1
 53 43 l 1
 55 43 l 1
 55 41 l 1
58 41 m 1
 56 41 l 1
 56 43 l 1
 57 43 l 1
 57 42 l 1
 58 42 l 1
 58 41 l 1
59 42 m 1
 58 42 l 1
 58 43 l 1
 60 43 l 1
 60 41 l 1
 59 41 l 1
 59 42 l 1
63 29 m 1
 61 29 l 1
 61 31 l 1
 63 31 l 1
 63 29 l 1
63 33 m 1
 61 33 l 1
 61 35 l 1
 63 35 l 1
 63 33 l 1
63 37 m 1
 61 37 l 1
 61 39 l 1
 63 39 l 1
 63 37 l 1
63 41 m 1
 61 41 l 1
 61 43 l 1
 63 43 l 1
 63 41 l 1
EndSplineSet
Ligature2: "'liga' Standard Ligatures in Latin lookup 0-1" one three zero six three
LCarets2: 1 0
EndChar

StartChar: custom_1_3_0_6_4
Encoding: 4220 -1 3975
Width: 70
Flags: H
LayerCount: 2
Fore
SplineSet
17 25 m 1
 15 25 l 1
 15 27 l 1
 17 27 l 1
 17 25 l 1
23 25 m 1
 21 25 l 1
 21 27 l 1
 23 27 l 1
 23 25 l 1
26 25 m 1
 24 25 l 1
 24 27 l 1
 25 27 l 1
 25 26 l 1
 26 26 l 1
 26 25 l 1
27 26 m 1
 26 26 l 1
 26 27 l 1
 28 27 l 1
 28 25 l 1
 27 25 l 1
 27 26 l 1
31 25 m 1
 29 25 l 1
 29 27 l 1
 31 27 l 1
 31 25 l 1
17 29 m 1
 15 29 l 1
 15 31 l 1
 17 31 l 1
 17 29 l 1
17 33 m 1
 15 33 l 1
 15 35 l 1
 17 35 l 1
 17 33 l 1
23 33 m 1
 21 33 l 1
 21 35 l 1
 23 35 l 1
 23 33 l 1
25 33 m 1
 24 33 l 1
 24 35 l 1
 26 35 l 1
 26 34 l 1
 25 34 l 1
 25 33 l 1
28 33 m 1
 26 33 l 1
 26 34 l 1
 27 34 l 1
 27 35 l 1
 28 35 l 1
 28 33 l 1
17 37 m 1
 15 37 l 1
 15 39 l 1
 17 39 l 1
 17 37 l 1
17 41 m 1
 15 41 l 1
 15 43 l 1
 17 43 l 1
 17 41 l 1
23 37 m 1
 21 37 l 1
 21 39 l 1
 23 39 l 1
 23 37 l 1
23 41 m 1
 21 41 l 1
 21 43 l 1
 23 43 l 1
 23 41 l 1
26 41 m 1
 24 41 l 1
 24 43 l 1
 25 43 l 1
 25 42 l 1
 26 42 l 1
 26 41 l 1
27 42 m 1
 26 42 l 1
 26 43 l 1
 28 43 l 1
 28 41 l 1
 27 41 l 1
 27 42 l 1
31 29 m 1
 29 29 l 1
 29 31 l 1
 31 31 l 1
 31 29 l 1
36 31 m 1
 34 31 l 1
 34 33 l 1
 36 33 l 1
 36 31 l 1
31 33 m 1
 29 33 l 1
 29 35 l 1
 31 35 l 1
 31 33 l 1
36 35 m 1
 34 35 l 1
 34 37 l 1
 36 37 l 1
 36 35 l 1
31 41 m 1
 29 41 l 1
 29 43 l 1
 31 43 l 1
 31 41 l 1
49 25 m 1
 47 25 l 1
 47 27 l 1
 49 27 l 1
 49 25 l 1
55 25 m 1
 53 25 l 1
 53 27 l 1
 55 27 l 1
 55 25 l 1
58 25 m 1
 56 25 l 1
 56 27 l 1
 57 27 l 1
 57 26 l 1
 58 26 l 1
 58 25 l 1
59 26 m 1
 58 26 l 1
 58 27 l 1
 60 27 l 1
 60 25 l 1
 59 25 l 1
 59 26 l 1
63 25 m 1
 61 25 l 1
 61 27 l 1
 63 27 l 1
 63 25 l 1
49 29 m 1
 47 29 l 1
 47 31 l 1
 49 31 l 1
 49 29 l 1
49 33 m 1
 47 33 l 1
 47 35 l 1
 49 35 l 1
 49 33 l 1
55 33 m 1
 53 33 l 1
 53 35 l 1
 55 35 l 1
 55 33 l 1
57 33 m 1
 56 33 l 1
 56 35 l 1
 58 35 l 1
 58 34 l 1
 57 34 l 1
 57 33 l 1
60 33 m 1
 58 33 l 1
 58 34 l 1
 59 34 l 1
 59 35 l 1
 60 35 l 1
 60 33 l 1
49 37 m 1
 47 37 l 1
 47 39 l 1
 49 39 l 1
 49 37 l 1
49 41 m 1
 47 41 l 1
 47 43 l 1
 49 43 l 1
 49 41 l 1
55 41 m 1
 53 41 l 1
 53 43 l 1
 55 43 l 1
 55 41 l 1
58 41 m 1
 56 41 l 1
 56 43 l 1
 57 43 l 1
 57 42 l 1
 58 42 l 1
 58 41 l 1
59 42 m 1
 58 42 l 1
 58 43 l 1
 60 43 l 1
 60 41 l 1
 59 41 l 1
 59 42 l 1
63 29 m 1
 61 29 l 1
 61 31 l 1
 63 31 l 1
 63 29 l 1
63 33 m 1
 61 33 l 1
 61 35 l 1
 63 35 l 1
 63 33 l 1
63 37 m 1
 61 37 l 1
 61 39 l 1
 63 39 l 1
 63 37 l 1
63 41 m 1
 61 41 l 1
 61 43 l 1
 63 43 l 1
 63 41 l 1
EndSplineSet
Ligature2: "'liga' Standard Ligatures in Latin lookup 0-1" one three zero six four
LCarets2: 1 0
EndChar

StartChar: custom_1_3_0_6_5
Encoding: 4221 -1 3976
Width: 70
Flags: H
LayerCount: 2
Fore
SplineSet
17 25 m 1
 15 25 l 1
 15 27 l 1
 17 27 l 1
 17 25 l 1
23 25 m 1
 21 25 l 1
 21 27 l 1
 23 27 l 1
 23 25 l 1
26 25 m 1
 24 25 l 1
 24 27 l 1
 25 27 l 1
 25 26 l 1
 26 26 l 1
 26 25 l 1
27 26 m 1
 26 26 l 1
 26 27 l 1
 28 27 l 1
 28 25 l 1
 27 25 l 1
 27 26 l 1
31 25 m 1
 29 25 l 1
 29 27 l 1
 31 27 l 1
 31 25 l 1
17 29 m 1
 15 29 l 1
 15 31 l 1
 17 31 l 1
 17 29 l 1
17 33 m 1
 15 33 l 1
 15 35 l 1
 17 35 l 1
 17 33 l 1
23 33 m 1
 21 33 l 1
 21 35 l 1
 23 35 l 1
 23 33 l 1
25 33 m 1
 24 33 l 1
 24 35 l 1
 26 35 l 1
 26 34 l 1
 25 34 l 1
 25 33 l 1
28 33 m 1
 26 33 l 1
 26 34 l 1
 27 34 l 1
 27 35 l 1
 28 35 l 1
 28 33 l 1
17 37 m 1
 15 37 l 1
 15 39 l 1
 17 39 l 1
 17 37 l 1
17 41 m 1
 15 41 l 1
 15 43 l 1
 17 43 l 1
 17 41 l 1
23 37 m 1
 21 37 l 1
 21 39 l 1
 23 39 l 1
 23 37 l 1
23 41 m 1
 21 41 l 1
 21 43 l 1
 23 43 l 1
 23 41 l 1
26 41 m 1
 24 41 l 1
 24 43 l 1
 25 43 l 1
 25 42 l 1
 26 42 l 1
 26 41 l 1
27 42 m 1
 26 42 l 1
 26 43 l 1
 28 43 l 1
 28 41 l 1
 27 41 l 1
 27 42 l 1
31 29 m 1
 29 29 l 1
 29 31 l 1
 31 31 l 1
 31 29 l 1
36 31 m 1
 34 31 l 1
 34 33 l 1
 36 33 l 1
 36 31 l 1
31 33 m 1
 29 33 l 1
 29 35 l 1
 31 35 l 1
 31 33 l 1
36 35 m 1
 34 35 l 1
 34 37 l 1
 36 37 l 1
 36 35 l 1
31 41 m 1
 29 41 l 1
 29 43 l 1
 31 43 l 1
 31 41 l 1
49 25 m 1
 47 25 l 1
 47 27 l 1
 49 27 l 1
 49 25 l 1
55 25 m 1
 53 25 l 1
 53 27 l 1
 55 27 l 1
 55 25 l 1
58 25 m 1
 56 25 l 1
 56 27 l 1
 57 27 l 1
 57 26 l 1
 58 26 l 1
 58 25 l 1
59 26 m 1
 58 26 l 1
 58 27 l 1
 60 27 l 1
 60 25 l 1
 59 25 l 1
 59 26 l 1
63 25 m 1
 61 25 l 1
 61 27 l 1
 63 27 l 1
 63 25 l 1
49 29 m 1
 47 29 l 1
 47 31 l 1
 49 31 l 1
 49 29 l 1
49 33 m 1
 47 33 l 1
 47 35 l 1
 49 35 l 1
 49 33 l 1
55 33 m 1
 53 33 l 1
 53 35 l 1
 55 35 l 1
 55 33 l 1
57 33 m 1
 56 33 l 1
 56 35 l 1
 58 35 l 1
 58 34 l 1
 57 34 l 1
 57 33 l 1
60 33 m 1
 58 33 l 1
 58 34 l 1
 59 34 l 1
 59 35 l 1
 60 35 l 1
 60 33 l 1
49 37 m 1
 47 37 l 1
 47 39 l 1
 49 39 l 1
 49 37 l 1
49 41 m 1
 47 41 l 1
 47 43 l 1
 49 43 l 1
 49 41 l 1
55 41 m 1
 53 41 l 1
 53 43 l 1
 55 43 l 1
 55 41 l 1
58 41 m 1
 56 41 l 1
 56 43 l 1
 57 43 l 1
 57 42 l 1
 58 42 l 1
 58 41 l 1
59 42 m 1
 58 42 l 1
 58 43 l 1
 60 43 l 1
 60 41 l 1
 59 41 l 1
 59 42 l 1
63 29 m 1
 61 29 l 1
 61 31 l 1
 63 31 l 1
 63 29 l 1
63 33 m 1
 61 33 l 1
 61 35 l 1
 63 35 l 1
 63 33 l 1
63 37 m 1
 61 37 l 1
 61 39 l 1
 63 39 l 1
 63 37 l 1
63 41 m 1
 61 41 l 1
 61 43 l 1
 63 43 l 1
 63 41 l 1
EndSplineSet
Ligature2: "'liga' Standard Ligatures in Latin lookup 0-1" one three zero six five
LCarets2: 1 0
EndChar

StartChar: custom_1_3_0_6_6
Encoding: 4222 -1 3977
Width: 70
Flags: H
LayerCount: 2
Fore
SplineSet
17 25 m 1
 15 25 l 1
 15 27 l 1
 17 27 l 1
 17 25 l 1
23 25 m 1
 21 25 l 1
 21 27 l 1
 23 27 l 1
 23 25 l 1
26 25 m 1
 24 25 l 1
 24 27 l 1
 25 27 l 1
 25 26 l 1
 26 26 l 1
 26 25 l 1
27 26 m 1
 26 26 l 1
 26 27 l 1
 28 27 l 1
 28 25 l 1
 27 25 l 1
 27 26 l 1
31 25 m 1
 29 25 l 1
 29 27 l 1
 31 27 l 1
 31 25 l 1
17 29 m 1
 15 29 l 1
 15 31 l 1
 17 31 l 1
 17 29 l 1
17 33 m 1
 15 33 l 1
 15 35 l 1
 17 35 l 1
 17 33 l 1
23 33 m 1
 21 33 l 1
 21 35 l 1
 23 35 l 1
 23 33 l 1
25 33 m 1
 24 33 l 1
 24 35 l 1
 26 35 l 1
 26 34 l 1
 25 34 l 1
 25 33 l 1
28 33 m 1
 26 33 l 1
 26 34 l 1
 27 34 l 1
 27 35 l 1
 28 35 l 1
 28 33 l 1
17 37 m 1
 15 37 l 1
 15 39 l 1
 17 39 l 1
 17 37 l 1
17 41 m 1
 15 41 l 1
 15 43 l 1
 17 43 l 1
 17 41 l 1
23 37 m 1
 21 37 l 1
 21 39 l 1
 23 39 l 1
 23 37 l 1
23 41 m 1
 21 41 l 1
 21 43 l 1
 23 43 l 1
 23 41 l 1
26 41 m 1
 24 41 l 1
 24 43 l 1
 25 43 l 1
 25 42 l 1
 26 42 l 1
 26 41 l 1
27 42 m 1
 26 42 l 1
 26 43 l 1
 28 43 l 1
 28 41 l 1
 27 41 l 1
 27 42 l 1
31 29 m 1
 29 29 l 1
 29 31 l 1
 31 31 l 1
 31 29 l 1
36 31 m 1
 34 31 l 1
 34 33 l 1
 36 33 l 1
 36 31 l 1
31 33 m 1
 29 33 l 1
 29 35 l 1
 31 35 l 1
 31 33 l 1
36 35 m 1
 34 35 l 1
 34 37 l 1
 36 37 l 1
 36 35 l 1
31 41 m 1
 29 41 l 1
 29 43 l 1
 31 43 l 1
 31 41 l 1
49 25 m 1
 47 25 l 1
 47 27 l 1
 49 27 l 1
 49 25 l 1
55 25 m 1
 53 25 l 1
 53 27 l 1
 55 27 l 1
 55 25 l 1
58 25 m 1
 56 25 l 1
 56 27 l 1
 57 27 l 1
 57 26 l 1
 58 26 l 1
 58 25 l 1
59 26 m 1
 58 26 l 1
 58 27 l 1
 60 27 l 1
 60 25 l 1
 59 25 l 1
 59 26 l 1
63 25 m 1
 61 25 l 1
 61 27 l 1
 63 27 l 1
 63 25 l 1
49 29 m 1
 47 29 l 1
 47 31 l 1
 49 31 l 1
 49 29 l 1
49 33 m 1
 47 33 l 1
 47 35 l 1
 49 35 l 1
 49 33 l 1
55 33 m 1
 53 33 l 1
 53 35 l 1
 55 35 l 1
 55 33 l 1
57 33 m 1
 56 33 l 1
 56 35 l 1
 58 35 l 1
 58 34 l 1
 57 34 l 1
 57 33 l 1
60 33 m 1
 58 33 l 1
 58 34 l 1
 59 34 l 1
 59 35 l 1
 60 35 l 1
 60 33 l 1
49 37 m 1
 47 37 l 1
 47 39 l 1
 49 39 l 1
 49 37 l 1
49 41 m 1
 47 41 l 1
 47 43 l 1
 49 43 l 1
 49 41 l 1
55 41 m 1
 53 41 l 1
 53 43 l 1
 55 43 l 1
 55 41 l 1
58 41 m 1
 56 41 l 1
 56 43 l 1
 57 43 l 1
 57 42 l 1
 58 42 l 1
 58 41 l 1
59 42 m 1
 58 42 l 1
 58 43 l 1
 60 43 l 1
 60 41 l 1
 59 41 l 1
 59 42 l 1
63 29 m 1
 61 29 l 1
 61 31 l 1
 63 31 l 1
 63 29 l 1
63 33 m 1
 61 33 l 1
 61 35 l 1
 63 35 l 1
 63 33 l 1
63 37 m 1
 61 37 l 1
 61 39 l 1
 63 39 l 1
 63 37 l 1
63 41 m 1
 61 41 l 1
 61 43 l 1
 63 43 l 1
 63 41 l 1
EndSplineSet
Ligature2: "'liga' Standard Ligatures in Latin lookup 0-1" one three zero six six
LCarets2: 1 0
EndChar

StartChar: custom_1_3_0_6_7
Encoding: 4223 -1 3978
Width: 70
Flags: H
LayerCount: 2
Fore
SplineSet
17 25 m 1
 15 25 l 1
 15 27 l 1
 17 27 l 1
 17 25 l 1
23 25 m 1
 21 25 l 1
 21 27 l 1
 23 27 l 1
 23 25 l 1
26 25 m 1
 24 25 l 1
 24 27 l 1
 25 27 l 1
 25 26 l 1
 26 26 l 1
 26 25 l 1
27 26 m 1
 26 26 l 1
 26 27 l 1
 28 27 l 1
 28 25 l 1
 27 25 l 1
 27 26 l 1
31 25 m 1
 29 25 l 1
 29 27 l 1
 31 27 l 1
 31 25 l 1
17 29 m 1
 15 29 l 1
 15 31 l 1
 17 31 l 1
 17 29 l 1
17 33 m 1
 15 33 l 1
 15 35 l 1
 17 35 l 1
 17 33 l 1
23 33 m 1
 21 33 l 1
 21 35 l 1
 23 35 l 1
 23 33 l 1
25 33 m 1
 24 33 l 1
 24 35 l 1
 26 35 l 1
 26 34 l 1
 25 34 l 1
 25 33 l 1
28 33 m 1
 26 33 l 1
 26 34 l 1
 27 34 l 1
 27 35 l 1
 28 35 l 1
 28 33 l 1
17 37 m 1
 15 37 l 1
 15 39 l 1
 17 39 l 1
 17 37 l 1
17 41 m 1
 15 41 l 1
 15 43 l 1
 17 43 l 1
 17 41 l 1
23 37 m 1
 21 37 l 1
 21 39 l 1
 23 39 l 1
 23 37 l 1
23 41 m 1
 21 41 l 1
 21 43 l 1
 23 43 l 1
 23 41 l 1
26 41 m 1
 24 41 l 1
 24 43 l 1
 25 43 l 1
 25 42 l 1
 26 42 l 1
 26 41 l 1
27 42 m 1
 26 42 l 1
 26 43 l 1
 28 43 l 1
 28 41 l 1
 27 41 l 1
 27 42 l 1
31 29 m 1
 29 29 l 1
 29 31 l 1
 31 31 l 1
 31 29 l 1
36 31 m 1
 34 31 l 1
 34 33 l 1
 36 33 l 1
 36 31 l 1
31 33 m 1
 29 33 l 1
 29 35 l 1
 31 35 l 1
 31 33 l 1
36 35 m 1
 34 35 l 1
 34 37 l 1
 36 37 l 1
 36 35 l 1
31 41 m 1
 29 41 l 1
 29 43 l 1
 31 43 l 1
 31 41 l 1
49 25 m 1
 47 25 l 1
 47 27 l 1
 49 27 l 1
 49 25 l 1
55 25 m 1
 53 25 l 1
 53 27 l 1
 55 27 l 1
 55 25 l 1
58 25 m 1
 56 25 l 1
 56 27 l 1
 57 27 l 1
 57 26 l 1
 58 26 l 1
 58 25 l 1
59 26 m 1
 58 26 l 1
 58 27 l 1
 60 27 l 1
 60 25 l 1
 59 25 l 1
 59 26 l 1
63 25 m 1
 61 25 l 1
 61 27 l 1
 63 27 l 1
 63 25 l 1
49 29 m 1
 47 29 l 1
 47 31 l 1
 49 31 l 1
 49 29 l 1
49 33 m 1
 47 33 l 1
 47 35 l 1
 49 35 l 1
 49 33 l 1
55 33 m 1
 53 33 l 1
 53 35 l 1
 55 35 l 1
 55 33 l 1
57 33 m 1
 56 33 l 1
 56 35 l 1
 58 35 l 1
 58 34 l 1
 57 34 l 1
 57 33 l 1
60 33 m 1
 58 33 l 1
 58 34 l 1
 59 34 l 1
 59 35 l 1
 60 35 l 1
 60 33 l 1
49 37 m 1
 47 37 l 1
 47 39 l 1
 49 39 l 1
 49 37 l 1
49 41 m 1
 47 41 l 1
 47 43 l 1
 49 43 l 1
 49 41 l 1
55 41 m 1
 53 41 l 1
 53 43 l 1
 55 43 l 1
 55 41 l 1
58 41 m 1
 56 41 l 1
 56 43 l 1
 57 43 l 1
 57 42 l 1
 58 42 l 1
 58 41 l 1
59 42 m 1
 58 42 l 1
 58 43 l 1
 60 43 l 1
 60 41 l 1
 59 41 l 1
 59 42 l 1
63 29 m 1
 61 29 l 1
 61 31 l 1
 63 31 l 1
 63 29 l 1
63 33 m 1
 61 33 l 1
 61 35 l 1
 63 35 l 1
 63 33 l 1
63 37 m 1
 61 37 l 1
 61 39 l 1
 63 39 l 1
 63 37 l 1
63 41 m 1
 61 41 l 1
 61 43 l 1
 63 43 l 1
 63 41 l 1
EndSplineSet
Ligature2: "'liga' Standard Ligatures in Latin lookup 0-1" one three zero six seven
LCarets2: 1 0
EndChar

StartChar: custom_1_3_0_6_8
Encoding: 4224 -1 3979
Width: 70
Flags: H
LayerCount: 2
Fore
SplineSet
17 25 m 1
 15 25 l 1
 15 27 l 1
 17 27 l 1
 17 25 l 1
23 25 m 1
 21 25 l 1
 21 27 l 1
 23 27 l 1
 23 25 l 1
26 25 m 1
 24 25 l 1
 24 27 l 1
 25 27 l 1
 25 26 l 1
 26 26 l 1
 26 25 l 1
27 26 m 1
 26 26 l 1
 26 27 l 1
 28 27 l 1
 28 25 l 1
 27 25 l 1
 27 26 l 1
31 25 m 1
 29 25 l 1
 29 27 l 1
 31 27 l 1
 31 25 l 1
17 29 m 1
 15 29 l 1
 15 31 l 1
 17 31 l 1
 17 29 l 1
17 33 m 1
 15 33 l 1
 15 35 l 1
 17 35 l 1
 17 33 l 1
23 33 m 1
 21 33 l 1
 21 35 l 1
 23 35 l 1
 23 33 l 1
25 33 m 1
 24 33 l 1
 24 35 l 1
 26 35 l 1
 26 34 l 1
 25 34 l 1
 25 33 l 1
28 33 m 1
 26 33 l 1
 26 34 l 1
 27 34 l 1
 27 35 l 1
 28 35 l 1
 28 33 l 1
17 37 m 1
 15 37 l 1
 15 39 l 1
 17 39 l 1
 17 37 l 1
17 41 m 1
 15 41 l 1
 15 43 l 1
 17 43 l 1
 17 41 l 1
23 37 m 1
 21 37 l 1
 21 39 l 1
 23 39 l 1
 23 37 l 1
23 41 m 1
 21 41 l 1
 21 43 l 1
 23 43 l 1
 23 41 l 1
26 41 m 1
 24 41 l 1
 24 43 l 1
 25 43 l 1
 25 42 l 1
 26 42 l 1
 26 41 l 1
27 42 m 1
 26 42 l 1
 26 43 l 1
 28 43 l 1
 28 41 l 1
 27 41 l 1
 27 42 l 1
31 29 m 1
 29 29 l 1
 29 31 l 1
 31 31 l 1
 31 29 l 1
36 31 m 1
 34 31 l 1
 34 33 l 1
 36 33 l 1
 36 31 l 1
31 33 m 1
 29 33 l 1
 29 35 l 1
 31 35 l 1
 31 33 l 1
36 35 m 1
 34 35 l 1
 34 37 l 1
 36 37 l 1
 36 35 l 1
31 41 m 1
 29 41 l 1
 29 43 l 1
 31 43 l 1
 31 41 l 1
49 25 m 1
 47 25 l 1
 47 27 l 1
 49 27 l 1
 49 25 l 1
55 25 m 1
 53 25 l 1
 53 27 l 1
 55 27 l 1
 55 25 l 1
58 25 m 1
 56 25 l 1
 56 27 l 1
 57 27 l 1
 57 26 l 1
 58 26 l 1
 58 25 l 1
59 26 m 1
 58 26 l 1
 58 27 l 1
 60 27 l 1
 60 25 l 1
 59 25 l 1
 59 26 l 1
63 25 m 1
 61 25 l 1
 61 27 l 1
 63 27 l 1
 63 25 l 1
49 29 m 1
 47 29 l 1
 47 31 l 1
 49 31 l 1
 49 29 l 1
49 33 m 1
 47 33 l 1
 47 35 l 1
 49 35 l 1
 49 33 l 1
55 33 m 1
 53 33 l 1
 53 35 l 1
 55 35 l 1
 55 33 l 1
57 33 m 1
 56 33 l 1
 56 35 l 1
 58 35 l 1
 58 34 l 1
 57 34 l 1
 57 33 l 1
60 33 m 1
 58 33 l 1
 58 34 l 1
 59 34 l 1
 59 35 l 1
 60 35 l 1
 60 33 l 1
49 37 m 1
 47 37 l 1
 47 39 l 1
 49 39 l 1
 49 37 l 1
49 41 m 1
 47 41 l 1
 47 43 l 1
 49 43 l 1
 49 41 l 1
55 41 m 1
 53 41 l 1
 53 43 l 1
 55 43 l 1
 55 41 l 1
58 41 m 1
 56 41 l 1
 56 43 l 1
 57 43 l 1
 57 42 l 1
 58 42 l 1
 58 41 l 1
59 42 m 1
 58 42 l 1
 58 43 l 1
 60 43 l 1
 60 41 l 1
 59 41 l 1
 59 42 l 1
63 29 m 1
 61 29 l 1
 61 31 l 1
 63 31 l 1
 63 29 l 1
63 33 m 1
 61 33 l 1
 61 35 l 1
 63 35 l 1
 63 33 l 1
63 37 m 1
 61 37 l 1
 61 39 l 1
 63 39 l 1
 63 37 l 1
63 41 m 1
 61 41 l 1
 61 43 l 1
 63 43 l 1
 63 41 l 1
EndSplineSet
Ligature2: "'liga' Standard Ligatures in Latin lookup 0-1" one three zero six eight
LCarets2: 1 0
EndChar

StartChar: custom_1_3_0_6_9
Encoding: 4225 -1 3980
Width: 70
Flags: H
LayerCount: 2
Fore
SplineSet
17 25 m 1
 15 25 l 1
 15 27 l 1
 17 27 l 1
 17 25 l 1
23 25 m 1
 21 25 l 1
 21 27 l 1
 23 27 l 1
 23 25 l 1
26 25 m 1
 24 25 l 1
 24 27 l 1
 25 27 l 1
 25 26 l 1
 26 26 l 1
 26 25 l 1
27 26 m 1
 26 26 l 1
 26 27 l 1
 28 27 l 1
 28 25 l 1
 27 25 l 1
 27 26 l 1
31 25 m 1
 29 25 l 1
 29 27 l 1
 31 27 l 1
 31 25 l 1
17 29 m 1
 15 29 l 1
 15 31 l 1
 17 31 l 1
 17 29 l 1
17 33 m 1
 15 33 l 1
 15 35 l 1
 17 35 l 1
 17 33 l 1
23 33 m 1
 21 33 l 1
 21 35 l 1
 23 35 l 1
 23 33 l 1
25 33 m 1
 24 33 l 1
 24 35 l 1
 26 35 l 1
 26 34 l 1
 25 34 l 1
 25 33 l 1
28 33 m 1
 26 33 l 1
 26 34 l 1
 27 34 l 1
 27 35 l 1
 28 35 l 1
 28 33 l 1
17 37 m 1
 15 37 l 1
 15 39 l 1
 17 39 l 1
 17 37 l 1
17 41 m 1
 15 41 l 1
 15 43 l 1
 17 43 l 1
 17 41 l 1
23 37 m 1
 21 37 l 1
 21 39 l 1
 23 39 l 1
 23 37 l 1
23 41 m 1
 21 41 l 1
 21 43 l 1
 23 43 l 1
 23 41 l 1
26 41 m 1
 24 41 l 1
 24 43 l 1
 25 43 l 1
 25 42 l 1
 26 42 l 1
 26 41 l 1
27 42 m 1
 26 42 l 1
 26 43 l 1
 28 43 l 1
 28 41 l 1
 27 41 l 1
 27 42 l 1
31 29 m 1
 29 29 l 1
 29 31 l 1
 31 31 l 1
 31 29 l 1
36 31 m 1
 34 31 l 1
 34 33 l 1
 36 33 l 1
 36 31 l 1
31 33 m 1
 29 33 l 1
 29 35 l 1
 31 35 l 1
 31 33 l 1
36 35 m 1
 34 35 l 1
 34 37 l 1
 36 37 l 1
 36 35 l 1
31 41 m 1
 29 41 l 1
 29 43 l 1
 31 43 l 1
 31 41 l 1
49 25 m 1
 47 25 l 1
 47 27 l 1
 49 27 l 1
 49 25 l 1
55 25 m 1
 53 25 l 1
 53 27 l 1
 55 27 l 1
 55 25 l 1
58 25 m 1
 56 25 l 1
 56 27 l 1
 57 27 l 1
 57 26 l 1
 58 26 l 1
 58 25 l 1
59 26 m 1
 58 26 l 1
 58 27 l 1
 60 27 l 1
 60 25 l 1
 59 25 l 1
 59 26 l 1
63 25 m 1
 61 25 l 1
 61 27 l 1
 63 27 l 1
 63 25 l 1
49 29 m 1
 47 29 l 1
 47 31 l 1
 49 31 l 1
 49 29 l 1
49 33 m 1
 47 33 l 1
 47 35 l 1
 49 35 l 1
 49 33 l 1
55 33 m 1
 53 33 l 1
 53 35 l 1
 55 35 l 1
 55 33 l 1
57 33 m 1
 56 33 l 1
 56 35 l 1
 58 35 l 1
 58 34 l 1
 57 34 l 1
 57 33 l 1
60 33 m 1
 58 33 l 1
 58 34 l 1
 59 34 l 1
 59 35 l 1
 60 35 l 1
 60 33 l 1
49 37 m 1
 47 37 l 1
 47 39 l 1
 49 39 l 1
 49 37 l 1
49 41 m 1
 47 41 l 1
 47 43 l 1
 49 43 l 1
 49 41 l 1
55 41 m 1
 53 41 l 1
 53 43 l 1
 55 43 l 1
 55 41 l 1
58 41 m 1
 56 41 l 1
 56 43 l 1
 57 43 l 1
 57 42 l 1
 58 42 l 1
 58 41 l 1
59 42 m 1
 58 42 l 1
 58 43 l 1
 60 43 l 1
 60 41 l 1
 59 41 l 1
 59 42 l 1
63 29 m 1
 61 29 l 1
 61 31 l 1
 63 31 l 1
 63 29 l 1
63 33 m 1
 61 33 l 1
 61 35 l 1
 63 35 l 1
 63 33 l 1
63 37 m 1
 61 37 l 1
 61 39 l 1
 63 39 l 1
 63 37 l 1
63 41 m 1
 61 41 l 1
 61 43 l 1
 63 43 l 1
 63 41 l 1
EndSplineSet
Ligature2: "'liga' Standard Ligatures in Latin lookup 0-1" one three zero six nine
LCarets2: 1 0
EndChar

StartChar: custom_1_3_0_7_0
Encoding: 4226 -1 3981
Width: 70
Flags: H
LayerCount: 2
Fore
SplineSet
17 25 m 1
 15 25 l 1
 15 27 l 1
 17 27 l 1
 17 25 l 1
23 25 m 1
 21 25 l 1
 21 27 l 1
 23 27 l 1
 23 25 l 1
26 25 m 1
 24 25 l 1
 24 27 l 1
 25 27 l 1
 25 26 l 1
 26 26 l 1
 26 25 l 1
27 26 m 1
 26 26 l 1
 26 27 l 1
 28 27 l 1
 28 25 l 1
 27 25 l 1
 27 26 l 1
31 25 m 1
 29 25 l 1
 29 27 l 1
 31 27 l 1
 31 25 l 1
17 29 m 1
 15 29 l 1
 15 31 l 1
 17 31 l 1
 17 29 l 1
17 33 m 1
 15 33 l 1
 15 35 l 1
 17 35 l 1
 17 33 l 1
23 33 m 1
 21 33 l 1
 21 35 l 1
 23 35 l 1
 23 33 l 1
25 33 m 1
 24 33 l 1
 24 35 l 1
 26 35 l 1
 26 34 l 1
 25 34 l 1
 25 33 l 1
28 33 m 1
 26 33 l 1
 26 34 l 1
 27 34 l 1
 27 35 l 1
 28 35 l 1
 28 33 l 1
17 37 m 1
 15 37 l 1
 15 39 l 1
 17 39 l 1
 17 37 l 1
17 41 m 1
 15 41 l 1
 15 43 l 1
 17 43 l 1
 17 41 l 1
23 37 m 1
 21 37 l 1
 21 39 l 1
 23 39 l 1
 23 37 l 1
23 41 m 1
 21 41 l 1
 21 43 l 1
 23 43 l 1
 23 41 l 1
26 41 m 1
 24 41 l 1
 24 43 l 1
 25 43 l 1
 25 42 l 1
 26 42 l 1
 26 41 l 1
27 42 m 1
 26 42 l 1
 26 43 l 1
 28 43 l 1
 28 41 l 1
 27 41 l 1
 27 42 l 1
31 29 m 1
 29 29 l 1
 29 31 l 1
 31 31 l 1
 31 29 l 1
36 31 m 1
 34 31 l 1
 34 33 l 1
 36 33 l 1
 36 31 l 1
31 33 m 1
 29 33 l 1
 29 35 l 1
 31 35 l 1
 31 33 l 1
36 35 m 1
 34 35 l 1
 34 37 l 1
 36 37 l 1
 36 35 l 1
31 41 m 1
 29 41 l 1
 29 43 l 1
 31 43 l 1
 31 41 l 1
49 25 m 1
 47 25 l 1
 47 27 l 1
 49 27 l 1
 49 25 l 1
55 25 m 1
 53 25 l 1
 53 27 l 1
 55 27 l 1
 55 25 l 1
58 25 m 1
 56 25 l 1
 56 27 l 1
 57 27 l 1
 57 26 l 1
 58 26 l 1
 58 25 l 1
59 26 m 1
 58 26 l 1
 58 27 l 1
 60 27 l 1
 60 25 l 1
 59 25 l 1
 59 26 l 1
63 25 m 1
 61 25 l 1
 61 27 l 1
 63 27 l 1
 63 25 l 1
49 29 m 1
 47 29 l 1
 47 31 l 1
 49 31 l 1
 49 29 l 1
49 33 m 1
 47 33 l 1
 47 35 l 1
 49 35 l 1
 49 33 l 1
55 33 m 1
 53 33 l 1
 53 35 l 1
 55 35 l 1
 55 33 l 1
57 33 m 1
 56 33 l 1
 56 35 l 1
 58 35 l 1
 58 34 l 1
 57 34 l 1
 57 33 l 1
60 33 m 1
 58 33 l 1
 58 34 l 1
 59 34 l 1
 59 35 l 1
 60 35 l 1
 60 33 l 1
49 37 m 1
 47 37 l 1
 47 39 l 1
 49 39 l 1
 49 37 l 1
49 41 m 1
 47 41 l 1
 47 43 l 1
 49 43 l 1
 49 41 l 1
55 41 m 1
 53 41 l 1
 53 43 l 1
 55 43 l 1
 55 41 l 1
58 41 m 1
 56 41 l 1
 56 43 l 1
 57 43 l 1
 57 42 l 1
 58 42 l 1
 58 41 l 1
59 42 m 1
 58 42 l 1
 58 43 l 1
 60 43 l 1
 60 41 l 1
 59 41 l 1
 59 42 l 1
63 29 m 1
 61 29 l 1
 61 31 l 1
 63 31 l 1
 63 29 l 1
63 33 m 1
 61 33 l 1
 61 35 l 1
 63 35 l 1
 63 33 l 1
63 37 m 1
 61 37 l 1
 61 39 l 1
 63 39 l 1
 63 37 l 1
63 41 m 1
 61 41 l 1
 61 43 l 1
 63 43 l 1
 63 41 l 1
EndSplineSet
Ligature2: "'liga' Standard Ligatures in Latin lookup 0-1" one three zero seven zero
LCarets2: 1 0
EndChar

StartChar: custom_1_3_0_7_1
Encoding: 4227 -1 3982
Width: 70
Flags: H
LayerCount: 2
Fore
SplineSet
17 25 m 1
 15 25 l 1
 15 27 l 1
 17 27 l 1
 17 25 l 1
23 25 m 1
 21 25 l 1
 21 27 l 1
 23 27 l 1
 23 25 l 1
26 25 m 1
 24 25 l 1
 24 27 l 1
 25 27 l 1
 25 26 l 1
 26 26 l 1
 26 25 l 1
27 26 m 1
 26 26 l 1
 26 27 l 1
 28 27 l 1
 28 25 l 1
 27 25 l 1
 27 26 l 1
31 25 m 1
 29 25 l 1
 29 27 l 1
 31 27 l 1
 31 25 l 1
17 29 m 1
 15 29 l 1
 15 31 l 1
 17 31 l 1
 17 29 l 1
17 33 m 1
 15 33 l 1
 15 35 l 1
 17 35 l 1
 17 33 l 1
23 33 m 1
 21 33 l 1
 21 35 l 1
 23 35 l 1
 23 33 l 1
25 33 m 1
 24 33 l 1
 24 35 l 1
 26 35 l 1
 26 34 l 1
 25 34 l 1
 25 33 l 1
28 33 m 1
 26 33 l 1
 26 34 l 1
 27 34 l 1
 27 35 l 1
 28 35 l 1
 28 33 l 1
17 37 m 1
 15 37 l 1
 15 39 l 1
 17 39 l 1
 17 37 l 1
17 41 m 1
 15 41 l 1
 15 43 l 1
 17 43 l 1
 17 41 l 1
23 37 m 1
 21 37 l 1
 21 39 l 1
 23 39 l 1
 23 37 l 1
23 41 m 1
 21 41 l 1
 21 43 l 1
 23 43 l 1
 23 41 l 1
26 41 m 1
 24 41 l 1
 24 43 l 1
 25 43 l 1
 25 42 l 1
 26 42 l 1
 26 41 l 1
27 42 m 1
 26 42 l 1
 26 43 l 1
 28 43 l 1
 28 41 l 1
 27 41 l 1
 27 42 l 1
31 29 m 1
 29 29 l 1
 29 31 l 1
 31 31 l 1
 31 29 l 1
36 31 m 1
 34 31 l 1
 34 33 l 1
 36 33 l 1
 36 31 l 1
31 33 m 1
 29 33 l 1
 29 35 l 1
 31 35 l 1
 31 33 l 1
36 35 m 1
 34 35 l 1
 34 37 l 1
 36 37 l 1
 36 35 l 1
31 41 m 1
 29 41 l 1
 29 43 l 1
 31 43 l 1
 31 41 l 1
49 25 m 1
 47 25 l 1
 47 27 l 1
 49 27 l 1
 49 25 l 1
55 25 m 1
 53 25 l 1
 53 27 l 1
 55 27 l 1
 55 25 l 1
58 25 m 1
 56 25 l 1
 56 27 l 1
 57 27 l 1
 57 26 l 1
 58 26 l 1
 58 25 l 1
59 26 m 1
 58 26 l 1
 58 27 l 1
 60 27 l 1
 60 25 l 1
 59 25 l 1
 59 26 l 1
63 25 m 1
 61 25 l 1
 61 27 l 1
 63 27 l 1
 63 25 l 1
49 29 m 1
 47 29 l 1
 47 31 l 1
 49 31 l 1
 49 29 l 1
49 33 m 1
 47 33 l 1
 47 35 l 1
 49 35 l 1
 49 33 l 1
55 33 m 1
 53 33 l 1
 53 35 l 1
 55 35 l 1
 55 33 l 1
57 33 m 1
 56 33 l 1
 56 35 l 1
 58 35 l 1
 58 34 l 1
 57 34 l 1
 57 33 l 1
60 33 m 1
 58 33 l 1
 58 34 l 1
 59 34 l 1
 59 35 l 1
 60 35 l 1
 60 33 l 1
49 37 m 1
 47 37 l 1
 47 39 l 1
 49 39 l 1
 49 37 l 1
49 41 m 1
 47 41 l 1
 47 43 l 1
 49 43 l 1
 49 41 l 1
55 41 m 1
 53 41 l 1
 53 43 l 1
 55 43 l 1
 55 41 l 1
58 41 m 1
 56 41 l 1
 56 43 l 1
 57 43 l 1
 57 42 l 1
 58 42 l 1
 58 41 l 1
59 42 m 1
 58 42 l 1
 58 43 l 1
 60 43 l 1
 60 41 l 1
 59 41 l 1
 59 42 l 1
63 29 m 1
 61 29 l 1
 61 31 l 1
 63 31 l 1
 63 29 l 1
63 33 m 1
 61 33 l 1
 61 35 l 1
 63 35 l 1
 63 33 l 1
63 37 m 1
 61 37 l 1
 61 39 l 1
 63 39 l 1
 63 37 l 1
63 41 m 1
 61 41 l 1
 61 43 l 1
 63 43 l 1
 63 41 l 1
EndSplineSet
Ligature2: "'liga' Standard Ligatures in Latin lookup 0-1" one three zero seven one
LCarets2: 1 0
EndChar

StartChar: custom_1_3_0_7_2
Encoding: 4228 -1 3983
Width: 70
Flags: H
LayerCount: 2
Fore
SplineSet
17 25 m 1
 15 25 l 1
 15 27 l 1
 17 27 l 1
 17 25 l 1
23 25 m 1
 21 25 l 1
 21 27 l 1
 23 27 l 1
 23 25 l 1
26 25 m 1
 24 25 l 1
 24 27 l 1
 25 27 l 1
 25 26 l 1
 26 26 l 1
 26 25 l 1
27 26 m 1
 26 26 l 1
 26 27 l 1
 28 27 l 1
 28 25 l 1
 27 25 l 1
 27 26 l 1
31 25 m 1
 29 25 l 1
 29 27 l 1
 31 27 l 1
 31 25 l 1
17 29 m 1
 15 29 l 1
 15 31 l 1
 17 31 l 1
 17 29 l 1
17 33 m 1
 15 33 l 1
 15 35 l 1
 17 35 l 1
 17 33 l 1
23 33 m 1
 21 33 l 1
 21 35 l 1
 23 35 l 1
 23 33 l 1
25 33 m 1
 24 33 l 1
 24 35 l 1
 26 35 l 1
 26 34 l 1
 25 34 l 1
 25 33 l 1
28 33 m 1
 26 33 l 1
 26 34 l 1
 27 34 l 1
 27 35 l 1
 28 35 l 1
 28 33 l 1
17 37 m 1
 15 37 l 1
 15 39 l 1
 17 39 l 1
 17 37 l 1
17 41 m 1
 15 41 l 1
 15 43 l 1
 17 43 l 1
 17 41 l 1
23 37 m 1
 21 37 l 1
 21 39 l 1
 23 39 l 1
 23 37 l 1
23 41 m 1
 21 41 l 1
 21 43 l 1
 23 43 l 1
 23 41 l 1
26 41 m 1
 24 41 l 1
 24 43 l 1
 25 43 l 1
 25 42 l 1
 26 42 l 1
 26 41 l 1
27 42 m 1
 26 42 l 1
 26 43 l 1
 28 43 l 1
 28 41 l 1
 27 41 l 1
 27 42 l 1
31 29 m 1
 29 29 l 1
 29 31 l 1
 31 31 l 1
 31 29 l 1
36 31 m 1
 34 31 l 1
 34 33 l 1
 36 33 l 1
 36 31 l 1
31 33 m 1
 29 33 l 1
 29 35 l 1
 31 35 l 1
 31 33 l 1
36 35 m 1
 34 35 l 1
 34 37 l 1
 36 37 l 1
 36 35 l 1
31 41 m 1
 29 41 l 1
 29 43 l 1
 31 43 l 1
 31 41 l 1
49 25 m 1
 47 25 l 1
 47 27 l 1
 49 27 l 1
 49 25 l 1
55 25 m 1
 53 25 l 1
 53 27 l 1
 55 27 l 1
 55 25 l 1
58 25 m 1
 56 25 l 1
 56 27 l 1
 57 27 l 1
 57 26 l 1
 58 26 l 1
 58 25 l 1
59 26 m 1
 58 26 l 1
 58 27 l 1
 60 27 l 1
 60 25 l 1
 59 25 l 1
 59 26 l 1
63 25 m 1
 61 25 l 1
 61 27 l 1
 63 27 l 1
 63 25 l 1
49 29 m 1
 47 29 l 1
 47 31 l 1
 49 31 l 1
 49 29 l 1
49 33 m 1
 47 33 l 1
 47 35 l 1
 49 35 l 1
 49 33 l 1
55 33 m 1
 53 33 l 1
 53 35 l 1
 55 35 l 1
 55 33 l 1
57 33 m 1
 56 33 l 1
 56 35 l 1
 58 35 l 1
 58 34 l 1
 57 34 l 1
 57 33 l 1
60 33 m 1
 58 33 l 1
 58 34 l 1
 59 34 l 1
 59 35 l 1
 60 35 l 1
 60 33 l 1
49 37 m 1
 47 37 l 1
 47 39 l 1
 49 39 l 1
 49 37 l 1
49 41 m 1
 47 41 l 1
 47 43 l 1
 49 43 l 1
 49 41 l 1
55 41 m 1
 53 41 l 1
 53 43 l 1
 55 43 l 1
 55 41 l 1
58 41 m 1
 56 41 l 1
 56 43 l 1
 57 43 l 1
 57 42 l 1
 58 42 l 1
 58 41 l 1
59 42 m 1
 58 42 l 1
 58 43 l 1
 60 43 l 1
 60 41 l 1
 59 41 l 1
 59 42 l 1
63 29 m 1
 61 29 l 1
 61 31 l 1
 63 31 l 1
 63 29 l 1
63 33 m 1
 61 33 l 1
 61 35 l 1
 63 35 l 1
 63 33 l 1
63 37 m 1
 61 37 l 1
 61 39 l 1
 63 39 l 1
 63 37 l 1
63 41 m 1
 61 41 l 1
 61 43 l 1
 63 43 l 1
 63 41 l 1
EndSplineSet
Ligature2: "'liga' Standard Ligatures in Latin lookup 0-1" one three zero seven two
LCarets2: 1 0
EndChar

StartChar: custom_1_3_0_7_3
Encoding: 4229 -1 3984
Width: 70
Flags: H
LayerCount: 2
Fore
SplineSet
9 0 m 1
 8 0 l 1
 8 1 l 1
 9 1 l 1
 9 0 l 1
17 25 m 1
 15 25 l 1
 15 27 l 1
 17 27 l 1
 17 25 l 1
23 25 m 1
 21 25 l 1
 21 27 l 1
 23 27 l 1
 23 25 l 1
26 25 m 1
 24 25 l 1
 24 27 l 1
 25 27 l 1
 25 26 l 1
 26 26 l 1
 26 25 l 1
27 26 m 1
 26 26 l 1
 26 27 l 1
 28 27 l 1
 28 25 l 1
 27 25 l 1
 27 26 l 1
31 25 m 1
 29 25 l 1
 29 27 l 1
 31 27 l 1
 31 25 l 1
17 29 m 1
 15 29 l 1
 15 31 l 1
 17 31 l 1
 17 29 l 1
17 33 m 1
 15 33 l 1
 15 35 l 1
 17 35 l 1
 17 33 l 1
23 33 m 1
 21 33 l 1
 21 35 l 1
 23 35 l 1
 23 33 l 1
25 33 m 1
 24 33 l 1
 24 35 l 1
 26 35 l 1
 26 34 l 1
 25 34 l 1
 25 33 l 1
28 33 m 1
 26 33 l 1
 26 34 l 1
 27 34 l 1
 27 35 l 1
 28 35 l 1
 28 33 l 1
17 37 m 1
 15 37 l 1
 15 39 l 1
 17 39 l 1
 17 37 l 1
17 41 m 1
 15 41 l 1
 15 43 l 1
 17 43 l 1
 17 41 l 1
23 37 m 1
 21 37 l 1
 21 39 l 1
 23 39 l 1
 23 37 l 1
23 41 m 1
 21 41 l 1
 21 43 l 1
 23 43 l 1
 23 41 l 1
26 41 m 1
 24 41 l 1
 24 43 l 1
 25 43 l 1
 25 42 l 1
 26 42 l 1
 26 41 l 1
27 42 m 1
 26 42 l 1
 26 43 l 1
 28 43 l 1
 28 41 l 1
 27 41 l 1
 27 42 l 1
31 29 m 1
 29 29 l 1
 29 31 l 1
 31 31 l 1
 31 29 l 1
36 31 m 1
 34 31 l 1
 34 33 l 1
 36 33 l 1
 36 31 l 1
31 33 m 1
 29 33 l 1
 29 35 l 1
 31 35 l 1
 31 33 l 1
36 35 m 1
 34 35 l 1
 34 37 l 1
 36 37 l 1
 36 35 l 1
31 41 m 1
 29 41 l 1
 29 43 l 1
 31 43 l 1
 31 41 l 1
49 25 m 1
 47 25 l 1
 47 27 l 1
 49 27 l 1
 49 25 l 1
55 25 m 1
 53 25 l 1
 53 27 l 1
 55 27 l 1
 55 25 l 1
58 25 m 1
 56 25 l 1
 56 27 l 1
 57 27 l 1
 57 26 l 1
 58 26 l 1
 58 25 l 1
59 26 m 1
 58 26 l 1
 58 27 l 1
 60 27 l 1
 60 25 l 1
 59 25 l 1
 59 26 l 1
63 25 m 1
 61 25 l 1
 61 27 l 1
 63 27 l 1
 63 25 l 1
49 29 m 1
 47 29 l 1
 47 31 l 1
 49 31 l 1
 49 29 l 1
49 33 m 1
 47 33 l 1
 47 35 l 1
 49 35 l 1
 49 33 l 1
55 33 m 1
 53 33 l 1
 53 35 l 1
 55 35 l 1
 55 33 l 1
57 33 m 1
 56 33 l 1
 56 35 l 1
 58 35 l 1
 58 34 l 1
 57 34 l 1
 57 33 l 1
60 33 m 1
 58 33 l 1
 58 34 l 1
 59 34 l 1
 59 35 l 1
 60 35 l 1
 60 33 l 1
49 37 m 1
 47 37 l 1
 47 39 l 1
 49 39 l 1
 49 37 l 1
49 41 m 1
 47 41 l 1
 47 43 l 1
 49 43 l 1
 49 41 l 1
55 41 m 1
 53 41 l 1
 53 43 l 1
 55 43 l 1
 55 41 l 1
58 41 m 1
 56 41 l 1
 56 43 l 1
 57 43 l 1
 57 42 l 1
 58 42 l 1
 58 41 l 1
59 42 m 1
 58 42 l 1
 58 43 l 1
 60 43 l 1
 60 41 l 1
 59 41 l 1
 59 42 l 1
63 29 m 1
 61 29 l 1
 61 31 l 1
 63 31 l 1
 63 29 l 1
63 33 m 1
 61 33 l 1
 61 35 l 1
 63 35 l 1
 63 33 l 1
63 37 m 1
 61 37 l 1
 61 39 l 1
 63 39 l 1
 63 37 l 1
63 41 m 1
 61 41 l 1
 61 43 l 1
 63 43 l 1
 63 41 l 1
EndSplineSet
Ligature2: "'liga' Standard Ligatures in Latin lookup 0-1" one three zero seven three
LCarets2: 1 0
EndChar

StartChar: custom_1_3_0_7_4
Encoding: 4230 -1 3985
Width: 70
Flags: H
LayerCount: 2
Fore
SplineSet
10 0 m 1
 8 0 l 1
 8 1 l 1
 10 1 l 1
 10 0 l 1
17 25 m 1
 15 25 l 1
 15 27 l 1
 17 27 l 1
 17 25 l 1
23 25 m 1
 21 25 l 1
 21 27 l 1
 23 27 l 1
 23 25 l 1
26 25 m 1
 24 25 l 1
 24 27 l 1
 25 27 l 1
 25 26 l 1
 26 26 l 1
 26 25 l 1
27 26 m 1
 26 26 l 1
 26 27 l 1
 28 27 l 1
 28 25 l 1
 27 25 l 1
 27 26 l 1
31 25 m 1
 29 25 l 1
 29 27 l 1
 31 27 l 1
 31 25 l 1
17 29 m 1
 15 29 l 1
 15 31 l 1
 17 31 l 1
 17 29 l 1
17 33 m 1
 15 33 l 1
 15 35 l 1
 17 35 l 1
 17 33 l 1
23 33 m 1
 21 33 l 1
 21 35 l 1
 23 35 l 1
 23 33 l 1
25 33 m 1
 24 33 l 1
 24 35 l 1
 26 35 l 1
 26 34 l 1
 25 34 l 1
 25 33 l 1
28 33 m 1
 26 33 l 1
 26 34 l 1
 27 34 l 1
 27 35 l 1
 28 35 l 1
 28 33 l 1
17 37 m 1
 15 37 l 1
 15 39 l 1
 17 39 l 1
 17 37 l 1
17 41 m 1
 15 41 l 1
 15 43 l 1
 17 43 l 1
 17 41 l 1
23 37 m 1
 21 37 l 1
 21 39 l 1
 23 39 l 1
 23 37 l 1
23 41 m 1
 21 41 l 1
 21 43 l 1
 23 43 l 1
 23 41 l 1
26 41 m 1
 24 41 l 1
 24 43 l 1
 25 43 l 1
 25 42 l 1
 26 42 l 1
 26 41 l 1
27 42 m 1
 26 42 l 1
 26 43 l 1
 28 43 l 1
 28 41 l 1
 27 41 l 1
 27 42 l 1
31 29 m 1
 29 29 l 1
 29 31 l 1
 31 31 l 1
 31 29 l 1
36 31 m 1
 34 31 l 1
 34 33 l 1
 36 33 l 1
 36 31 l 1
31 33 m 1
 29 33 l 1
 29 35 l 1
 31 35 l 1
 31 33 l 1
36 35 m 1
 34 35 l 1
 34 37 l 1
 36 37 l 1
 36 35 l 1
31 41 m 1
 29 41 l 1
 29 43 l 1
 31 43 l 1
 31 41 l 1
49 25 m 1
 47 25 l 1
 47 27 l 1
 49 27 l 1
 49 25 l 1
55 25 m 1
 53 25 l 1
 53 27 l 1
 55 27 l 1
 55 25 l 1
58 25 m 1
 56 25 l 1
 56 27 l 1
 57 27 l 1
 57 26 l 1
 58 26 l 1
 58 25 l 1
59 26 m 1
 58 26 l 1
 58 27 l 1
 60 27 l 1
 60 25 l 1
 59 25 l 1
 59 26 l 1
63 25 m 1
 61 25 l 1
 61 27 l 1
 63 27 l 1
 63 25 l 1
49 29 m 1
 47 29 l 1
 47 31 l 1
 49 31 l 1
 49 29 l 1
49 33 m 1
 47 33 l 1
 47 35 l 1
 49 35 l 1
 49 33 l 1
55 33 m 1
 53 33 l 1
 53 35 l 1
 55 35 l 1
 55 33 l 1
57 33 m 1
 56 33 l 1
 56 35 l 1
 58 35 l 1
 58 34 l 1
 57 34 l 1
 57 33 l 1
60 33 m 1
 58 33 l 1
 58 34 l 1
 59 34 l 1
 59 35 l 1
 60 35 l 1
 60 33 l 1
49 37 m 1
 47 37 l 1
 47 39 l 1
 49 39 l 1
 49 37 l 1
49 41 m 1
 47 41 l 1
 47 43 l 1
 49 43 l 1
 49 41 l 1
55 41 m 1
 53 41 l 1
 53 43 l 1
 55 43 l 1
 55 41 l 1
58 41 m 1
 56 41 l 1
 56 43 l 1
 57 43 l 1
 57 42 l 1
 58 42 l 1
 58 41 l 1
59 42 m 1
 58 42 l 1
 58 43 l 1
 60 43 l 1
 60 41 l 1
 59 41 l 1
 59 42 l 1
63 29 m 1
 61 29 l 1
 61 31 l 1
 63 31 l 1
 63 29 l 1
63 33 m 1
 61 33 l 1
 61 35 l 1
 63 35 l 1
 63 33 l 1
63 37 m 1
 61 37 l 1
 61 39 l 1
 63 39 l 1
 63 37 l 1
63 41 m 1
 61 41 l 1
 61 43 l 1
 63 43 l 1
 63 41 l 1
EndSplineSet
Ligature2: "'liga' Standard Ligatures in Latin lookup 0-1" one three zero seven four
LCarets2: 1 0
EndChar

